<?xml version="1.0" encoding="UTF-8" standalone="no"?>
<!-- Created with Inkscape (http://www.inkscape.org/) -->

<svg
   version="1.1"
   id="svg1"
   width="506.96533"
   height="315.35999"
   viewBox="0 0 506.96533 315.35999"
   xmlns="http://www.w3.org/2000/svg"
   xmlns:svg="http://www.w3.org/2000/svg">
  <defs
     id="defs1" />
  <g
     id="g1">
    <path
       id="path2"
       d="M 13.47981,4.37987 5e-5,14.17343 l -67.3994,7.7254 46.57171,-50.5653 29.15865,17.19997 5.1488,15.84637"
       style="fill:#0a9185;fill-opacity:0.2;fill-rule:nonzero;stroke:none"
       transform="matrix(1.3333333,0,0,-1.3333333,253.48267,173.12)" />
    <path
       id="path3"
       d="M 67.39914,21.89938 0,56.69464 -13.4798,4.3796 l 0.98314,-21.57922 54.15209,-40.13377 25.74371,79.23277"
       style="fill:#b62234;fill-opacity:0.2;fill-rule:nonzero;stroke:none"
       transform="matrix(1.3333333,0,0,-1.3333333,253.48267,173.12)" />
    <path
       id="path4"
       d="M 20.21973,6.5698 0,28.34732 V 0 0 0 l 20.21973,6.5698"
       style="fill:#7641a4;fill-opacity:0.2;fill-rule:nonzero;stroke:none"
       transform="matrix(1.3333333,0,0,-1.3333333,253.48267,173.12)" />
    <path
       id="path5"
       d="M 0,0 78.605,25.54042"
       style="fill:none;stroke:#000000;stroke-width:0.3985;stroke-linecap:butt;stroke-linejoin:miter;stroke-miterlimit:10;stroke-dasharray:none;stroke-opacity:1"
       transform="matrix(1.3333333,0,0,-1.3333333,253.48267,173.12)" />
    <path
       id="path6"
       d="m 2.39102,0 c -0.99626,0.19925 -2.78952,0.59775 -3.98503,1.49438 0.99626,-1.09588 0.99626,-1.89288 0,-2.98876 C -0.3985,-0.59775 1.39476,-0.19925 2.39102,0 Z"
       style="fill:#000000;fill-opacity:1;fill-rule:nonzero;stroke:none"
       transform="matrix(1.2680667,-0.412,-0.412,-1.2680667,358.28931,139.06611)" />
    <path
       id="path7"
       d="m 1.7935469,-2.8214316 h 1.6992187 c 0.8203125,0 1.4296875,-0.19125 1.8867188,-0.57375 0.4335937,-0.3705468 0.65625,-0.9084375 0.65625,-1.625625 0,-0.6574218 -0.2226563,-1.1833593 -0.6679688,-1.5897656 C 4.9224531,-7.0169784 4.3013594,-7.2201816 3.5044844,-7.2201816 H 0.84432813 V -4.940625e-4 H 1.7935469 Z m 0,-0.7889062 v -2.8328906 h 1.7578125 c 0.46875,0.023906 0.84375,0.1553906 1.125,0.4064062 0.2578125,0.2629688 0.4101562,0.5976563 0.4101562,1.0279688 0,0.4542187 -0.1523437,0.8008593 -0.4101562,1.0399218 -0.28125,0.2510157 -0.6679688,0.3585938 -1.171875,0.3585938 z m 7.9013672,-0.9323438 v -0.8486718 c -0.1054688,-0.047813 -0.234375,-0.071719 -0.4101563,-0.071719 -0.5507812,0 -0.984375,0.2390625 -1.2773437,0.7171875 L 7.9839766,-5.3674472 H 7.0933516 V -4.940625e-4 H 8.0191328 V -3.8135409 c 0.1992188,-0.5020313 0.609375,-0.765 1.21875,-0.765 0.1640625,0 0.3164063,0.011953 0.4570313,0.035859 z m 0.4863279,1.8049219 v 0.059766 c 0,0.8367188 0.222656,1.5060938 0.679688,2.02007816 0.445312,0.50203125 1.042968,0.765 1.769531,0.765 0.480469,0 0.902344,-0.11953125 1.277344,-0.34664062 0.375,-0.2390625 0.65625,-0.56179688 0.855468,-0.98015624 0.210938,-0.4064063 0.304688,-0.8725781 0.304688,-1.3985156 v -0.071719 c 0,-0.8367187 -0.234375,-1.5060937 -0.679688,-2.0200781 -0.445312,-0.5020313 -1.03125,-0.7530469 -1.769531,-0.7530469 -0.480469,0 -0.902344,0.1195313 -1.265625,0.3466406 -0.363281,0.2151563 -0.667969,0.5378907 -0.867187,0.95625 -0.199219,0.4303125 -0.304688,0.8964844 -0.304688,1.4224217 z m 0.925781,0.1195313 c 0,-0.669375 0.128907,-1.1833594 0.421875,-1.5539063 0.269532,-0.3585937 0.632813,-0.5378906 1.089844,-0.5378906 0.46875,0 0.832031,0.1792969 1.125,0.5378906 0.269531,0.3705469 0.410156,0.8486719 0.410156,1.434375 0,0.669375 -0.140625,1.1714063 -0.410156,1.5419531 -0.28125,0.35859379 -0.644531,0.54984379 -1.113281,0.54984379 -0.46875,0 -0.832031,-0.17929688 -1.101563,-0.53789059 -0.292968,-0.3585938 -0.421875,-0.8367188 -0.421875,-1.434375 z m 4.901368,-0.1195313 c 0,0.8725781 0.1875,1.5658594 0.574218,2.07984376 0.386719,0.50203125 0.890625,0.765 1.523438,0.765 0.632812,0 1.136719,-0.21515625 1.511719,-0.64546875 v 0.46617188 c 0,0.45421875 -0.140625,0.8128125 -0.386719,1.051875 -0.234375,0.26296871 -0.585938,0.38250001 -1.03125,0.38250001 -0.574219,0 -1.054688,-0.2390625 -1.441406,-0.72914064 L 16.277922,1.1828653 c 0.199219,0.286875 0.480469,0.5259375 0.84375,0.6813281 0.363281,0.1673438 0.75,0.2510157 1.136719,0.2510157 0.691406,0 1.253906,-0.19125 1.664062,-0.5976563 0.398438,-0.3944531 0.609375,-0.94429686 0.609375,-1.64953124 V -5.3674472 h -0.832031 l -0.04687,0.5857031 c -0.363281,-0.4542187 -0.878906,-0.6813281 -1.535156,-0.6813281 -0.644532,0 -1.148438,0.2510156 -1.535157,0.7410938 -0.386718,0.4900781 -0.574218,1.1594531 -0.574218,1.9842187 z m 0.925781,0.1195313 c 0,-0.6813282 0.117187,-1.2072657 0.375,-1.5539063 0.246094,-0.3346875 0.597656,-0.5139844 1.042969,-0.5139844 0.550781,0 0.972656,0.2510157 1.265625,0.765 v 2.4503907 c -0.28125,0.52593746 -0.703125,0.78890621 -1.277344,0.78890621 -0.445313,0 -0.796875,-0.16734375 -1.042969,-0.51398441 -0.246094,-0.3466406 -0.363281,-0.8128125 -0.363281,-1.4224218 z m 7.587891,-1.9244532 v -0.8486718 c -0.105469,-0.047813 -0.234375,-0.071719 -0.410157,-0.071719 -0.550781,0 -0.984375,0.2390625 -1.277343,0.7171875 l -0.02344,-0.6215625 H 21.9205 v 5.3669531375 h 0.925781 V -3.8135409 c 0.199219,-0.5020313 0.609375,-0.765 1.21875,-0.765 0.164063,0 0.316407,0.011953 0.457032,0.035859 z m 3.946289,4.5421875375 h 0.960937 V -0.08416594 c -0.117187,-0.286875 -0.1875,-0.68132812 -0.1875,-1.17140626 v -2.4742969 c -0.01172,-0.5378906 -0.199219,-0.9682031 -0.539062,-1.2670312 -0.363282,-0.3107813 -0.84375,-0.4661719 -1.453125,-0.4661719 -0.398438,0 -0.761719,0.071719 -1.078125,0.2151563 -0.328125,0.1434375 -0.597657,0.3466406 -0.773438,0.5976562 -0.199219,0.2390625 -0.292969,0.5020313 -0.292969,0.765 h 0.925782 c 0,-0.2271094 0.117187,-0.4303125 0.339843,-0.5976562 0.222657,-0.1553907 0.492188,-0.2390625 0.820313,-0.2390625 0.363281,0 0.65625,0.095625 0.84375,0.286875 0.1875,0.19125 0.28125,0.4422656 0.28125,0.7530468 v 0.4303125 h -0.890625 c -0.773438,0 -1.359375,0.1673438 -1.78125,0.4661719 -0.433594,0.3107813 -0.644531,0.7410938 -0.644531,1.3028906 0,0.4542188 0.164062,0.83671879 0.503906,1.13554691 0.339844,0.31078125 0.773437,0.45421875 1.300781,0.45421875 0.597656,0 1.113281,-0.22710937 1.535156,-0.68132812 0.03516,0.27492187 0.07031,0.46617187 0.128907,0.5737499975 z M 26.944914,-0.70572844 c -0.304687,0 -0.539062,-0.0717187 -0.738281,-0.2390625 -0.1875,-0.16734376 -0.28125,-0.38249996 -0.28125,-0.66937496 0,-0.6574219 0.5625,-0.9921094 1.6875,-0.9921094 h 0.703125 v 1.0996875 c -0.117188,0.2510156 -0.304688,0.4422656 -0.550781,0.58570311 -0.269532,0.1434375 -0.527344,0.21515625 -0.820313,0.21515625 z m 4.59082,-4.66171876 h -0.867187 v 5.3669531375 h 0.914062 V -3.9211191 c 0.222657,-0.5139843 0.632813,-0.765 1.242188,-0.765 0.761719,0 1.148437,0.3944532 1.148437,1.1714063 v 3.5142187375 h 0.914063 V -3.5625253 c 0.03516,-0.3346875 0.175781,-0.6096094 0.398437,-0.8128125 0.222657,-0.2032031 0.492188,-0.3107813 0.84375,-0.3107813 0.410157,0 0.703125,0.1075782 0.878907,0.286875 0.175781,0.1792969 0.269531,0.4661719 0.269531,0.8486719 v 3.5500781375 h 0.914062 V -3.5983847 c -0.01172,-1.243125 -0.609375,-1.8646875 -1.792968,-1.8646875 -0.398438,0 -0.738282,0.071719 -1.03125,0.2390625 -0.28125,0.1673438 -0.515625,0.3705469 -0.691407,0.6215625 -0.269531,-0.57375 -0.773437,-0.860625 -1.523437,-0.860625 -0.679688,0 -1.207031,0.2271094 -1.59375,0.6813281 z m 8.903321,0 H 39.571867 V -4.940625e-4 H 40.48593 V -3.9211191 c 0.222656,-0.5139843 0.632812,-0.765 1.242187,-0.765 0.761719,0 1.148438,0.3944532 1.148438,1.1714063 v 3.5142187375 h 0.914062 V -3.5625253 c 0.03516,-0.3346875 0.175781,-0.6096094 0.398438,-0.8128125 0.222656,-0.2032031 0.492187,-0.3107813 0.84375,-0.3107813 0.410156,0 0.703125,0.1075782 0.878906,0.286875 0.175781,0.1792969 0.269531,0.4661719 0.269531,0.8486719 v 3.5500781375 h 0.914063 V -3.5983847 c -0.01172,-1.243125 -0.609375,-1.8646875 -1.792969,-1.8646875 -0.398438,0 -0.738281,0.071719 -1.03125,0.2390625 -0.28125,0.1673438 -0.515625,0.3705469 -0.691406,0.6215625 -0.269532,-0.57375 -0.773438,-0.860625 -1.523438,-0.860625 -0.679687,0 -1.207031,0.2271094 -1.59375,0.6813281 z M 49.48007,-4.940625e-4 V -5.3674472 H 48.554289 V -4.940625e-4 Z M 48.483977,-6.7898691 c 0,0.1553907 0.03516,0.2749219 0.128906,0.3825 0.09375,0.095625 0.222656,0.1434375 0.410156,0.1434375 0.175781,0 0.304688,-0.047813 0.398438,-0.1434375 0.09375,-0.1075781 0.152343,-0.2271093 0.152343,-0.3825 0,-0.1434375 -0.05859,-0.2749218 -0.152343,-0.3705468 -0.09375,-0.1075782 -0.222657,-0.1673438 -0.398438,-0.1673438 -0.1875,0 -0.316406,0.059766 -0.410156,0.1673438 -0.09375,0.095625 -0.128906,0.2271093 -0.128906,0.3705468 z m 3.328125,1.4224219 h -0.878907 v 5.3669531375 h 0.925782 V -3.8254941 c 0.117187,-0.2629687 0.292968,-0.4661718 0.515625,-0.6215625 0.222656,-0.1553906 0.492187,-0.2390625 0.796875,-0.2390625 0.363281,0 0.621093,0.095625 0.808593,0.2749219 0.175782,0.1792969 0.269532,0.4661719 0.269532,0.8486719 v 3.5620312375 h 0.914062 V -3.5505722 c -0.02344,-1.2789844 -0.597656,-1.9125 -1.722656,-1.9125 -0.65625,0 -1.195313,0.2629688 -1.605469,0.765 z m 4.508789,2.6296875 c 0,0.8725781 0.1875,1.5658594 0.574218,2.07984376 0.386719,0.50203125 0.890625,0.765 1.523438,0.765 0.632812,0 1.136719,-0.21515625 1.511719,-0.64546875 v 0.46617188 c 0,0.45421875 -0.140625,0.8128125 -0.386719,1.051875 -0.234375,0.26296871 -0.585938,0.38250001 -1.03125,0.38250001 -0.574219,0 -1.054688,-0.2390625 -1.441406,-0.72914064 L 56.590422,1.1828653 c 0.199219,0.286875 0.480469,0.5259375 0.84375,0.6813281 0.363281,0.1673438 0.75,0.2510157 1.136719,0.2510157 0.691406,0 1.253906,-0.19125 1.664062,-0.5976563 0.398438,-0.3944531 0.609375,-0.94429686 0.609375,-1.64953124 V -5.3674472 h -0.832031 l -0.04687,0.5857031 c -0.363281,-0.4542187 -0.878906,-0.6813281 -1.535156,-0.6813281 -0.644532,0 -1.148438,0.2510156 -1.535157,0.7410938 -0.386718,0.4900781 -0.574218,1.1594531 -0.574218,1.9842187 z m 0.925781,0.1195313 c 0,-0.6813282 0.117187,-1.2072657 0.375,-1.5539063 0.246094,-0.3346875 0.597656,-0.5139844 1.042969,-0.5139844 0.550781,0 0.972656,0.2510157 1.265625,0.765 v 2.4503907 c -0.28125,0.52593746 -0.703125,0.78890621 -1.277344,0.78890621 -0.445313,0 -0.796875,-0.16734375 -1.042969,-0.51398441 -0.246094,-0.3466406 -0.363281,-0.8128125 -0.363281,-1.4224218 z m 0,0"
       style="fill:#000000;fill-opacity:1;fill-rule:nonzero;stroke:none"
       aria-label="Programming"
       transform="matrix(1.3333333,0,0,1.3071895,367.02267,126.30533)" />
    <path
       id="path8"
       d="M 0,0 V 0"
       style="fill:none;stroke:#b3b3b3;stroke-width:0.3985;stroke-linecap:butt;stroke-linejoin:miter;stroke-miterlimit:10;stroke-dasharray:none;stroke-opacity:1"
       transform="matrix(1.3333333,0,0,-1.3333333,253.48267,173.12)" />
    <path
       id="path9"
       d="M 13.47981,4.37987 5e-5,14.17343"
       style="fill:none;stroke:#b3b3b3;stroke-width:0.3985;stroke-linecap:butt;stroke-linejoin:miter;stroke-miterlimit:10;stroke-dasharray:none;stroke-opacity:1"
       transform="matrix(1.3333333,0,0,-1.3333333,253.48267,173.12)" />
    <path
       id="path10"
       d="M 26.95966,8.75974 0,28.34732"
       style="fill:none;stroke:#b3b3b3;stroke-width:0.3985;stroke-linecap:butt;stroke-linejoin:miter;stroke-miterlimit:10;stroke-dasharray:none;stroke-opacity:1"
       transform="matrix(1.3333333,0,0,-1.3333333,253.48267,173.12)" />
    <path
       id="path11"
       d="M 40.43947,13.13962 5e-5,42.52078"
       style="fill:none;stroke:#b3b3b3;stroke-width:0.3985;stroke-linecap:butt;stroke-linejoin:miter;stroke-miterlimit:10;stroke-dasharray:none;stroke-opacity:1"
       transform="matrix(1.3333333,0,0,-1.3333333,253.48267,173.12)" />
    <path
       id="path12"
       d="M 53.91931,17.5195 0,56.69464"
       style="fill:none;stroke:#b3b3b3;stroke-width:0.3985;stroke-linecap:butt;stroke-linejoin:miter;stroke-miterlimit:10;stroke-dasharray:none;stroke-opacity:1"
       transform="matrix(1.3333333,0,0,-1.3333333,253.48267,173.12)" />
    <path
       id="path13"
       d="M 67.39914,21.89938 5e-5,70.8681"
       style="fill:none;stroke:#b3b3b3;stroke-width:0.3985;stroke-linecap:butt;stroke-linejoin:miter;stroke-miterlimit:10;stroke-dasharray:none;stroke-opacity:1"
       transform="matrix(1.3333333,0,0,-1.3333333,253.48267,173.12)" />
    <path
       id="path14"
       d="M 0,0 V 82.65096"
       style="fill:none;stroke:#000000;stroke-width:0.3985;stroke-linecap:butt;stroke-linejoin:miter;stroke-miterlimit:10;stroke-dasharray:none;stroke-opacity:1"
       transform="matrix(1.3333333,0,0,-1.3333333,253.48267,173.12)" />
    <path
       id="path15"
       d="m 2.39102,0 c -0.99626,0.19925 -2.78952,0.59775 -3.98503,1.49438 0.99626,-1.09588 0.99626,-1.89288 0,-2.98876 C -0.3985,-0.59775 1.39476,-0.19925 2.39102,0 Z"
       style="fill:#000000;fill-opacity:1;fill-rule:nonzero;stroke:none"
       transform="matrix(0,-1.3333333,-1.3333333,0,253.48267,62.91872)" />
    <path
       id="path16"
       d="M 1.7924688,-0.77804484 V -7.2207792 H 0.84325 v 7.21968748 H 5.2260625 V -0.77804484 Z M 7.5405156,-7.2207792 H 6.3100469 v 7.21968748 H 7.2592656 V -2.8100761 l -0.09375,-3.0241406 2.3671875,5.83312498 h 0.7265629 l 2.367187,-5.85703128 -0.09375,3.0480469 v 2.80898438 h 0.960938 V -7.2207792 h -1.242188 l -2.3554686,5.8928906 z m 9.7617184,4.0042969 c 0.65625,0.19125 1.101563,0.3825 1.347657,0.57375 0.234375,0.19125 0.375,0.4661718 0.375,0.8247656 0,0.3585937 -0.140625,0.6335156 -0.410157,0.83671873 -0.269531,0.20320313 -0.644531,0.29882813 -1.148437,0.29882813 -0.539063,0 -0.960938,-0.11953125 -1.289063,-0.37054686 -0.328125,-0.2629688 -0.492187,-0.6096094 -0.492187,-1.0399219 h -0.949219 c 0,0.4303125 0.105469,0.8008594 0.339844,1.12359376 0.234375,0.3346875 0.574219,0.59765625 0.996094,0.78890625 0.433593,0.19125 0.902343,0.286875 1.394531,0.286875 0.761719,0 1.371094,-0.17929688 1.828125,-0.53789063 0.457031,-0.34664062 0.691406,-0.82476558 0.691406,-1.41046878 0,-0.3585937 -0.09375,-0.6813281 -0.257812,-0.95625 -0.152344,-0.2629687 -0.410157,-0.5020312 -0.75,-0.7052343 -0.339844,-0.2032032 -0.808594,-0.3944532 -1.40625,-0.5617969 -0.597657,-0.1673438 -1.03125,-0.3585938 -1.277344,-0.5617969 -0.246094,-0.2032031 -0.375,-0.4422656 -0.375,-0.7410937 0,-0.3585938 0.140625,-0.6574219 0.398437,-0.860625 0.269532,-0.2032032 0.632813,-0.3107813 1.101563,-0.3107813 0.503906,0 0.890625,0.1314844 1.171875,0.3825 0.28125,0.2510156 0.421875,0.5976563 0.421875,1.0279688 h 0.949219 c 0,-0.3944532 -0.105469,-0.765 -0.316407,-1.1116407 -0.222656,-0.3346875 -0.527343,-0.5976562 -0.914062,-0.7889062 -0.386719,-0.19125 -0.832031,-0.2988281 -1.3125,-0.2988281 -0.738281,0 -1.324219,0.19125 -1.769531,0.5617968 -0.457032,0.3705469 -0.679688,0.8367188 -0.679688,1.4104688 0,0.5139844 0.175781,0.9203906 0.550781,1.2670312 0.363282,0.3466407 0.960938,0.6335157 1.78125,0.8725782 z m 12.292969,-4.0042969 h -0.949219 v 4.8888281 c 0,0.5378906 -0.140625,0.9442969 -0.421875,1.2192188 -0.292968,0.28687496 -0.703125,0.43031246 -1.242187,0.43031246 -0.539063,0 -0.960938,-0.1434375 -1.242188,-0.43031246 -0.28125,-0.2749219 -0.421875,-0.6813282 -0.421875,-1.2192188 v -4.8888281 h -0.949218 v 4.9127344 c 0,0.7530468 0.246093,1.33874996 0.714843,1.76906246 0.46875,0.4303125 1.101563,0.64546875 1.898438,0.64546875 l 0.246094,-0.01195313 c 0.726562,-0.05976562 1.300781,-0.29882812 1.734375,-0.74109375 0.421875,-0.41835933 0.632812,-0.98015623 0.632812,-1.67343753 z m 4.488281,5.7972656 c 0,0.2390625 -0.117187,0.43031251 -0.316406,0.57375001 -0.210937,0.13148437 -0.480469,0.20320312 -0.832031,0.20320312 -0.386719,0 -0.691406,-0.095625 -0.914063,-0.27492187 C 31.786609,-1.1127323 31.669422,-1.3517948 31.657703,-1.6625761 h -0.925781 c 0,0.3346875 0.09375,0.6215625 0.28125,0.89648438 0.1875,0.27492188 0.445312,0.49007813 0.785156,0.64546875 0.328125,0.15539063 0.714844,0.22710938 1.136719,0.22710938 0.609375,0 1.101562,-0.1434375 1.488281,-0.4303125 0.386719,-0.286875 0.574219,-0.669375 0.574219,-1.15945311 0,-0.286875 -0.07031,-0.5259375 -0.199219,-0.7291406 -0.140625,-0.2032032 -0.351562,-0.3825 -0.632812,-0.5259375 -0.28125,-0.1434375 -0.65625,-0.2629688 -1.113282,-0.3585938 -0.457031,-0.1075781 -0.773437,-0.2032031 -0.949218,-0.3227344 -0.1875,-0.1075781 -0.269532,-0.2749218 -0.269532,-0.5020312 0,-0.2390625 0.09375,-0.4303125 0.292969,-0.57375 0.175781,-0.1434375 0.445313,-0.2151563 0.773438,-0.2151563 0.328125,0 0.597656,0.083672 0.808593,0.2749219 0.210938,0.1792969 0.328125,0.4064063 0.328125,0.6454688 h 0.914063 c 0,-0.4900782 -0.199219,-0.8845313 -0.574219,-1.1953125 -0.375,-0.3227344 -0.867187,-0.478125 -1.476562,-0.478125 -0.585938,0 -1.066407,0.1434375 -1.429688,0.4542187 -0.375,0.2988281 -0.5625,0.6813281 -0.5625,1.1116406 0,0.2749219 0.07031,0.5020313 0.199219,0.6813282 0.128906,0.2032031 0.339844,0.3585937 0.609375,0.5020312 0.269531,0.1434375 0.644531,0.2510156 1.101562,0.3585938 0.46875,0.095625 0.796875,0.2151562 0.984375,0.3585937 0.175782,0.1314844 0.28125,0.3346875 0.28125,0.57375 z m 5.419922,1.42242188 h 0.960938 v -0.08367187 c -0.117188,-0.286875 -0.1875,-0.68132813 -0.1875,-1.17140621 v -2.4742969 c -0.01172,-0.5378906 -0.199219,-0.9682031 -0.539063,-1.2670313 -0.363281,-0.3107812 -0.84375,-0.4661718 -1.453125,-0.4661718 -0.398437,0 -0.761718,0.071719 -1.078125,0.2151562 -0.328125,0.1434375 -0.597656,0.3466406 -0.773437,0.5976563 -0.199219,0.2390625 -0.292969,0.5020312 -0.292969,0.765 h 0.925781 c 0,-0.2271094 0.117188,-0.4303125 0.339844,-0.5976563 0.222656,-0.1553906 0.492188,-0.2390625 0.820313,-0.2390625 0.363281,0 0.65625,0.095625 0.84375,0.286875 0.1875,0.19125 0.28125,0.4422656 0.28125,0.7530469 v 0.4303125 h -0.890625 c -0.773438,0 -1.359375,0.1673437 -1.78125,0.4661719 -0.433594,0.3107812 -0.644532,0.7410937 -0.644532,1.3028906 0,0.4542187 0.164063,0.83671873 0.503907,1.13554686 0.339843,0.31078125 0.773437,0.45421875 1.300781,0.45421875 0.597656,0 1.113281,-0.22710938 1.535156,-0.68132813 0.03516,0.27492188 0.07031,0.46617188 0.128906,0.57375 z m -1.523437,-0.70523437 c -0.304688,0 -0.539063,-0.0717187 -0.738281,-0.2390625 -0.1875,-0.16734371 -0.28125,-0.38250001 -0.28125,-0.66937501 0,-0.6574219 0.5625,-0.9921094 1.6875,-0.9921094 h 0.703125 v 1.0996875 c -0.117188,0.2510157 -0.304688,0.4422657 -0.550782,0.58570316 -0.269531,0.1434375 -0.527343,0.21515625 -0.820312,0.21515625 z m 3.512695,-2.03203121 c 0,0.8725781 0.1875,1.5658593 0.574219,2.07984371 0.386719,0.50203125 0.890625,0.765 1.523437,0.765 0.632813,0 1.136719,-0.21515625 1.511719,-0.64546875 v 0.46617187 c 0,0.45421875 -0.140625,0.8128125 -0.386719,1.051875 -0.234375,0.26296877 -0.585937,0.38249997 -1.03125,0.38249997 -0.574218,0 -1.054687,-0.2390625 -1.441406,-0.72914059 L 41.762195,1.1822677 c 0.199219,0.286875 0.480469,0.5259375 0.84375,0.6813281 0.363282,0.1673437 0.75,0.2510156 1.136719,0.2510156 0.691406,0 1.253906,-0.19125 1.664063,-0.5976562 0.398437,-0.3944532 0.609375,-0.94429692 0.609375,-1.64953129 V -5.3680448 H 45.18407 l -0.04687,0.5857031 c -0.363281,-0.4542188 -0.878906,-0.6813281 -1.535156,-0.6813281 -0.644531,0 -1.148437,0.2510156 -1.535156,0.7410937 -0.386719,0.4900781 -0.574219,1.1594531 -0.574219,1.9842188 z m 0.925781,0.1195312 c 0,-0.6813281 0.117188,-1.2072656 0.375,-1.5539062 0.246094,-0.3346875 0.597657,-0.5139844 1.042969,-0.5139844 0.550781,0 0.972656,0.2510156 1.265625,0.765 v 2.4503906 c -0.28125,0.52593751 -0.703125,0.78890626 -1.277344,0.78890626 -0.445312,0 -0.796875,-0.16734375 -1.042968,-0.51398436 -0.246094,-0.3466406 -0.363282,-0.8128125 -0.363282,-1.4224219 z m 7.22461,2.72531251 c 0.890625,0 1.570312,-0.34664063 2.015625,-1.03992188 L 51.107898,-1.3757011 c -0.175781,0.2271094 -0.386718,0.39445313 -0.609375,0.52593751 -0.222656,0.13148437 -0.492187,0.20320312 -0.820312,0.20320312 -0.457031,0 -0.832031,-0.16734375 -1.125,-0.49007813 C 48.260242,-1.459373 48.107898,-1.8896855 48.09618,-2.415623 h 3.632812 v -0.3944531 c 0,-0.8486719 -0.199219,-1.4941406 -0.585937,-1.9722656 -0.386719,-0.4542188 -0.9375,-0.6813281 -1.628907,-0.6813281 -0.421875,0 -0.820312,0.1195312 -1.183593,0.3466406 -0.363282,0.2510156 -0.65625,0.57375 -0.855469,0.9921094 -0.199219,0.4183593 -0.304688,0.8964843 -0.304688,1.4224218 v 0.1553907 c 0,0.8128125 0.222657,1.4582812 0.691407,1.93640621 0.457031,0.478125 1.042968,0.7171875 1.78125,0.7171875 z M 49.514148,-4.710623 c 0.386719,0 0.691407,0.1314844 0.914063,0.3825 0.222656,0.2629688 0.351562,0.6215625 0.375,1.0877344 v 0.071719 h -2.671875 c 0.04687,-0.4900782 0.199219,-0.860625 0.457031,-1.1355469 0.234375,-0.2749219 0.550781,-0.4064063 0.925781,-0.4064065 z m 0,0"
       style="fill:#000000;fill-opacity:1;fill-rule:nonzero;stroke:none"
       aria-label="LMSUsage"
       transform="matrix(1.3333333,0,0,1.3071895,218.75067,14.005333)" />
    <path
       id="path17"
       d="M 0,0 V 0"
       style="fill:none;stroke:#b3b3b3;stroke-width:0.3985;stroke-linecap:butt;stroke-linejoin:miter;stroke-miterlimit:10;stroke-dasharray:none;stroke-opacity:1"
       transform="matrix(1.3333333,0,0,-1.3333333,253.48267,173.12)" />
    <path
       id="path18"
       d="M 5e-5,14.17343 -13.4798,4.3796"
       style="fill:none;stroke:#b3b3b3;stroke-width:0.3985;stroke-linecap:butt;stroke-linejoin:miter;stroke-miterlimit:10;stroke-dasharray:none;stroke-opacity:1"
       transform="matrix(1.3333333,0,0,-1.3333333,253.48267,173.12)" />
    <path
       id="path19"
       d="M 0,28.34732 -26.95975,8.75961"
       style="fill:none;stroke:#b3b3b3;stroke-width:0.3985;stroke-linecap:butt;stroke-linejoin:miter;stroke-miterlimit:10;stroke-dasharray:none;stroke-opacity:1"
       transform="matrix(1.3333333,0,0,-1.3333333,253.48267,173.12)" />
    <path
       id="path20"
       d="M 5e-5,42.52078 -40.43954,13.13922"
       style="fill:none;stroke:#b3b3b3;stroke-width:0.3985;stroke-linecap:butt;stroke-linejoin:miter;stroke-miterlimit:10;stroke-dasharray:none;stroke-opacity:1"
       transform="matrix(1.3333333,0,0,-1.3333333,253.48267,173.12)" />
    <path
       id="path21"
       d="M 0,56.69464 -53.91953,17.51924"
       style="fill:none;stroke:#b3b3b3;stroke-width:0.3985;stroke-linecap:butt;stroke-linejoin:miter;stroke-miterlimit:10;stroke-dasharray:none;stroke-opacity:1"
       transform="matrix(1.3333333,0,0,-1.3333333,253.48267,173.12)" />
    <path
       id="path22"
       d="M 5e-5,70.8681 -67.39935,21.89883"
       style="fill:none;stroke:#b3b3b3;stroke-width:0.3985;stroke-linecap:butt;stroke-linejoin:miter;stroke-miterlimit:10;stroke-dasharray:none;stroke-opacity:1"
       transform="matrix(1.3333333,0,0,-1.3333333,253.48267,173.12)" />
    <path
       id="path23"
       d="M 0,0 -78.60532,25.54001"
       style="fill:none;stroke:#000000;stroke-width:0.3985;stroke-linecap:butt;stroke-linejoin:miter;stroke-miterlimit:10;stroke-dasharray:none;stroke-opacity:1"
       transform="matrix(1.3333333,0,0,-1.3333333,253.48267,173.12)" />
    <path
       id="path24"
       d="m 2.39102,0 c -0.99626,0.19925 -2.78952,0.59775 -3.98503,1.49438 0.99626,-1.09588 0.99626,-1.89288 0,-2.98876 C -0.3985,-0.59775 1.39476,-0.19925 2.39102,0 Z"
       style="fill:#000000;fill-opacity:1;fill-rule:nonzero;stroke:none"
       transform="matrix(-1.2680667,-0.412,-0.412,1.2680667,148.6756,139.06665)" />
    <path
       id="path25"
       d="m 2.9635156,-3.2166417 c 0.65625,0.19125 1.1015625,0.3825 1.3476563,0.57375 0.234375,0.19125 0.375,0.4661719 0.375,0.8247656 0,0.3585938 -0.140625,0.6335156 -0.4101563,0.83671876 -0.2695312,0.20320312 -0.6445312,0.29882812 -1.1484375,0.29882812 -0.5390625,0 -0.9609375,-0.11953125 -1.2890625,-0.37054688 C 1.5103906,-1.3160948 1.3463281,-1.6627355 1.3463281,-2.093048 H 0.39710937 c 0,0.4303125 0.10546875,0.8008594 0.33984375,1.12359378 0.234375,0.3346875 0.57421878,0.59765625 0.99609378,0.78890625 0.4335937,0.19125 0.9023437,0.286875 1.3945312,0.286875 0.7617188,0 1.3710938,-0.17929687 1.828125,-0.53789062 0.4570313,-0.34664063 0.6914063,-0.82476561 0.6914063,-1.41046871 0,-0.3585938 -0.09375,-0.6813282 -0.2578125,-0.95625 -0.1523438,-0.2629688 -0.4101563,-0.5020313 -0.75,-0.7052344 -0.3398438,-0.2032031 -0.8085938,-0.3944531 -1.40625,-0.5617969 -0.5976563,-0.1673437 -1.03125,-0.3585937 -1.2773438,-0.5617969 -0.2460937,-0.2032031 -0.375,-0.4422656 -0.375,-0.7410937 0,-0.3585938 0.140625,-0.6574219 0.3984375,-0.860625 0.2695313,-0.2032031 0.6328125,-0.3107813 1.1015625,-0.3107813 0.5039063,0 0.890625,0.1314844 1.171875,0.3825 0.28125,0.2510157 0.421875,0.5976563 0.421875,1.0279688 h 0.9492188 c 0,-0.3944531 -0.1054688,-0.765 -0.3164063,-1.1116406 -0.2226562,-0.3346875 -0.5273437,-0.5976563 -0.9140625,-0.7889063 -0.3867187,-0.19125 -0.8320312,-0.2988281 -1.3125,-0.2988281 -0.7382812,0 -1.3242187,0.19125 -1.7695312,0.5617969 -0.45703128,0.3705468 -0.67968753,0.8367187 -0.67968753,1.4104687 0,0.5139844 0.17578125,0.9203906 0.55078123,1.2670313 0.3632813,0.3466406 0.9609375,0.6335156 1.78125,0.8725781 z M 8.4742578,-1.3400011 7.1383203,-5.3682042 H 6.1422266 L 8.0523828,-0.06101672 7.8414453,0.48882703 C 7.7359766,0.82351453 7.5953516,1.0506239 7.4195703,1.1821083 7.2320703,1.3016395 6.9859766,1.3614052 6.6812891,1.3614052 l -0.234375,-0.023906 v 0.7530469 l 0.3398437,0.059766 0.1757813,0.011953 C 7.6891016,2.1742177 8.2164453,1.731952 8.5562891,0.83546766 L 10.712539,-5.3682042 H 9.7281641 Z m 6.1787112,-0.083672 c 0,0.2390625 -0.117188,0.43031253 -0.316407,0.57375003 -0.210937,0.13148438 -0.480468,0.20320313 -0.832031,0.20320313 -0.386719,0 -0.691406,-0.095625 -0.914062,-0.27492188 C 12.356094,-1.1128917 12.238906,-1.3519542 12.227187,-1.6627355 h -0.925781 c 0,0.3346875 0.09375,0.6215625 0.28125,0.89648441 0.1875,0.27492187 0.445313,0.49007812 0.785156,0.64546875 0.328125,0.15539062 0.714844,0.22710937 1.136719,0.22710937 0.609375,0 1.101563,-0.1434375 1.488281,-0.4303125 0.386719,-0.286875 0.574219,-0.669375 0.574219,-1.15945313 0,-0.286875 -0.07031,-0.5259375 -0.199219,-0.7291406 C 15.227187,-2.4157823 15.01625,-2.5950792 14.735,-2.7385167 14.45375,-2.8819542 14.07875,-3.0014855 13.621719,-3.0971105 13.164687,-3.2046886 12.848281,-3.3003136 12.6725,-3.4198448 12.485,-3.527423 12.402969,-3.6947667 12.402969,-3.9218761 c 0,-0.2390625 0.09375,-0.4303125 0.292968,-0.57375 0.175782,-0.1434375 0.445313,-0.2151562 0.773438,-0.2151562 0.328125,0 0.597656,0.083672 0.808594,0.2749218 0.210937,0.1792969 0.328125,0.4064063 0.328125,0.6454688 h 0.914062 c 0,-0.4900781 -0.199219,-0.8845313 -0.574219,-1.1953125 -0.375,-0.3227344 -0.867187,-0.478125 -1.476562,-0.478125 -0.585938,0 -1.066406,0.1434375 -1.429688,0.4542187 -0.375,0.2988282 -0.5625,0.6813282 -0.5625,1.1116407 0,0.2749218 0.07031,0.5020312 0.199219,0.6813281 0.128906,0.2032031 0.339844,0.3585937 0.609375,0.5020312 0.269531,0.1434375 0.644531,0.2510157 1.101563,0.3585938 0.46875,0.095625 0.796875,0.2151562 0.984375,0.3585937 0.175781,0.1314844 0.28125,0.3346875 0.28125,0.5737499 z m 3.357422,-5.2474218 h -0.914063 v 1.3028906 h -0.996094 v 0.7171875 h 0.996094 v 3.3229687 c 0,0.46617191 0.09375,0.81281253 0.304688,1.06382816 0.199218,0.2390625 0.515625,0.37054687 0.925781,0.37054687 0.222656,0 0.457031,-0.03585937 0.703125,-0.10757812 v -0.74109375 c -0.175781,0.0358594 -0.328125,0.0597656 -0.433594,0.0597656 -0.222656,0 -0.375,-0.0478125 -0.457031,-0.16734375 -0.09375,-0.095625 -0.128906,-0.26296871 -0.128906,-0.47812501 v -3.3229687 h 0.996093 v -0.7171875 h -0.996093 z m 4.297851,6.77742183 c 0.890625,0 1.570313,-0.34664062 2.015625,-1.03992187 L 23.773086,-1.3758605 c -0.175781,0.2271094 -0.386719,0.39445316 -0.609375,0.52593753 -0.222656,0.13148438 -0.492188,0.20320313 -0.820313,0.20320313 -0.457031,0 -0.832031,-0.16734375 -1.125,-0.49007816 -0.292968,-0.3227343 -0.445312,-0.7530468 -0.457031,-1.2789843 h 3.632813 v -0.3944532 c 0,-0.8486718 -0.199219,-1.4941406 -0.585938,-1.9722656 -0.386719,-0.4542187 -0.9375,-0.6813281 -1.628906,-0.6813281 -0.421875,0 -0.820313,0.1195312 -1.183594,0.3466406 -0.363281,0.2510156 -0.65625,0.57375 -0.855469,0.9921094 -0.199218,0.4183594 -0.304687,0.8964844 -0.304687,1.4224219 v 0.1553906 c 0,0.8128125 0.222656,1.4582812 0.691406,1.93640623 0.457031,0.478125 1.042969,0.7171875 1.78125,0.7171874 z M 22.179336,-4.7107823 c 0.386719,0 0.691406,0.1314843 0.914062,0.3825 0.222657,0.2629687 0.351563,0.6215625 0.375,1.0877343 v 0.071719 h -2.671875 c 0.04687,-0.4900781 0.199219,-0.860625 0.457032,-1.1355469 0.234375,-0.2749219 0.550781,-0.4064062 0.925781,-0.4064064 z m 4.133789,-0.6574219 h -0.867188 v 5.36695311 H 26.36 V -3.9218761 c 0.222656,-0.5139844 0.632812,-0.765 1.242187,-0.765 0.761719,0 1.148438,0.3944531 1.148438,1.1714063 v 3.51421871 h 0.914062 V -3.5632823 c 0.03516,-0.3346875 0.175782,-0.6096094 0.398438,-0.8128125 0.222656,-0.2032032 0.492187,-0.3107813 0.84375,-0.3107813 0.410156,0 0.703125,0.1075781 0.878906,0.286875 0.175781,0.1792969 0.269531,0.4661719 0.269531,0.8486719 v 3.55007811 h 0.914063 V -3.5991417 c -0.01172,-1.243125 -0.609375,-1.8646875 -1.792969,-1.8646875 -0.398437,0 -0.738281,0.071719 -1.03125,0.2390625 -0.28125,0.1673437 -0.515625,0.3705469 -0.691406,0.6215625 -0.269531,-0.57375 -0.773438,-0.860625 -1.523438,-0.860625 -0.679687,0 -1.207031,0.2271094 -1.59375,0.6813281 z m 14.663086,5.36695311 h 0.960937 v -0.08367188 c -0.117187,-0.286875 -0.1875,-0.68132812 -0.1875,-1.17140623 v -2.4742969 c -0.01172,-0.5378906 -0.199218,-0.9682031 -0.539062,-1.2670312 -0.363281,-0.3107813 -0.84375,-0.4661719 -1.453125,-0.4661719 -0.398438,0 -0.761719,0.071719 -1.078125,0.2151562 -0.328125,0.1434375 -0.597656,0.3466407 -0.773438,0.5976563 -0.199218,0.2390625 -0.292968,0.5020312 -0.292968,0.765 h 0.925781 c 0,-0.2271094 0.117187,-0.4303125 0.339844,-0.5976563 0.222656,-0.1553906 0.492187,-0.2390625 0.820312,-0.2390625 0.363281,0 0.65625,0.095625 0.84375,0.286875 0.1875,0.19125 0.28125,0.4422657 0.28125,0.7530469 v 0.4303125 h -0.890625 c -0.773437,0 -1.359375,0.1673438 -1.78125,0.4661719 -0.433594,0.3107812 -0.644531,0.7410937 -0.644531,1.3028906 0,0.4542188 0.164062,0.83671876 0.503906,1.13554688 0.339844,0.31078125 0.773438,0.45421875 1.300781,0.45421875 0.597657,0 1.113282,-0.22710937 1.535157,-0.68132812 0.03516,0.27492187 0.07031,0.46617187 0.128906,0.57375 z m -1.523438,-0.70523438 c -0.304687,0 -0.539062,-0.0717188 -0.738281,-0.2390625 -0.1875,-0.16734373 -0.28125,-0.38250003 -0.28125,-0.66937503 0,-0.6574218 0.5625,-0.9921093 1.6875,-0.9921093 h 0.703125 v 1.0996875 c -0.117187,0.2510156 -0.304687,0.4422656 -0.550781,0.58570308 -0.269531,0.1434375 -0.527344,0.21515625 -0.820313,0.21515625 z M 42.95668,-2.7385167 v 0.071719 c 0,0.8247657 0.1875,1.4941407 0.585937,2.00812503 0.386719,0.50203125 0.890625,0.765 1.523438,0.765 0.65625,0 1.171875,-0.2390625 1.535156,-0.68132812 l 0.04687,0.57375 h 0.84375 V -7.6273448 h -0.914063 v 2.7970312 c -0.375,-0.4183594 -0.867187,-0.6335156 -1.5,-0.6335156 -0.632812,0 -1.148437,0.2510156 -1.535156,0.7530469 -0.398437,0.4900781 -0.585937,1.1475 -0.585937,1.9722656 z m 0.925781,0.1195312 c 0,-0.6813281 0.117187,-1.2072656 0.375,-1.5539062 0.246094,-0.3346875 0.597656,-0.5139844 1.042969,-0.5139844 0.574218,0 0.984375,0.2510156 1.277343,0.7530469 v 2.4742969 c -0.28125,0.52593746 -0.703125,0.77695308 -1.289062,0.77695308 -0.445313,0 -0.785156,-0.16734375 -1.03125,-0.50203128 -0.257813,-0.3466406 -0.375,-0.8247656 -0.375,-1.434375 z m 5.882812,-2.7492187 h -0.867187 v 5.36695311 h 0.914062 V -3.9218761 c 0.222657,-0.5139844 0.632813,-0.765 1.242188,-0.765 0.761719,0 1.148437,0.3944531 1.148437,1.1714063 v 3.51421871 h 0.914063 V -3.5632823 c 0.03516,-0.3346875 0.175781,-0.6096094 0.398437,-0.8128125 0.222657,-0.2032032 0.492188,-0.3107813 0.84375,-0.3107813 0.410157,0 0.703125,0.1075781 0.878907,0.286875 0.175781,0.1792969 0.269531,0.4661719 0.269531,0.8486719 v 3.55007811 h 0.914062 V -3.5991417 c -0.01172,-1.243125 -0.609375,-1.8646875 -1.792968,-1.8646875 -0.398438,0 -0.738282,0.071719 -1.03125,0.2390625 -0.28125,0.1673437 -0.515625,0.3705469 -0.691407,0.6215625 -0.269531,-0.57375 -0.773437,-0.860625 -1.523437,-0.860625 -0.679688,0 -1.207031,0.2271094 -1.59375,0.6813281 z m 9.043946,5.36695311 V -5.3682042 h -0.925782 v 5.36695311 z M 57.813125,-6.7906261 c 0,0.1553906 0.03516,0.2749219 0.128906,0.3825 0.09375,0.095625 0.222656,0.1434375 0.410156,0.1434375 0.175782,0 0.304688,-0.047813 0.398438,-0.1434375 0.09375,-0.1075781 0.152344,-0.2271094 0.152344,-0.3825 0,-0.1434375 -0.05859,-0.2749219 -0.152344,-0.3705469 -0.09375,-0.1075781 -0.222656,-0.1673437 -0.398438,-0.1673437 -0.1875,0 -0.316406,0.059766 -0.410156,0.1673437 -0.09375,0.095625 -0.128906,0.2271094 -0.128906,0.3705469 z m 3.325195,1.4224219 h -0.878906 v 5.36695311 h 0.925781 V -3.8262511 c 0.117188,-0.2629687 0.292969,-0.4661719 0.515625,-0.6215625 0.222657,-0.1553906 0.492188,-0.2390625 0.796875,-0.2390625 0.363282,0 0.621094,0.095625 0.808594,0.2749219 0.175781,0.1792969 0.269531,0.4661719 0.269531,0.8486719 v 3.56203121 h 0.914063 V -3.5513292 c -0.02344,-1.2789844 -0.597656,-1.9125 -1.722656,-1.9125 -0.65625,0 -1.195313,0.2629687 -1.605469,0.765 z m 5.730469,5.36695311 V -5.3682042 h -0.925781 v 5.36695311 z M 65.872695,-6.7906261 c 0,0.1553906 0.03516,0.2749219 0.128907,0.3825 0.09375,0.095625 0.222656,0.1434375 0.410156,0.1434375 0.175781,0 0.304687,-0.047813 0.398437,-0.1434375 0.09375,-0.1075781 0.152344,-0.2271094 0.152344,-0.3825 0,-0.1434375 -0.05859,-0.2749219 -0.152344,-0.3705469 -0.09375,-0.1075781 -0.222656,-0.1673437 -0.398437,-0.1673437 -0.1875,0 -0.316406,0.059766 -0.410156,0.1673437 -0.09375,0.095625 -0.128907,0.2271094 -0.128907,0.3705469 z m 5.575196,5.3669531 c 0,0.2390625 -0.117188,0.43031253 -0.316407,0.57375003 -0.210937,0.13148438 -0.480468,0.20320313 -0.832031,0.20320313 -0.386719,0 -0.691406,-0.095625 -0.914062,-0.27492188 C 69.151016,-1.1128917 69.033828,-1.3519542 69.022109,-1.6627355 h -0.925781 c 0,0.3346875 0.09375,0.6215625 0.28125,0.89648441 0.1875,0.27492187 0.445313,0.49007812 0.785156,0.64546875 0.328125,0.15539062 0.714844,0.22710937 1.136719,0.22710937 0.609375,0 1.101563,-0.1434375 1.488281,-0.4303125 0.386719,-0.286875 0.574219,-0.669375 0.574219,-1.15945313 0,-0.286875 -0.07031,-0.5259375 -0.199219,-0.7291406 -0.140625,-0.2032031 -0.351562,-0.3825 -0.632812,-0.5259375 -0.28125,-0.1434375 -0.65625,-0.2629688 -1.113281,-0.3585938 -0.457032,-0.1075781 -0.773438,-0.2032031 -0.949219,-0.3227343 -0.1875,-0.1075782 -0.269531,-0.2749219 -0.269531,-0.5020313 0,-0.2390625 0.09375,-0.4303125 0.292968,-0.57375 0.175782,-0.1434375 0.445313,-0.2151562 0.773438,-0.2151562 0.328125,0 0.597656,0.083672 0.808594,0.2749218 0.210937,0.1792969 0.328125,0.4064063 0.328125,0.6454688 h 0.914062 c 0,-0.4900781 -0.199219,-0.8845313 -0.574219,-1.1953125 -0.375,-0.3227344 -0.867187,-0.478125 -1.476562,-0.478125 -0.585938,0 -1.066406,0.1434375 -1.429688,0.4542187 -0.375,0.2988282 -0.5625,0.6813282 -0.5625,1.1116407 0,0.2749218 0.07031,0.5020312 0.199219,0.6813281 0.128906,0.2032031 0.339844,0.3585937 0.609375,0.5020312 0.269531,0.1434375 0.644531,0.2510157 1.101563,0.3585938 0.46875,0.095625 0.796875,0.2151562 0.984375,0.3585937 0.175781,0.1314844 0.28125,0.3346875 0.28125,0.57375 z m 3.357421,-5.2474218 H 73.89125 v 1.3028906 h -0.996094 v 0.7171875 h 0.996094 v 3.3229687 c 0,0.46617191 0.09375,0.81281253 0.304687,1.06382816 0.199219,0.2390625 0.515625,0.37054687 0.925782,0.37054687 0.222656,0 0.457031,-0.03585937 0.703125,-0.10757812 v -0.74109375 c -0.175782,0.0358594 -0.328125,0.0597656 -0.433594,0.0597656 -0.222656,0 -0.375,-0.0478125 -0.457031,-0.16734375 -0.09375,-0.095625 -0.128907,-0.26296871 -0.128907,-0.47812501 v -3.3229687 h 0.996094 v -0.7171875 h -0.996094 z m 4.661133,2.1276562 v -0.8486719 c -0.105468,-0.047813 -0.234375,-0.071719 -0.410156,-0.071719 -0.550781,0 -0.984375,0.2390625 -1.277344,0.7171875 l -0.02344,-0.6215625 H 76.86488 v 5.36695311 h 0.925781 V -3.814298 c 0.199219,-0.5020312 0.609375,-0.765 1.21875,-0.765 0.164063,0 0.316406,0.011953 0.457031,0.035859 z m 3.958008,4.54218751 h 0.960938 v -0.08367188 c -0.117188,-0.286875 -0.1875,-0.68132812 -0.1875,-1.17140623 v -2.4742969 c -0.01172,-0.5378906 -0.199219,-0.9682031 -0.539063,-1.2670312 -0.363281,-0.3107813 -0.84375,-0.4661719 -1.453125,-0.4661719 -0.398437,0 -0.761719,0.071719 -1.078125,0.2151562 -0.328125,0.1434375 -0.597656,0.3466407 -0.773437,0.5976563 -0.199219,0.2390625 -0.292969,0.5020312 -0.292969,0.765 h 0.925781 c 0,-0.2271094 0.117188,-0.4303125 0.339844,-0.5976563 0.222656,-0.1553906 0.492187,-0.2390625 0.820312,-0.2390625 0.363282,0 0.65625,0.095625 0.84375,0.286875 0.1875,0.19125 0.28125,0.4422657 0.28125,0.7530469 v 0.4303125 h -0.890625 c -0.773437,0 -1.359375,0.1673438 -1.78125,0.4661719 -0.433593,0.3107812 -0.644531,0.7410937 -0.644531,1.3028906 0,0.4542188 0.164063,0.83671876 0.503906,1.13554688 0.339844,0.31078125 0.773438,0.45421875 1.300782,0.45421875 0.597656,0 1.113281,-0.22710937 1.535156,-0.68132812 0.03516,0.27492187 0.07031,0.46617187 0.128906,0.57375 z m -1.523437,-0.70523438 c -0.304688,0 -0.539063,-0.0717188 -0.738282,-0.2390625 -0.1875,-0.16734373 -0.28125,-0.38250003 -0.28125,-0.66937503 0,-0.6574218 0.5625,-0.9921093 1.6875,-0.9921093 h 0.703125 v 1.0996875 c -0.117187,0.2510156 -0.304687,0.4422656 -0.550781,0.58570308 -0.269531,0.1434375 -0.527344,0.21515625 -0.820312,0.21515625 z m 4.977539,-5.96460933 h -0.914063 v 1.3028906 h -0.996094 v 0.7171875 h 0.996094 v 3.3229687 c 0,0.46617191 0.09375,0.81281253 0.304688,1.06382816 0.199218,0.2390625 0.515625,0.37054687 0.925781,0.37054687 0.222656,0 0.457031,-0.03585937 0.703125,-0.10757812 v -0.74109375 c -0.175781,0.0358594 -0.328125,0.0597656 -0.433594,0.0597656 -0.222656,0 -0.375,-0.0478125 -0.457031,-0.16734375 -0.09375,-0.095625 -0.128906,-0.26296871 -0.128906,-0.47812501 v -3.3229687 h 0.996093 v -0.7171875 h -0.996093 z m 3.067382,6.66984371 V -5.3682042 h -0.925781 v 5.36695311 z M 88.949844,-6.7906261 c 0,0.1553906 0.03516,0.2749219 0.128906,0.3825 0.09375,0.095625 0.222656,0.1434375 0.410156,0.1434375 0.175781,0 0.304688,-0.047813 0.398438,-0.1434375 0.09375,-0.1075781 0.152343,-0.2271094 0.152343,-0.3825 0,-0.1434375 -0.05859,-0.2749219 -0.152343,-0.3705469 -0.09375,-0.1075781 -0.222657,-0.1673437 -0.398438,-0.1673437 -0.1875,0 -0.316406,0.059766 -0.410156,0.1673437 -0.09375,0.095625 -0.128906,0.2271094 -0.128906,0.3705469 z m 2.200195,4.0521094 v 0.059766 c 0,0.8367188 0.222656,1.5060938 0.679688,2.02007813 0.445312,0.50203125 1.042968,0.765 1.769531,0.765 0.480469,0 0.902344,-0.11953125 1.277344,-0.34664062 0.375,-0.2390625 0.65625,-0.56179688 0.855468,-0.98015621 0.210938,-0.4064063 0.304688,-0.8725782 0.304688,-1.3985157 v -0.071719 c 0,-0.8367188 -0.234375,-1.5060938 -0.679688,-2.0200781 -0.445312,-0.5020313 -1.03125,-0.7530469 -1.769531,-0.7530469 -0.480469,0 -0.902344,0.1195312 -1.265625,0.3466406 -0.363281,0.2151563 -0.667969,0.5378906 -0.867187,0.95625 -0.199219,0.4303125 -0.304688,0.8964844 -0.304688,1.4224218 z m 0.925781,0.1195312 c 0,-0.669375 0.128907,-1.1833593 0.421875,-1.5539062 0.269532,-0.3585938 0.632813,-0.5378906 1.089844,-0.5378906 0.46875,0 0.832031,0.1792968 1.125,0.5378906 0.269531,0.3705469 0.410156,0.8486719 0.410156,1.434375 0,0.669375 -0.140625,1.1714062 -0.410156,1.5419531 -0.28125,0.35859376 -0.644531,0.54984376 -1.113281,0.54984376 -0.46875,0 -0.832031,-0.17929688 -1.101563,-0.53789066 -0.292968,-0.3585937 -0.421875,-0.8367187 -0.421875,-1.434375 z m 5.991211,-2.7492187 h -0.878906 v 5.36695311 h 0.925781 V -3.8262511 c 0.117188,-0.2629687 0.292969,-0.4661719 0.515625,-0.6215625 0.222656,-0.1553906 0.492188,-0.2390625 0.796875,-0.2390625 0.363281,0 0.621094,0.095625 0.808594,0.2749219 0.17578,0.1792969 0.26953,0.4661719 0.26953,0.8486719 v 3.56203121 h 0.91406 V -3.5513292 c -0.0234,-1.2789844 -0.59765,-1.9125 -1.722653,-1.9125 -0.65625,0 -1.195312,0.2629687 -1.605468,0.765 z m 0,0"
       style="fill:#000000;fill-opacity:1;fill-rule:nonzero;stroke:none"
       aria-label="Systemadministration"
       transform="matrix(1.3333333,0,0,1.3071895,30.853333,126.45867)" />
    <path
       id="path26"
       d="M 0,0 V 0"
       style="fill:none;stroke:#b3b3b3;stroke-width:0.3985;stroke-linecap:butt;stroke-linejoin:miter;stroke-miterlimit:10;stroke-dasharray:none;stroke-opacity:1"
       transform="matrix(1.3333333,0,0,-1.3333333,253.48267,173.12)" />
    <path
       id="path27"
       d="m -13.4798,4.3796 5.1487,-15.84598"
       style="fill:none;stroke:#b3b3b3;stroke-width:0.3985;stroke-linecap:butt;stroke-linejoin:miter;stroke-miterlimit:10;stroke-dasharray:none;stroke-opacity:1"
       transform="matrix(1.3333333,0,0,-1.3333333,253.48267,173.12)" />
    <path
       id="path28"
       d="m -26.95975,8.75961 10.29767,-31.69285"
       style="fill:none;stroke:#b3b3b3;stroke-width:0.3985;stroke-linecap:butt;stroke-linejoin:miter;stroke-miterlimit:10;stroke-dasharray:none;stroke-opacity:1"
       transform="matrix(1.3333333,0,0,-1.3333333,253.48267,173.12)" />
    <path
       id="path29"
       d="m -40.43954,13.13922 15.44636,-47.53889"
       style="fill:none;stroke:#b3b3b3;stroke-width:0.3985;stroke-linecap:butt;stroke-linejoin:miter;stroke-miterlimit:10;stroke-dasharray:none;stroke-opacity:1"
       transform="matrix(1.3333333,0,0,-1.3333333,253.48267,173.12)" />
    <path
       id="path30"
       d="m -53.91953,17.51924 20.59537,-63.38576"
       style="fill:none;stroke:#b3b3b3;stroke-width:0.3985;stroke-linecap:butt;stroke-linejoin:miter;stroke-miterlimit:10;stroke-dasharray:none;stroke-opacity:1"
       transform="matrix(1.3333333,0,0,-1.3333333,253.48267,173.12)" />
    <path
       id="path31"
       d="m -67.39935,21.89883 25.74406,-79.23181"
       style="fill:none;stroke:#b3b3b3;stroke-width:0.3985;stroke-linecap:butt;stroke-linejoin:miter;stroke-miterlimit:10;stroke-dasharray:none;stroke-opacity:1"
       transform="matrix(1.3333333,0,0,-1.3333333,253.48267,173.12)" />
    <path
       id="path32"
       d="M 0,0 -48.58086,-66.86546"
       style="fill:none;stroke:#000000;stroke-width:0.3985;stroke-linecap:butt;stroke-linejoin:miter;stroke-miterlimit:10;stroke-dasharray:none;stroke-opacity:1"
       transform="matrix(1.3333333,0,0,-1.3333333,253.48267,173.12)" />
    <path
       id="path33"
       d="m 2.39102,0 c -0.99626,0.19925 -2.78952,0.59775 -3.98503,1.49438 0.99626,-1.09588 0.99626,-1.89288 0,-2.98876 C -0.3985,-0.59775 1.39476,-0.19925 2.39102,0 Z"
       style="fill:#000000;fill-opacity:1;fill-rule:nonzero;stroke:none"
       transform="matrix(-0.78370667,1.0786667,1.0786667,0.78370667,188.70821,262.27395)" />
    <path
       id="path34"
       d="M 1.8626484,-4.4625e-4 V -7.2201338 H 0.90171094 V -4.4625e-4 Z M 8.4485859,-6.4431806 V -7.2201338 H 2.8587422 v 0.7769532 H 5.1673359 V -4.4625e-4 H 6.1165547 V -6.4431806 Z m 6.3046871,3.2273437 c 0.65625,0.19125 1.101563,0.3825 1.347657,0.57375 0.234375,0.19125 0.375,0.4661719 0.375,0.8247657 0,0.3585937 -0.140625,0.6335156 -0.410157,0.8367187 -0.269531,0.20320313 -0.644531,0.29882812 -1.148437,0.29882812 -0.539063,0 -0.960938,-0.11953124 -1.289063,-0.37054692 -0.328125,-0.2629687 -0.492187,-0.6096093 -0.492187,-1.0399218 h -0.949219 c 0,0.4303125 0.105469,0.8008594 0.339844,1.12359373 0.234375,0.3346875 0.574219,0.59765625 0.996094,0.78890625 0.433593,0.19125 0.902343,0.28687499 1.394531,0.28687499 0.761719,0 1.371094,-0.17929687 1.828125,-0.53789062 0.457031,-0.34664062 0.691406,-0.82476565 0.691406,-1.41046875 0,-0.3585937 -0.09375,-0.6813281 -0.257812,-0.95625 -0.152344,-0.2629687 -0.410157,-0.5020313 -0.75,-0.7052344 -0.339844,-0.2032031 -0.808594,-0.3944531 -1.40625,-0.5617968 -0.597657,-0.1673438 -1.03125,-0.3585938 -1.277344,-0.5617969 -0.246094,-0.2032032 -0.375,-0.4422656 -0.375,-0.7410938 0,-0.3585937 0.140625,-0.6574219 0.398437,-0.860625 0.269532,-0.2032031 0.632813,-0.3107812 1.101563,-0.3107812 0.503906,0 0.890625,0.1314844 1.171875,0.3825 0.28125,0.2510156 0.421875,0.5976562 0.421875,1.0279687 h 0.949219 c 0,-0.3944531 -0.105469,-0.765 -0.316407,-1.1116406 -0.222656,-0.3346875 -0.527343,-0.5976563 -0.914062,-0.7889063 -0.386719,-0.19125 -0.832031,-0.2988281 -1.3125,-0.2988281 -0.738281,0 -1.324219,0.19125 -1.769531,0.5617969 -0.457032,0.3705469 -0.679688,0.8367188 -0.679688,1.4104688 0,0.5139843 0.175781,0.9203906 0.550781,1.2670312 0.363282,0.3466406 0.960938,0.6335156 1.78125,0.8725781 z m 5.991211,3.32296877 c 0.890625,0 1.570313,-0.34664062 2.015625,-1.03992187 l -0.550781,-0.4422656 c -0.175781,0.2271094 -0.386719,0.3944531 -0.609375,0.52593748 -0.222656,0.13148437 -0.492187,0.20320312 -0.820312,0.20320312 -0.457032,0 -0.832032,-0.16734375 -1.125,-0.4900781 -0.292969,-0.3227344 -0.445313,-0.7530469 -0.457032,-1.2789844 h 3.632813 v -0.3944531 c 0,-0.8486719 -0.199219,-1.4941407 -0.585938,-1.9722656 -0.386718,-0.4542188 -0.9375,-0.6813282 -1.628906,-0.6813282 -0.421875,0 -0.820312,0.1195313 -1.183594,0.3466407 -0.363281,0.2510156 -0.65625,0.57375 -0.855468,0.9921093 -0.199219,0.4183594 -0.304688,0.8964844 -0.304688,1.4224219 v 0.1553906 c 0,0.8128125 0.222656,1.4582813 0.691406,1.93640627 0.457032,0.47812501 1.042969,0.7171875 1.78125,0.7171875 z M 20.615578,-4.7099775 c 0.386719,0 0.691406,0.1314844 0.914063,0.3825 0.222656,0.2629688 0.351562,0.6215625 0.375,1.0877344 v 0.071719 h -2.671875 c 0.04687,-0.4900781 0.199218,-0.860625 0.457031,-1.1355469 0.234375,-0.2749218 0.550781,-0.4064062 0.925781,-0.4064065 z m 5.422852,4.0640625 c -0.480469,0 -0.84375,-0.16734375 -1.101563,-0.5020312 -0.257812,-0.3346875 -0.375,-0.8128125 -0.375,-1.4343751 V -2.749665 c 0,-0.6335156 0.117188,-1.1235937 0.386719,-1.4582812 0.257812,-0.3346875 0.621094,-0.5020313 1.089844,-0.5020313 0.339843,0 0.632812,0.1075781 0.867187,0.3346875 0.234375,0.2151563 0.375,0.5020313 0.398438,0.8486719 h 0.867187 c -0.03516,-0.57375 -0.246094,-1.0399219 -0.644531,-1.3985156 -0.398438,-0.3585938 -0.890625,-0.5378907 -1.488281,-0.5378907 -0.492188,0 -0.914063,0.1075782 -1.277344,0.3346875 -0.363281,0.2151563 -0.632813,0.5498438 -0.832031,0.95625 -0.1875,0.4064063 -0.28125,0.8725781 -0.28125,1.3865625 v 0.1553907 c 0,0.8486718 0.210937,1.5060937 0.644531,1.99617183 0.421875,0.49007812 1.007812,0.74109374 1.746094,0.74109374 0.363281,0 0.703125,-0.08367187 1.03125,-0.25101562 0.328125,-0.16734375 0.585937,-0.3825 0.785156,-0.669375 0.1875,-0.28687495 0.292969,-0.57375005 0.316406,-0.88453125 h -0.867187 c -0.02344,0.3107812 -0.175782,0.5498438 -0.410157,0.75304687 C 26.647805,-0.74154 26.366555,-0.645915 26.03843,-0.645915 Z m 6.474609,0.11953125 0.01172,0.5259375 h 0.878906 V -5.3673994 h -0.914062 v 3.9086719 c -0.234375,0.5259375 -0.703125,0.77695312 -1.40625,0.77695312 -0.65625,0 -0.984375,-0.40640622 -0.984375,-1.21921872 v -3.4664063 h -0.925782 v 3.4903125 c 0,0.6574219 0.152344,1.15945315 0.457032,1.48218753 0.304687,0.3346875 0.75,0.50203124 1.3125,0.50203124 0.691406,0 1.207031,-0.21515624 1.570311,-0.63351562 z m 4.883789,-4.01624995 v -0.8486719 c -0.105469,-0.047813 -0.234375,-0.071719 -0.410156,-0.071719 -0.550781,0 -0.984375,0.2390625 -1.277344,0.7171875 l -0.02344,-0.6215625 h -0.890625 v 5.36695315 h 0.925781 V -3.8134931 c 0.199219,-0.5020313 0.609375,-0.765 1.21875,-0.765 0.164062,0 0.316406,0.011953 0.457031,0.035859 z m 1.839844,4.54218745 V -5.3673994 H 38.310891 V -4.4625e-4 Z M 38.240578,-6.7898212 c 0,0.1553906 0.03516,0.2749218 0.128906,0.3825 0.09375,0.095625 0.222657,0.1434375 0.410157,0.1434375 0.175781,0 0.304687,-0.047813 0.398437,-0.1434375 0.09375,-0.1075782 0.152344,-0.2271094 0.152344,-0.3825 0,-0.1434375 -0.05859,-0.2749219 -0.152344,-0.3705469 -0.09375,-0.1075781 -0.222656,-0.1673438 -0.398437,-0.1673438 -0.1875,0 -0.316407,0.059766 -0.410157,0.1673438 -0.09375,0.095625 -0.128906,0.2271094 -0.128906,0.3705469 z m 3.703125,0.1195312 h -0.914062 v 1.3028906 h -0.996094 v 0.7171875 h 0.996094 v 3.3229688 c 0,0.46617185 0.09375,0.81281248 0.304687,1.0638281 0.199219,0.2390625 0.515625,0.37054687 0.925781,0.37054687 0.222657,0 0.457032,-0.03585937 0.703125,-0.10757812 V -0.74154 c -0.175781,0.0358594 -0.328125,0.0597656 -0.433593,0.0597656 -0.222657,0 -0.375,-0.0478125 -0.457032,-0.16734374 -0.09375,-0.095625 -0.128906,-0.26296876 -0.128906,-0.47812496 v -3.3229688 h 0.996094 v -0.7171875 h -0.996094 z m 3.814453,5.3310938 -1.335937,-4.0282032 h -0.996094 l 1.910156,5.30718753 -0.210937,0.54984375 C 45.019875,0.82431938 44.87925,1.0514288 44.703469,1.1829131 44.515969,1.3024444 44.269875,1.36221 43.965187,1.36221 L 43.730812,1.338304 v 0.7530469 l 0.339844,0.059766 0.175781,0.011953 C 44.973,2.1750229 45.500344,1.7327574 45.840187,0.836273 l 2.15625,-6.2036719 h -0.984375 z m 0,0"
       style="fill:#000000;fill-opacity:1;fill-rule:nonzero;stroke:none"
       aria-label="ITSecurity"
       transform="matrix(1.3333333,0,0,1.3071895,126.036,307.96933)" />
    <path
       id="path35"
       d="M 0,0 V 0"
       style="fill:none;stroke:#b3b3b3;stroke-width:0.3985;stroke-linecap:butt;stroke-linejoin:miter;stroke-miterlimit:10;stroke-dasharray:none;stroke-opacity:1"
       transform="matrix(1.3333333,0,0,-1.3333333,253.48267,173.12)" />
    <path
       id="path36"
       d="M -8.3311,-11.46638 8.33101,-11.4665"
       style="fill:none;stroke:#b3b3b3;stroke-width:0.3985;stroke-linecap:butt;stroke-linejoin:miter;stroke-miterlimit:10;stroke-dasharray:none;stroke-opacity:1"
       transform="matrix(1.3333333,0,0,-1.3333333,253.48267,173.12)" />
    <path
       id="path37"
       d="m -16.66208,-22.93324 33.32425,-2e-4"
       style="fill:none;stroke:#b3b3b3;stroke-width:0.3985;stroke-linecap:butt;stroke-linejoin:miter;stroke-miterlimit:10;stroke-dasharray:none;stroke-opacity:1"
       transform="matrix(1.3333333,0,0,-1.3333333,253.48267,173.12)" />
    <path
       id="path38"
       d="m -24.99318,-34.39967 49.98638,-2.8e-4"
       style="fill:none;stroke:#b3b3b3;stroke-width:0.3985;stroke-linecap:butt;stroke-linejoin:miter;stroke-miterlimit:10;stroke-dasharray:none;stroke-opacity:1"
       transform="matrix(1.3333333,0,0,-1.3333333,253.48267,173.12)" />
    <path
       id="path39"
       d="m -33.32416,-45.86652 66.64852,-3.6e-4"
       style="fill:none;stroke:#b3b3b3;stroke-width:0.3985;stroke-linecap:butt;stroke-linejoin:miter;stroke-miterlimit:10;stroke-dasharray:none;stroke-opacity:1"
       transform="matrix(1.3333333,0,0,-1.3333333,253.48267,173.12)" />
    <path
       id="path40"
       d="m -41.65529,-57.33298 83.31072,-4.1e-4"
       style="fill:none;stroke:#b3b3b3;stroke-width:0.3985;stroke-linecap:butt;stroke-linejoin:miter;stroke-miterlimit:10;stroke-dasharray:none;stroke-opacity:1"
       transform="matrix(1.3333333,0,0,-1.3333333,253.48267,173.12)" />
    <path
       id="path41"
       d="M 0,0 48.58118,-66.86597"
       style="fill:none;stroke:#000000;stroke-width:0.3985;stroke-linecap:butt;stroke-linejoin:miter;stroke-miterlimit:10;stroke-dasharray:none;stroke-opacity:1"
       transform="matrix(1.3333333,0,0,-1.3333333,253.48267,173.12)" />
    <path
       id="path42"
       d="m 2.39102,0 c -0.99626,0.19925 -2.78952,0.59775 -3.98503,1.49438 0.99626,-1.09588 0.99626,-1.89288 0,-2.98876 C -0.3985,-0.59775 1.39476,-0.19925 2.39102,0 Z"
       style="fill:#000000;fill-opacity:1;fill-rule:nonzero;stroke:none"
       transform="matrix(0.78370667,1.0786667,1.0786667,-0.78370667,318.25755,262.27463)" />
    <path
       id="path43"
       d="M 5.8352344,-6.4439775 V -7.2209306 H 0.24539063 v 0.7769531 H 2.5539844 v 6.44273437 H 3.5032031 V -6.4439775 Z M 8.4983203,0.106335 c 0.890625,0 1.5703127,-0.34664062 2.0156247,-1.03992188 L 9.9631641,-1.3758525 c -0.1757813,0.2271094 -0.3867188,0.39445313 -0.609375,0.5259375 -0.2226563,0.13148438 -0.4921875,0.20320313 -0.8203125,0.20320313 -0.4570313,0 -0.8320313,-0.16734376 -1.125,-0.49007813 C 7.1155078,-1.4595244 6.9631641,-1.8898369 6.9514453,-2.4157744 h 3.6328127 v -0.3944531 c 0,-0.8486719 -0.199219,-1.4941406 -0.5859377,-1.9722656 -0.3867187,-0.4542188 -0.9375,-0.6813281 -1.6289062,-0.6813281 -0.421875,0 -0.8203125,0.1195312 -1.1835938,0.3466406 -0.3632812,0.2510156 -0.65625,0.57375 -0.8554687,0.9921094 -0.1992188,0.4183593 -0.3046875,0.8964843 -0.3046875,1.4224218 v 0.1553907 c 0,0.8128125 0.2226562,1.4582812 0.6914062,1.9364062 0.4570313,0.478125 1.0429688,0.7171875 1.78125,0.7171875 z M 8.3694141,-4.7107744 c 0.3867187,0 0.6914062,0.1314844 0.9140625,0.3825 0.2226562,0.2629688 0.3515625,0.6215625 0.375,1.0877344 v 0.071719 h -2.671875 c 0.046875,-0.4900781 0.1992187,-0.860625 0.4570312,-1.1355468 0.234375,-0.2749219 0.5507813,-0.4064063 0.9257813,-0.4064066 z m 6.3955079,3.2871094 c 0,0.2390625 -0.117188,0.4303125 -0.316406,0.57375 -0.210938,0.13148438 -0.480469,0.20320313 -0.832032,0.20320313 -0.386718,0 -0.691406,-0.095625 -0.914062,-0.27492188 C 12.468047,-1.1128838 12.350859,-1.3519462 12.339141,-1.6627275 h -0.925782 c 0,0.3346875 0.09375,0.6215625 0.28125,0.89648438 0.1875,0.27492187 0.445313,0.49007812 0.785157,0.64546875 0.328125,0.15539062 0.714843,0.22710937 1.136718,0.22710937 0.609375,0 1.101563,-0.1434375 1.488282,-0.4303125 0.386718,-0.286875 0.574218,-0.669375 0.574218,-1.1594531 0,-0.286875 -0.07031,-0.5259375 -0.199218,-0.7291406 -0.140625,-0.2032032 -0.351563,-0.3825 -0.632813,-0.5259375 -0.28125,-0.1434375 -0.65625,-0.2629688 -1.113281,-0.3585938 -0.457031,-0.1075781 -0.773438,-0.2032031 -0.949219,-0.3227344 -0.1875,-0.1075781 -0.269531,-0.2749219 -0.269531,-0.5020312 0,-0.2390625 0.09375,-0.4303125 0.292969,-0.57375 0.175781,-0.1434375 0.445312,-0.2151563 0.773437,-0.2151563 0.328125,0 0.597656,0.083672 0.808594,0.2749219 0.210937,0.1792969 0.328125,0.4064062 0.328125,0.6454688 h 0.914062 c 0,-0.4900782 -0.199218,-0.8845313 -0.574218,-1.1953125 -0.375,-0.3227344 -0.867188,-0.478125 -1.476563,-0.478125 -0.585937,0 -1.066406,0.1434375 -1.429687,0.4542187 -0.375,0.2988281 -0.5625,0.6813281 -0.5625,1.1116406 0,0.2749219 0.07031,0.5020313 0.199218,0.6813282 0.128907,0.2032031 0.339844,0.3585937 0.609375,0.5020312 0.269532,0.1434375 0.644532,0.2510156 1.101563,0.3585937 0.46875,0.095625 0.796875,0.2151563 0.984375,0.3585938 0.175781,0.1314844 0.28125,0.3346875 0.28125,0.57375 z m 3.357422,-5.2474219 h -0.914063 v 1.3028906 h -0.996093 v 0.7171875 h 0.996093 V -1.32804 c 0,0.46617187 0.09375,0.8128125 0.304688,1.06382812 0.199219,0.2390625 0.515625,0.37054688 0.925781,0.37054688 0.222656,0 0.457031,-0.03585937 0.703125,-0.10757813 v -0.74109375 c -0.175781,0.0358594 -0.328125,0.0597656 -0.433594,0.0597656 -0.222656,0 -0.375,-0.0478125 -0.457031,-0.16734375 C 18.1575,-0.94554 18.122344,-1.1128838 18.122344,-1.32804 v -3.3229688 h 0.996094 v -0.7171875 h -0.996094 z m 5.52539,6.66984377 h 1.992188 c 0.644531,0 1.21875,-0.1434375 1.710937,-0.41835937 0.480469,-0.27492188 0.855469,-0.669375 1.125,-1.1714063 0.257813,-0.5139843 0.398438,-1.1116406 0.398438,-1.8049218 v -0.4542188 c -0.01172,-0.669375 -0.152344,-1.2670312 -0.410156,-1.7690625 -0.269532,-0.5139843 -0.632813,-0.9084375 -1.113282,-1.1953125 -0.492187,-0.2629687 -1.042968,-0.4064062 -1.675781,-0.4064062 h -2.027344 z m 0.949219,-6.44273437 h 1.113281 c 0.703125,0.011953 1.253907,0.2390625 1.640625,0.7052344 0.375,0.4542187 0.574219,1.0996875 0.574219,1.9125 v 0.4064062 c 0,0.860625 -0.210937,1.5060938 -0.621094,1.9603125 -0.410156,0.4542188 -0.972656,0.68132815 -1.710937,0.68132815 h -0.996094 z m 7.792969,6.5503125 c 0.890625,0 1.570312,-0.34664062 2.015625,-1.03992188 L 33.854766,-1.3758525 c -0.175782,0.2271094 -0.386719,0.39445313 -0.609375,0.5259375 -0.222657,0.13148438 -0.492188,0.20320313 -0.820313,0.20320313 -0.457031,0 -0.832031,-0.16734376 -1.125,-0.49007813 -0.292969,-0.3227344 -0.445312,-0.7530469 -0.457031,-1.2789844 h 3.632812 v -0.3944531 c 0,-0.8486719 -0.199218,-1.4941406 -0.585937,-1.9722656 -0.386719,-0.4542188 -0.9375,-0.6813281 -1.628906,-0.6813281 -0.421875,0 -0.820313,0.1195312 -1.183594,0.3466406 -0.363281,0.2510156 -0.65625,0.57375 -0.855469,0.9921094 -0.199219,0.4183593 -0.304687,0.8964843 -0.304687,1.4224218 v 0.1553907 c 0,0.8128125 0.222656,1.4582812 0.691406,1.9364062 0.457031,0.478125 1.042969,0.7171875 1.78125,0.7171875 z m -0.128906,-4.8171094 c 0.386718,0 0.691406,0.1314844 0.914062,0.3825 0.222656,0.2629688 0.351563,0.6215625 0.375,1.0877344 v 0.071719 h -2.671875 c 0.04687,-0.4900781 0.199219,-0.860625 0.457031,-1.1355468 0.234375,-0.2749219 0.550782,-0.4064063 0.925782,-0.4064066 z m 4.995117,3.4544531 -1.371094,-4.111875 h -0.9375 l 1.945313,5.36695317 h 0.691406 l 1.933594,-5.36695317 h -0.9375 z m 5.314453,1.3626563 c 0.890625,0 1.570312,-0.34664062 2.015625,-1.03992188 L 44.03543,-1.3758525 c -0.175782,0.2271094 -0.386719,0.39445313 -0.609375,0.5259375 -0.222657,0.13148438 -0.492188,0.20320313 -0.820313,0.20320313 -0.457031,0 -0.832031,-0.16734376 -1.125,-0.49007813 -0.292969,-0.3227344 -0.445312,-0.7530469 -0.457031,-1.2789844 h 3.632812 v -0.3944531 c 0,-0.8486719 -0.199218,-1.4941406 -0.585937,-1.9722656 -0.386719,-0.4542188 -0.9375,-0.6813281 -1.628906,-0.6813281 -0.421875,0 -0.820313,0.1195312 -1.183594,0.3466406 -0.363281,0.2510156 -0.65625,0.57375 -0.855469,0.9921094 -0.199219,0.4183593 -0.304687,0.8964843 -0.304687,1.4224218 v 0.1553907 c 0,0.8128125 0.222656,1.4582812 0.691406,1.9364062 0.457031,0.478125 1.042969,0.7171875 1.78125,0.7171875 z M 42.44168,-4.7107744 c 0.386718,0 0.691406,0.1314844 0.914062,0.3825 0.222656,0.2629688 0.351563,0.6215625 0.375,1.0877344 v 0.071719 h -2.671875 c 0.04687,-0.4900781 0.199219,-0.860625 0.457031,-1.1355468 0.234375,-0.2749219 0.550782,-0.4064063 0.925782,-0.4064066 z m 4.274414,4.70953127 V -7.6273369 h -0.925781 v 7.62609377 z m 1.207031,-2.73726557 v 0.059766 c 0,0.8367187 0.222656,1.5060937 0.679688,2.0200781 0.445312,0.50203125 1.042968,0.765 1.769531,0.765 0.480469,0 0.902344,-0.11953125 1.277344,-0.34664062 0.375,-0.23906251 0.65625,-0.56179688 0.855468,-0.98015628 0.210938,-0.4064062 0.304688,-0.8725781 0.304688,-1.3985156 v -0.071719 c 0,-0.8367187 -0.234375,-1.5060937 -0.679688,-2.0200781 -0.445312,-0.5020312 -1.03125,-0.7530468 -1.769531,-0.7530468 -0.480469,0 -0.902344,0.1195312 -1.265625,0.3466406 -0.363281,0.2151562 -0.667969,0.5378906 -0.867187,0.95625 -0.199219,0.4303125 -0.304688,0.8964844 -0.304688,1.4224217 z m 0.925781,0.1195312 c 0,-0.669375 0.128907,-1.1833594 0.421875,-1.5539063 0.269532,-0.3585937 0.632813,-0.5378906 1.089844,-0.5378906 0.46875,0 0.832031,0.1792969 1.125,0.5378906 0.269531,0.3705469 0.410156,0.8486719 0.410156,1.4343751 0,0.669375 -0.140625,1.1714062 -0.410156,1.5419531 -0.28125,0.35859373 -0.644531,0.54984373 -1.113281,0.54984373 -0.46875,0 -0.832031,-0.17929688 -1.101563,-0.53789063 -0.292968,-0.3585937 -0.421875,-0.8367187 -0.421875,-1.434375 z m 9.65918,0 v -0.095625 c 0,-0.860625 -0.199219,-1.53 -0.574219,-2.0200781 -0.375,-0.4900782 -0.878906,-0.7291406 -1.523437,-0.7291406 -0.667969,0 -1.195313,0.2271093 -1.570313,0.6813281 l -0.03516,-0.5857032 h -0.84375 v 7.4348438 h 0.925781 v -2.581875 c 0.363281,0.40640625 0.878906,0.6215625 1.535156,0.6215625 0.632813,0 1.136719,-0.25101563 1.511719,-0.75304687 0.375,-0.49007813 0.574219,-1.14750003 0.574219,-1.97226563 z m -0.925781,-0.1195312 c 0,0.6932812 -0.140625,1.2192187 -0.386719,1.5658593 -0.269531,0.34664065 -0.609375,0.52593753 -1.054688,0.52593753 -0.5625,0 -0.984375,-0.25101563 -1.253906,-0.74109373 v -2.5699219 c 0.269531,-0.478125 0.691406,-0.7291406 1.242188,-0.7291406 0.457031,0 0.796875,0.1792968 1.066406,0.5259375 0.246094,0.3466406 0.386719,0.8247656 0.386719,1.4224219 z m 2.944336,-2.6296876 h -0.867188 v 5.36695317 h 0.914063 V -3.9218681 c 0.222656,-0.5139844 0.632812,-0.765 1.242187,-0.765 0.761719,0 1.148438,0.3944531 1.148438,1.1714062 v 3.51421877 h 0.914062 V -3.5632744 c 0.03516,-0.3346875 0.175781,-0.6096094 0.398438,-0.8128125 0.222656,-0.2032031 0.492187,-0.3107812 0.84375,-0.3107812 0.410156,0 0.703125,0.1075781 0.878906,0.286875 0.175781,0.1792968 0.269531,0.4661719 0.269531,0.8486718 v 3.55007817 h 0.914063 V -3.5991337 c -0.01172,-1.2431251 -0.609375,-1.8646875 -1.792969,-1.8646875 -0.398438,0 -0.738281,0.071719 -1.03125,0.2390624 -0.28125,0.1673438 -0.515625,0.3705469 -0.691406,0.6215626 -0.269532,-0.5737501 -0.773438,-0.860625 -1.523438,-0.860625 -0.679687,0 -1.207031,0.2271093 -1.59375,0.6813281 z M 70.801055,0.106335 c 0.890625,0 1.570312,-0.34664062 2.015625,-1.03992188 L 72.265898,-1.3758525 c -0.175781,0.2271094 -0.386718,0.39445313 -0.609375,0.5259375 -0.222656,0.13148438 -0.492187,0.20320313 -0.820312,0.20320313 -0.457031,0 -0.832031,-0.16734376 -1.125,-0.49007813 -0.292969,-0.3227344 -0.445313,-0.7530469 -0.457031,-1.2789844 h 3.632812 v -0.3944531 c 0,-0.8486719 -0.199219,-1.4941406 -0.585937,-1.9722656 -0.386719,-0.4542188 -0.9375,-0.6813281 -1.628907,-0.6813281 -0.421875,0 -0.820312,0.1195312 -1.183593,0.3466406 -0.363282,0.2510156 -0.65625,0.57375 -0.855469,0.9921094 -0.199219,0.4183593 -0.304688,0.8964843 -0.304688,1.4224218 v 0.1553907 c 0,0.8128125 0.222657,1.4582812 0.691407,1.9364062 0.457031,0.478125 1.042968,0.7171875 1.78125,0.7171875 z m -0.128907,-4.8171094 c 0.386719,0 0.691407,0.1314844 0.914063,0.3825 0.222656,0.2629688 0.351562,0.6215625 0.375,1.0877344 v 0.071719 h -2.671875 c 0.04687,-0.4900781 0.199219,-0.860625 0.457031,-1.1355468 0.234375,-0.2749219 0.550781,-0.4064063 0.925781,-0.4064066 z m 4.145508,-0.6574219 H 73.93875 v 5.36695317 h 0.925781 V -3.8262431 c 0.117188,-0.2629688 0.292969,-0.4661719 0.515625,-0.6215625 0.222657,-0.1553906 0.492188,-0.2390625 0.796875,-0.2390625 0.363282,0 0.621094,0.095625 0.808594,0.2749219 0.175781,0.1792968 0.269531,0.4661718 0.269531,0.8486718 v 3.56203127 h 0.914063 V -3.5513213 c -0.02344,-1.2789843 -0.597656,-1.9124999 -1.722656,-1.9124999 -0.65625,0 -1.195313,0.2629687 -1.605469,0.7649999 z m 5.973633,-1.3028906 h -0.914062 v 1.3028906 h -0.996094 v 0.7171875 h 0.996094 V -1.32804 c 0,0.46617187 0.09375,0.8128125 0.304687,1.06382812 0.199219,0.2390625 0.515625,0.37054688 0.925781,0.37054688 0.222657,0 0.457032,-0.03585937 0.703125,-0.10757813 v -0.74109375 c -0.175781,0.0358594 -0.328125,0.0597656 -0.433593,0.0597656 -0.222657,0 -0.375,-0.0478125 -0.457032,-0.16734375 -0.09375,-0.095625 -0.128906,-0.26296877 -0.128906,-0.47812497 v -3.3229688 h 0.996094 v -0.7171875 h -0.996094 z m 0,0"
       style="fill:#000000;fill-opacity:1;fill-rule:nonzero;stroke:none"
       aria-label="TestDevelopment"
       transform="matrix(1.3333333,0,0,1.3071895,294.04,308.236)" />
    <path
       id="path44"
       d="M 0,0 V 0"
       style="fill:none;stroke:#b3b3b3;stroke-width:0.3985;stroke-linecap:butt;stroke-linejoin:miter;stroke-miterlimit:10;stroke-dasharray:none;stroke-opacity:1"
       transform="matrix(1.3333333,0,0,-1.3333333,253.48267,173.12)" />
    <path
       id="path45"
       d="m 8.33101,-11.4665 5.1488,15.84637"
       style="fill:none;stroke:#b3b3b3;stroke-width:0.3985;stroke-linecap:butt;stroke-linejoin:miter;stroke-miterlimit:10;stroke-dasharray:none;stroke-opacity:1"
       transform="matrix(1.3333333,0,0,-1.3333333,253.48267,173.12)" />
    <path
       id="path46"
       d="M 16.66217,-22.93344 26.95966,8.75974"
       style="fill:none;stroke:#b3b3b3;stroke-width:0.3985;stroke-linecap:butt;stroke-linejoin:miter;stroke-miterlimit:10;stroke-dasharray:none;stroke-opacity:1"
       transform="matrix(1.3333333,0,0,-1.3333333,253.48267,173.12)" />
    <path
       id="path47"
       d="M 24.9932,-34.39995 40.43947,13.13962"
       style="fill:none;stroke:#b3b3b3;stroke-width:0.3985;stroke-linecap:butt;stroke-linejoin:miter;stroke-miterlimit:10;stroke-dasharray:none;stroke-opacity:1"
       transform="matrix(1.3333333,0,0,-1.3333333,253.48267,173.12)" />
    <path
       id="path48"
       d="M 33.32436,-45.86688 53.91931,17.5195"
       style="fill:none;stroke:#b3b3b3;stroke-width:0.3985;stroke-linecap:butt;stroke-linejoin:miter;stroke-miterlimit:10;stroke-dasharray:none;stroke-opacity:1"
       transform="matrix(1.3333333,0,0,-1.3333333,253.48267,173.12)" />
    <path
       id="path49"
       d="M 41.65543,-57.33339 67.39914,21.89938"
       style="fill:none;stroke:#b3b3b3;stroke-width:0.3985;stroke-linecap:butt;stroke-linejoin:miter;stroke-miterlimit:10;stroke-dasharray:none;stroke-opacity:1"
       transform="matrix(1.3333333,0,0,-1.3333333,253.48267,173.12)" />
    <path
       id="path50"
       d="M 13.47981,4.37987 5e-5,14.17343 m 0,0 -67.3994,7.7254 m 0,0 46.57171,-50.5653 m 0,0 29.15865,17.19997 m 0,0 5.1488,15.84637"
       style="fill:#0a9185;fill-opacity:1;fill-rule:nonzero;stroke:#0a9185;stroke-width:0.79701;stroke-linecap:butt;stroke-linejoin:miter;stroke-miterlimit:10;stroke-dasharray:none;stroke-opacity:1"
       transform="matrix(1.3333333,0,0,-1.3333333,253.48267,173.12)" />
    <path
       id="path51"
       d="M 14.9011,4.84167 C 14.64606,5.62662 13.80296,6.05618 13.018,5.80115 12.23305,5.5461 11.8035,4.70302 12.05853,3.91806 12.31358,3.1331 13.15666,2.70354 13.94162,2.95859 c 0.78496,0.25503 1.21452,1.09813 0.95948,1.88308 z"
       style="fill:#0a9185;fill-opacity:1;fill-rule:nonzero;stroke:#0a9185;stroke-width:0.79701;stroke-linecap:butt;stroke-linejoin:miter;stroke-miterlimit:10;stroke-dasharray:none;stroke-opacity:1"
       transform="matrix(1.3333333,0,0,-1.3333333,253.48267,173.12)" />
    <path
       id="path52"
       d="m 1.42133,14.63524 c -0.25504,0.78496 -1.09813,1.21452 -1.88306,0.95947 -0.78496,-0.25503 -1.21452,-1.09813 -0.95947,-1.88309 0.25503,-0.78494 1.09813,-1.2145 1.88305,-0.95947 0.78496,0.25505 1.21453,1.09813 0.95948,1.88309 z"
       style="fill:#0a9185;fill-opacity:1;fill-rule:nonzero;stroke:#0a9185;stroke-width:0.79701;stroke-linecap:butt;stroke-linejoin:miter;stroke-miterlimit:10;stroke-dasharray:none;stroke-opacity:1"
       transform="matrix(1.3333333,0,0,-1.3333333,253.48267,173.12)" />
    <path
       id="path53"
       d="m -65.97807,22.36064 c -0.25504,0.78496 -1.09813,1.21452 -1.88308,0.95947 -0.78495,-0.25503 -1.21452,-1.09813 -0.95948,-1.88308 0.25505,-0.78495 1.09814,-1.21451 1.88308,-0.95948 0.78496,0.25505 1.21453,1.09813 0.95948,1.88309 z"
       style="fill:#0a9185;fill-opacity:1;fill-rule:nonzero;stroke:#0a9185;stroke-width:0.79701;stroke-linecap:butt;stroke-linejoin:miter;stroke-miterlimit:10;stroke-dasharray:none;stroke-opacity:1"
       transform="matrix(1.3333333,0,0,-1.3333333,253.48267,173.12)" />
    <path
       id="path54"
       d="m -19.40636,-28.20467 c -0.25503,0.78496 -1.09813,1.21453 -1.88307,0.95947 -0.78496,-0.25503 -1.21452,-1.09812 -0.95947,-1.88308 0.25503,-0.78494 1.09813,-1.21451 1.88307,-0.95947 0.78496,0.25505 1.21453,1.09813 0.95947,1.88308 z"
       style="fill:#0a9185;fill-opacity:1;fill-rule:nonzero;stroke:#0a9185;stroke-width:0.79701;stroke-linecap:butt;stroke-linejoin:miter;stroke-miterlimit:10;stroke-dasharray:none;stroke-opacity:1"
       transform="matrix(1.3333333,0,0,-1.3333333,253.48267,173.12)" />
    <path
       id="path55"
       d="m 9.75229,-11.0047 c -0.25504,0.78494 -1.09813,1.21451 -1.88309,0.95947 -0.78496,-0.25505 -1.2145,-1.09813 -0.95947,-1.88308 0.25505,-0.78496 1.09813,-1.21453 1.88309,-0.95948 0.78495,0.25504 1.21452,1.09813 0.95947,1.88309 z"
       style="fill:#0a9185;fill-opacity:1;fill-rule:nonzero;stroke:#0a9185;stroke-width:0.79701;stroke-linecap:butt;stroke-linejoin:miter;stroke-miterlimit:10;stroke-dasharray:none;stroke-opacity:1"
       transform="matrix(1.3333333,0,0,-1.3333333,253.48267,173.12)" />
    <path
       id="path56"
       d="M 67.39914,21.89938 0,56.69464 m 0,0 L -13.4798,4.3796 m 0,0 0.98314,-21.57922 m 0,0 54.15209,-40.13377 m 0,0 25.74371,79.23277"
       style="fill:#b62234;fill-opacity:1;fill-rule:nonzero;stroke:#b62234;stroke-width:0.79701;stroke-linecap:butt;stroke-linejoin:miter;stroke-miterlimit:10;stroke-dasharray:none;stroke-opacity:1"
       transform="matrix(1.3333333,0,0,-1.3333333,253.48267,173.12)" />
    <path
       id="path57"
       d="m 68.82042,22.36119 c -0.25505,0.78496 -1.09813,1.21452 -1.88309,0.95947 -0.78496,-0.25505 -1.21452,-1.09813 -0.95947,-1.88308 0.25504,-0.78496 1.09813,-1.21451 1.88309,-0.95948 0.78494,0.25505 1.2145,1.09813 0.95947,1.88309 z"
       style="fill:#b62234;fill-opacity:1;fill-rule:nonzero;stroke:#b62234;stroke-width:0.79701;stroke-linecap:butt;stroke-linejoin:miter;stroke-miterlimit:10;stroke-dasharray:none;stroke-opacity:1"
       transform="matrix(1.3333333,0,0,-1.3333333,253.48267,173.12)" />
    <path
       id="path58"
       d="m 1.42125,57.15645 c -0.25504,0.78495 -1.09813,1.21452 -1.88305,0.95947 -0.78497,-0.25503 -1.21453,-1.09813 -0.95948,-1.88309 0.25504,-0.78494 1.09813,-1.2145 1.88306,-0.95947 0.78495,0.25505 1.21452,1.09813 0.95947,1.88309 z"
       style="fill:#b62234;fill-opacity:1;fill-rule:nonzero;stroke:#b62234;stroke-width:0.79701;stroke-linecap:butt;stroke-linejoin:miter;stroke-miterlimit:10;stroke-dasharray:none;stroke-opacity:1"
       transform="matrix(1.3333333,0,0,-1.3333333,253.48267,173.12)" />
    <path
       id="path59"
       d="m -12.05852,4.8414 c -0.25505,0.78496 -1.09813,1.21451 -1.88308,0.95947 -0.78496,-0.25505 -1.21453,-1.09813 -0.95948,-1.88308 0.25504,-0.78496 1.09813,-1.21453 1.88309,-0.95948 0.78496,0.25505 1.21451,1.09813 0.95947,1.88309 z"
       style="fill:#b62234;fill-opacity:1;fill-rule:nonzero;stroke:#b62234;stroke-width:0.79701;stroke-linecap:butt;stroke-linejoin:miter;stroke-miterlimit:10;stroke-dasharray:none;stroke-opacity:1"
       transform="matrix(1.3333333,0,0,-1.3333333,253.48267,173.12)" />
    <path
       id="path60"
       d="m -11.07538,-16.73781 c -0.25505,0.78496 -1.09813,1.21451 -1.88309,0.95947 -0.78495,-0.25505 -1.2145,-1.09812 -0.95947,-1.88308 0.25505,-0.78496 1.09813,-1.21453 1.88309,-0.95948 0.78495,0.25506 1.21452,1.09813 0.95947,1.88309 z"
       style="fill:#b62234;fill-opacity:1;fill-rule:nonzero;stroke:#b62234;stroke-width:0.79701;stroke-linecap:butt;stroke-linejoin:miter;stroke-miterlimit:10;stroke-dasharray:none;stroke-opacity:1"
       transform="matrix(1.3333333,0,0,-1.3333333,253.48267,173.12)" />
    <path
       id="path61"
       d="m 43.0767,-56.87158 c -0.25504,0.78496 -1.09814,1.21452 -1.88308,0.95947 -0.78496,-0.25503 -1.21452,-1.09813 -0.95947,-1.88309 0.25503,-0.78495 1.09813,-1.2145 1.88307,-0.95947 0.78496,0.25505 1.21452,1.09813 0.95948,1.88309 z"
       style="fill:#b62234;fill-opacity:1;fill-rule:nonzero;stroke:#b62234;stroke-width:0.79701;stroke-linecap:butt;stroke-linejoin:miter;stroke-miterlimit:10;stroke-dasharray:none;stroke-opacity:1"
       transform="matrix(1.3333333,0,0,-1.3333333,253.48267,173.12)" />
    <path
       id="path62"
       d="M 20.21973,6.5698 0,28.34732 m 0,0 V 0 m 0,0 v 0 m 0,0 v 0 m 0,0 20.21973,6.5698"
       style="fill:#7641a4;fill-opacity:1;fill-rule:nonzero;stroke:#7641a4;stroke-width:0.79701;stroke-linecap:butt;stroke-linejoin:miter;stroke-miterlimit:10;stroke-dasharray:none;stroke-opacity:1"
       transform="matrix(1.3333333,0,0,-1.3333333,253.48267,173.12)" />
    <path
       id="path63"
       d="M 21.641,7.0316 C 21.38597,7.81656 20.54288,8.24612 19.75793,7.99107 18.97298,7.73604 18.54341,6.89294 18.79846,6.108 19.0535,5.32304 19.89659,4.89348 20.68153,5.14853 21.46649,5.40356 21.89606,6.24666 21.641,7.0316 Z"
       style="fill:#7641a4;fill-opacity:1;fill-rule:nonzero;stroke:#7641a4;stroke-width:0.79701;stroke-linecap:butt;stroke-linejoin:miter;stroke-miterlimit:10;stroke-dasharray:none;stroke-opacity:1"
       transform="matrix(1.3333333,0,0,-1.3333333,253.48267,173.12)" />
    <path
       id="path64"
       d="m 1.42125,28.80913 c -0.25504,0.78496 -1.09813,1.21451 -1.88305,0.95947 -0.78497,-0.25505 -1.21453,-1.09813 -0.95948,-1.88309 0.25504,-0.78495 1.09813,-1.21452 1.88306,-0.95947 0.78495,0.25505 1.21452,1.09813 0.95947,1.88309 z"
       style="fill:#7641a4;fill-opacity:1;fill-rule:nonzero;stroke:#7641a4;stroke-width:0.79701;stroke-linecap:butt;stroke-linejoin:miter;stroke-miterlimit:10;stroke-dasharray:none;stroke-opacity:1"
       transform="matrix(1.3333333,0,0,-1.3333333,253.48267,173.12)" />
    <path
       id="path65"
       d="M 1.42126,0.46179 C 1.16623,1.24675 0.32314,1.67632 -0.46179,1.42126 -1.24675,1.16623 -1.67632,0.32314 -1.42126,-0.46179 c 0.25503,-0.78496 1.09812,-1.21453 1.88305,-0.95947 0.78496,0.25503 1.21453,1.09812 0.95947,1.88305 z"
       style="fill:#7641a4;fill-opacity:1;fill-rule:nonzero;stroke:#7641a4;stroke-width:0.79701;stroke-linecap:butt;stroke-linejoin:miter;stroke-miterlimit:10;stroke-dasharray:none;stroke-opacity:1"
       transform="matrix(1.3333333,0,0,-1.3333333,253.48267,173.12)" />
    <path
       id="path66"
       d="M 1.42126,0.46179 C 1.16623,1.24675 0.32314,1.67632 -0.46179,1.42126 -1.24675,1.16623 -1.67632,0.32314 -1.42126,-0.46179 c 0.25503,-0.78496 1.09812,-1.21453 1.88305,-0.95947 0.78496,0.25503 1.21453,1.09812 0.95947,1.88305 z"
       style="fill:#7641a4;fill-opacity:1;fill-rule:nonzero;stroke:#7641a4;stroke-width:0.79701;stroke-linecap:butt;stroke-linejoin:miter;stroke-miterlimit:10;stroke-dasharray:none;stroke-opacity:1"
       transform="matrix(1.3333333,0,0,-1.3333333,253.48267,173.12)" />
    <path
       id="path67"
       d="M 1.42126,0.46179 C 1.16623,1.24675 0.32314,1.67632 -0.46179,1.42126 -1.24675,1.16623 -1.67632,0.32314 -1.42126,-0.46179 c 0.25503,-0.78496 1.09812,-1.21453 1.88305,-0.95947 0.78496,0.25503 1.21453,1.09812 0.95947,1.88305 z"
       style="fill:#7641a4;fill-opacity:1;fill-rule:nonzero;stroke:#7641a4;stroke-width:0.79701;stroke-linecap:butt;stroke-linejoin:miter;stroke-miterlimit:10;stroke-dasharray:none;stroke-opacity:1"
       transform="matrix(1.3333333,0,0,-1.3333333,253.48267,173.12)" />
    <path
       id="path68"
       d="m 184.84923,123.60616 h -60.43009 c -1.10048,0 -1.99255,-0.89209 -1.99255,-1.99256 V 87.47522 c 0,-1.10048 0.89207,-1.99255 1.99255,-1.99255 h 60.43009 c 1.10046,0 1.99255,0.89207 1.99255,1.99255 v 34.13838 c 0,1.10047 -0.89209,1.99256 -1.99255,1.99256 z"
       style="fill:#f2f2f2;fill-opacity:1;fill-rule:nonzero;stroke:none"
       transform="matrix(1.3333333,0,0,-1.3333333,253.48267,173.12)" />
    <path
       id="path69"
       d="M 1.99255,0 C 1.99255,1.10046 1.10046,1.99255 0,1.99255 -1.10046,1.99255 -1.99255,1.10046 -1.99255,0 c 0,-1.10046 0.89209,-1.99255 1.99255,-1.99255 1.10046,0 1.99255,0.89209 1.99255,1.99255 z"
       style="fill:#0a9185;fill-opacity:1;fill-rule:nonzero;stroke:#0a9185;stroke-width:0.3985;stroke-linecap:butt;stroke-linejoin:miter;stroke-miterlimit:10;stroke-dasharray:none;stroke-opacity:1"
       transform="matrix(1.3333333,0,0,-1.3333333,425.57067,18.276)" />
    <path
       id="path70"
       d="M 4.7351094,-1.8522188 5.4147969,-6.5625e-4 H 6.3640156 L 3.6569844,-7.0787813 H 2.8366719 L 0.14135937,-6.5625e-4 H 1.1022969 l 0.65625,-1.85156255 z M 2.0515156,-2.6256563 3.2468281,-5.9303438 4.4538594,-2.6256563 Z M 6.9528828,-2.68425 v 0.070312 c 0,0.8085937 0.1875,1.4648437 0.5742188,1.96875 0.3867187,0.4921875 0.8789062,0.75 1.5,0.75 0.6328125,0 1.1484374,-0.234375 1.5000004,-0.66796875 l 0.04687,0.5625 h 0.820312 V -7.4772188 h -0.890625 v 2.7421875 C 10.140383,-5.1451875 9.6481953,-5.356125 9.0388203,-5.356125 c -0.6210937,0 -1.125,0.2460937 -1.5117187,0.7382812 -0.3867188,0.4804688 -0.5742188,1.125 -0.5742188,1.9335938 z m 0.9023438,0.1171875 c 0,-0.6679688 0.1289062,-1.1835938 0.375,-1.5234375 0.234375,-0.328125 0.5859375,-0.5039063 1.0195312,-0.5039063 0.5625,0 0.9726562,0.2460938 1.2539062,0.7382813 v 2.4257812 c -0.269531,0.51562505 -0.6914062,0.7617188 -1.2539062,0.7617188 -0.4453125,0 -0.7851562,-0.1640625 -1.0195312,-0.4921875 -0.2460938,-0.3398438 -0.375,-0.8085938 -0.375,-1.40625 z M 13.626711,-5.262375 h -0.84375 v 5.26171875 h 0.890625 V -3.8444063 c 0.222656,-0.5039062 0.621094,-0.75 1.21875,-0.75 0.75,0 1.125,0.3867188 1.125,1.1484375 V -6.5625e-4 H 16.91968 V -3.4928438 c 0.03516,-0.328125 0.164062,-0.5976562 0.386718,-0.796875 0.210938,-0.1992187 0.480469,-0.3046875 0.820313,-0.3046875 0.410156,0 0.703125,0.1054688 0.867187,0.28125 0.175782,0.1757813 0.257813,0.4570313 0.257813,0.8320313 v 3.48046875 h 0.914062 V -3.528 c -0.02344,-1.21875 -0.609375,-1.828125 -1.769531,-1.828125 -0.386719,0 -0.726562,0.070312 -1.007812,0.234375 -0.269532,0.1640625 -0.503907,0.3632812 -0.667969,0.609375 -0.269531,-0.5625 -0.773438,-0.84375 -1.511719,-0.84375 -0.65625,0 -1.171875,0.2226562 -1.546875,0.6679687 z m 8.868164,5.26171875 V -5.262375 H 21.592531 V -6.5625e-4 Z M 21.522219,-6.6569063 c 0,0.1523438 0.03516,0.2695313 0.128906,0.375 0.08203,0.09375 0.210937,0.140625 0.398437,0.140625 0.164063,0 0.292969,-0.046875 0.398438,-0.140625 0.08203,-0.1054687 0.140625,-0.2226562 0.140625,-0.375 0,-0.140625 -0.05859,-0.2695312 -0.140625,-0.3632812 -0.105469,-0.1054688 -0.234375,-0.1640625 -0.398438,-0.1640625 -0.1875,0 -0.316406,0.058594 -0.398437,0.1640625 -0.09375,0.09375 -0.128906,0.2226562 -0.128906,0.3632812 z m 3.254883,1.3945313 h -0.855469 v 5.26171875 h 0.902344 V -3.7506563 c 0.117187,-0.2578125 0.292968,-0.4570312 0.515625,-0.609375 0.210937,-0.1523437 0.46875,-0.234375 0.773437,-0.234375 0.351563,0 0.621094,0.09375 0.796875,0.2695313 0.164063,0.1757812 0.257813,0.4570312 0.257813,0.8320312 v 3.49218755 h 0.890625 V -3.481125 c -0.01172,-1.2539063 -0.574219,-1.875 -1.675782,-1.875 -0.644531,0 -1.183593,0.2578125 -1.582031,0.75 z m 0,0"
       style="fill:#0a9185;fill-opacity:1;fill-rule:nonzero;stroke:none"
       aria-label="Admin"
       transform="matrix(1.3333333,0,0,1.3333333,441.06933,22.704)" />
    <path
       id="path71"
       d="M 1.99255,0 C 1.99255,1.10046 1.10046,1.99255 0,1.99255 -1.10046,1.99255 -1.99255,1.10046 -1.99255,0 c 0,-1.10046 0.89209,-1.99255 1.99255,-1.99255 1.10046,0 1.99255,0.89209 1.99255,1.99255 z"
       style="fill:#b62234;fill-opacity:1;fill-rule:nonzero;stroke:#b62234;stroke-width:0.3985;stroke-linecap:butt;stroke-linejoin:miter;stroke-miterlimit:10;stroke-dasharray:none;stroke-opacity:1"
       transform="matrix(1.3333333,0,0,-1.3333333,425.57067,34.217333)" />
    <path
       id="path72"
       d="M 1.8288594,3.984375e-4 V -7.0777266 H 0.89135937 V 3.984375e-4 Z M 4.2341328,-5.2613203 H 3.3786641 V 3.984375e-4 H 4.2810078 V -3.7496016 c 0.1171875,-0.2578125 0.2929688,-0.4570312 0.515625,-0.609375 0.2109375,-0.1523437 0.46875,-0.234375 0.7734375,-0.234375 0.3515625,0 0.6210938,0.09375 0.796875,0.2695313 0.1640625,0.1757812 0.2578125,0.4570312 0.2578125,0.8320312 V 3.984375e-4 h 0.890625 V -3.4800703 c -0.011719,-1.2539063 -0.5742187,-1.875 -1.6757812,-1.875 -0.6445313,0 -1.1835938,0.2578125 -1.5820313,0.75 z m 7.7050782,3.8671875 c 0,0.234375 -0.117188,0.42187499 -0.316406,0.56249999 -0.210938,0.12890625 -0.480469,0.19921875 -0.808594,0.19921875 -0.386719,0 -0.679688,-0.09375 -0.9023438,-0.26953125 C 9.6892109,-1.0894453 9.5603047,-1.3238203 9.5485859,-1.6285078 H 8.6462422 c 0,0.328125 0.09375,0.609375 0.28125,0.87890624 0.1757812,0.26953125 0.4335937,0.48046875 0.7617187,0.6328125 0.3281251,0.15234375 0.7031251,0.22265625 1.1250001,0.22265625 0.597656,0 1.066406,-0.140625 1.453125,-0.421875 0.375,-0.28125 0.5625,-0.65625 0.5625,-1.13671879 0,-0.28125 -0.07031,-0.515625 -0.199219,-0.7148437 -0.140625,-0.1992188 -0.339844,-0.375 -0.621094,-0.515625 -0.269531,-0.140625 -0.644531,-0.2578125 -1.089843,-0.3515625 -0.445313,-0.1054688 -0.761719,-0.1992188 -0.9257816,-0.3164063 -0.1757812,-0.1054687 -0.2578125,-0.2695312 -0.2578125,-0.4921875 0,-0.234375 0.082031,-0.421875 0.2812501,-0.5625 0.175781,-0.140625 0.433594,-0.2109375 0.761719,-0.2109375 0.316406,0 0.574218,0.082031 0.785156,0.2695313 0.210937,0.1757812 0.316406,0.3984375 0.316406,0.6328125 h 0.902344 c 0,-0.4804688 -0.1875,-0.8671875 -0.5625,-1.171875 -0.363281,-0.3164063 -0.84375,-0.46875 -1.441406,-0.46875 -0.574219,0 -1.0429691,0.140625 -1.4062503,0.4453125 -0.3632813,0.2929687 -0.5507813,0.6679687 -0.5507813,1.0898437 0,0.2695313 0.070312,0.4921875 0.1992188,0.6679688 0.1289062,0.1992187 0.328125,0.3515625 0.5976562,0.4921875 0.2695313,0.140625 0.6210936,0.2460937 1.0781246,0.3515625 0.457032,0.09375 0.785157,0.2109375 0.960938,0.3515625 0.175781,0.1289062 0.28125,0.328125 0.28125,0.5625 z m 3.27832,-5.1445313 h -0.890625 v 1.2773438 H 13.35425 v 0.703125 h 0.972656 v 3.2578125 c 0,0.45703124 0.09375,0.79687499 0.292969,1.04296874 0.199219,0.234375 0.515625,0.36328125 0.925781,0.36328125 0.210938,0 0.445313,-0.03515625 0.679688,-0.1054687525 V -0.72616406 c -0.175782,0.0351563 -0.328125,0.0585938 -0.421875,0.0585938 -0.222657,0 -0.375,-0.046875 -0.457032,-0.1640625 -0.08203,-0.09375 -0.128906,-0.25781244 -0.128906,-0.46874994 v -3.2578125 h 0.996094 v -0.703125 h -0.996094 z m 4.573242,2.0859375 v -0.8320312 c -0.09375,-0.046875 -0.222656,-0.070312 -0.398437,-0.070312 -0.539063,0 -0.960938,0.234375 -1.253906,0.703125 l -0.01172,-0.609375 H 17.247805 V 3.984375e-4 h 0.902343 V -3.7378828 c 0.199219,-0.4921875 0.597657,-0.75 1.195313,-0.75 0.164062,0 0.316406,0.011719 0.445312,0.035156 z m 4.081055,3.93750004 0.01172,0.5156249975 h 0.855469 V -5.2613203 h -0.902344 v 3.8320312 c -0.222656,0.51562504 -0.679688,0.76171879 -1.371094,0.76171879 -0.644531,0 -0.972656,-0.39843749 -0.972656,-1.19531249 v -3.3984375 h -0.902344 v 3.421875 c 0,0.6445312 0.152344,1.13671874 0.445313,1.45312499 0.304687,0.328125 0.726562,0.4921875 1.289062,0.4921875 0.679688,0 1.183594,-0.2109375 1.546875,-0.62109375 z m 4.341797,-0.1171875 c -0.46875,0 -0.832031,-0.1640625 -1.078125,-0.49218754 -0.246094,-0.328125 -0.363281,-0.796875 -0.363281,-1.40625 v -0.1640625 c 0,-0.6210937 0.117187,-1.1015625 0.375,-1.4296875 0.246093,-0.328125 0.609375,-0.4921875 1.066406,-0.4921875 0.339844,0 0.621094,0.1054688 0.855469,0.328125 0.234375,0.2109375 0.363281,0.4921875 0.386718,0.8320313 h 0.855469 c -0.03516,-0.5625 -0.246094,-1.0195313 -0.632812,-1.3710938 -0.386719,-0.3515625 -0.878907,-0.5273437 -1.464844,-0.5273437 -0.480469,0 -0.890625,0.1054687 -1.242188,0.328125 -0.363281,0.2109375 -0.632812,0.5390625 -0.820312,0.9375 -0.1875,0.3984375 -0.28125,0.8554687 -0.28125,1.359375 v 0.1523437 c 0,0.8320313 0.210937,1.4765625 0.632812,1.95703129 0.421875,0.48046875 0.996094,0.7265625 1.710938,0.7265625 0.363281,0 0.703125,-0.08203125 1.019531,-0.24609375 0.316406,-0.1640625 0.5625,-0.375 0.761719,-0.65625 0.1875,-0.28125004 0.292969,-0.56250004 0.316406,-0.86718754 h -0.855469 c -0.02344,0.3046875 -0.164062,0.5390625 -0.410156,0.73828129 -0.234375,0.19921875 -0.515625,0.29296875 -0.832031,0.29296875 z m 4.321289,-5.90625004 h -0.890625 v 1.2773438 h -0.972656 v 0.703125 h 0.972656 v 3.2578125 c 0,0.45703124 0.09375,0.79687499 0.292969,1.04296874 0.199219,0.234375 0.515625,0.36328125 0.925781,0.36328125 0.210938,0 0.445313,-0.03515625 0.679688,-0.1054687525 V -0.72616406 c -0.175782,0.0351563 -0.328125,0.0585938 -0.421875,0.0585938 -0.222657,0 -0.375,-0.046875 -0.457032,-0.1640625 -0.08203,-0.09375 -0.128906,-0.25781244 -0.128906,-0.46874994 v -3.2578125 h 0.996094 v -0.703125 h -0.996094 z m 1.681641,3.8554688 v 0.058594 c 0,0.8203125 0.222656,1.4765625 0.667968,1.98046879 0.445313,0.4921875 1.019532,0.75 1.734375,0.75 0.46875,0 0.890625,-0.1171875 1.253907,-0.33984375 0.363281,-0.234375 0.644531,-0.55078125 0.84375,-0.96093754 0.199218,-0.3984375 0.292968,-0.8554687 0.292968,-1.3710937 v -0.070312 c 0,-0.8203125 -0.222656,-1.4765625 -0.667968,-1.9804688 -0.433594,-0.4921875 -1.007813,-0.7382812 -1.734375,-0.7382812 -0.46875,0 -0.878907,0.1171875 -1.242188,0.3398437 -0.351562,0.2109375 -0.644531,0.5273438 -0.84375,0.9375 -0.199219,0.421875 -0.304687,0.8789063 -0.304687,1.3945305 z m 0.914062,0.1171875 c 0,-0.65625 0.128906,-1.1601563 0.410156,-1.5234375 0.269532,-0.3515625 0.621094,-0.5273438 1.066407,-0.5273438 0.46875,0 0.820312,0.1757813 1.101562,0.5273438 0.269531,0.3632812 0.410156,0.8320312 0.410156,1.40625 0,0.65625 -0.140625,1.1484375 -0.410156,1.5117187 -0.269531,0.35156254 -0.632812,0.53906254 -1.089844,0.53906254 -0.457031,0 -0.808593,-0.17578125 -1.078125,-0.52734374 -0.28125,-0.3515625 -0.410156,-0.8203125 -0.410156,-1.40625 z m 7.552735,-1.8867188 v -0.8320312 c -0.09375,-0.046875 -0.222657,-0.070312 -0.398438,-0.070312 -0.539062,0 -0.960937,0.234375 -1.253906,0.703125 l -0.01172,-0.609375 H 40.140383 V 3.984375e-4 h 0.902344 V -3.7378828 c 0.199218,-0.4921875 0.597656,-0.75 1.195312,-0.75 0.164063,0 0.316406,0.011719 0.445313,0.035156 z m 0,0"
       style="fill:#b62234;fill-opacity:1;fill-rule:nonzero;stroke:none"
       aria-label="Instructor"
       transform="matrix(1.3333333,0,0,1.3333333,441.06933,38.644)" />
    <path
       id="path73"
       d="M 1.99255,0 C 1.99255,1.10046 1.10046,1.99255 0,1.99255 -1.10046,1.99255 -1.99255,1.10046 -1.99255,0 c 0,-1.10046 0.89209,-1.99255 1.99255,-1.99255 1.10046,0 1.99255,0.89209 1.99255,1.99255 z"
       style="fill:#7641a4;fill-opacity:1;fill-rule:nonzero;stroke:#7641a4;stroke-width:0.3985;stroke-linecap:butt;stroke-linejoin:miter;stroke-miterlimit:10;stroke-dasharray:none;stroke-opacity:1"
       transform="matrix(1.3333333,0,0,-1.3333333,425.57067,50.157333)" />
    <path
       id="path74"
       d="m 2.9069844,-3.1508906 c 0.6445312,0.1875 1.078125,0.375 1.3125,0.5625 0.2460937,0.1875 0.375,0.4570312 0.375,0.8085937 0,0.3515625 -0.140625,0.6210938 -0.3984375,0.82031252 -0.2578125,0.19921875 -0.6445313,0.29296875 -1.125,0.29296875 -0.5273438,0 -0.9492188,-0.1171875 -1.265625,-0.36328127 C 1.4890156,-1.2876094 1.3249531,-1.6274531 1.3249531,-2.0493281 H 0.38745312 c 0,0.421875 0.1171875,0.7851562 0.33984375,1.10156247 0.234375,0.328125 0.56250003,0.5859375 0.97265623,0.7734375 0.421875,0.1875 0.8789063,0.28125 1.3710938,0.28125 0.75,0 1.3476562,-0.17578125 1.7929687,-0.52734375 0.4453125,-0.33984375 0.6796875,-0.80859372 0.6796875,-1.38281252 0,-0.3515625 -0.09375,-0.6679687 -0.2578125,-0.9375 C 5.1335469,-2.9985469 4.8874531,-3.2329219 4.5476094,-3.4321406 4.2194844,-3.6313594 3.7507344,-3.8188594 3.1647969,-3.9829219 2.5788594,-4.1469844 2.1569844,-4.3344844 1.9226094,-4.5337031 1.6765156,-4.7329219 1.5593281,-4.9672969 1.5593281,-5.2602656 c 0,-0.3515625 0.1289063,-0.6445313 0.3867188,-0.84375 0.2578125,-0.1992188 0.609375,-0.3046875 1.078125,-0.3046875 0.4921875,0 0.8671875,0.1289062 1.1484375,0.375 0.2695312,0.2460937 0.4101562,0.5859375 0.4101562,1.0078125 h 0.9375 c 0,-0.3867188 -0.1054687,-0.75 -0.3164062,-1.0898438 -0.2109375,-0.328125 -0.515625,-0.5859375 -0.890625,-0.7734375 -0.375,-0.1875 -0.8203125,-0.2929687 -1.2890625,-0.2929687 -0.7265625,0 -1.3007813,0.1875 -1.734375,0.5507812 -0.45703128,0.3632813 -0.66796878,0.8203125 -0.66796878,1.3828125 0,0.5039063 0.17578125,0.9023438 0.53906248,1.2421875 0.3515625,0.3398438 0.9375,0.6210938 1.7460938,0.8554688 z m 4.8984375,-3.3867188 h -0.890625 v 1.2773438 H 5.9421406 v 0.703125 h 0.9726563 v 3.2578125 c 0,0.45703122 0.09375,0.79687497 0.2929687,1.04296872 0.1992188,0.234375 0.515625,0.36328125 0.9257813,0.36328125 0.2109375,0 0.4453125,-0.03515625 0.6796875,-0.10546875 v -0.7265625 c -0.1757813,0.0351563 -0.328125,0.0585938 -0.421875,0.0585938 -0.2226563,0 -0.375,-0.046875 -0.4570313,-0.1640625 -0.082031,-0.09375 -0.1289062,-0.25781252 -0.1289062,-0.46875002 v -3.2578125 h 0.9960937 v -0.703125 H 7.8054219 Z m 5.2880861,6.02343752 0.01172,0.515625 h 0.855468 V -5.2602656 h -0.902343 v 3.8320312 c -0.222657,0.51562502 -0.679688,0.76171877 -1.371094,0.76171877 -0.644531,0 -0.972656,-0.39843747 -0.972656,-1.19531247 V -5.2602656 H 9.8122578 v 3.421875 c 0,0.6445312 0.1523438,1.13671872 0.4453122,1.45312497 0.304688,0.328125 0.726563,0.4921875 1.289063,0.4921875 0.679687,0 1.183594,-0.2109375 1.546875,-0.62109375 z m 2.009765,-2.16796872 v 0.070312 c 0,0.8085937 0.1875,1.4648437 0.574219,1.96874997 0.386719,0.4921875 0.878906,0.75 1.5,0.75 0.632813,0 1.148438,-0.234375 1.5,-0.66796875 l 0.04687,0.5625 H 19.54468 V -7.4751094 h -0.890625 v 2.7421875 c -0.363282,-0.4101562 -0.855469,-0.6210937 -1.464844,-0.6210937 -0.621094,0 -1.125,0.2460937 -1.511719,0.7382812 -0.386719,0.4804688 -0.574219,1.125 -0.574219,1.9335938 z m 0.902344,0.1171875 c 0,-0.6679688 0.128906,-1.1835938 0.375,-1.5234375 0.234375,-0.328125 0.585938,-0.5039063 1.019531,-0.5039063 0.5625,0 0.972657,0.2460938 1.253907,0.7382813 v 2.4257812 c -0.269532,0.51562502 -0.691407,0.76171877 -1.253907,0.76171877 -0.445312,0 -0.785156,-0.1640625 -1.019531,-0.49218747 -0.246094,-0.3398438 -0.375,-0.8085938 -0.375,-1.40625 z m 7.119141,2.67187497 c 0.878906,0 1.546875,-0.33984375 1.980469,-1.01953125 L 24.554445,-1.3462031 c -0.164062,0.2226562 -0.363281,0.38671872 -0.585937,0.51562497 -0.222656,0.12890625 -0.492188,0.19921875 -0.808594,0.19921875 -0.445312,0 -0.808594,-0.1640625 -1.101562,-0.48046872 -0.292969,-0.3164063 -0.445313,-0.7382813 -0.445313,-1.2539063 h 3.5625 v -0.3867187 c 0,-0.8320313 -0.199219,-1.4648438 -0.574219,-1.9335938 -0.386718,-0.4453125 -0.925781,-0.6679687 -1.59375,-0.6679687 -0.421875,0 -0.808593,0.1171875 -1.171875,0.3398437 -0.351562,0.2460938 -0.632812,0.5625 -0.832031,0.9726563 -0.199219,0.4101562 -0.304687,0.8789062 -0.304687,1.3945312 v 0.1523438 c 0,0.796875 0.222656,1.4296875 0.679687,1.89843747 0.445313,0.46875 1.03125,0.703125 1.746094,0.703125 z M 23.00757,-4.6157344 c 0.375,0 0.667969,0.1289063 0.890625,0.375 0.222657,0.2578125 0.339844,0.609375 0.375,1.0664063 v 0.070312 h -2.636718 c 0.04687,-0.4804688 0.199218,-0.84375 0.445312,-1.1132813 0.246094,-0.2695312 0.550781,-0.3984375 0.925781,-0.398437 z m 4.051758,-0.6445312 h -0.855469 v 5.26171872 h 0.902344 V -3.7485469 c 0.117188,-0.2578125 0.292969,-0.4570312 0.515625,-0.609375 0.210938,-0.1523437 0.46875,-0.234375 0.773438,-0.234375 0.351562,0 0.621093,0.09375 0.796875,0.2695313 0.164062,0.1757812 0.257812,0.4570312 0.257812,0.8320312 v 3.49218752 h 0.890625 V -3.4790156 c -0.01172,-1.2539063 -0.574219,-1.875 -1.675781,-1.875 -0.644531,0 -1.183594,0.2578125 -1.582031,0.75 z m 5.853516,-1.2773438 h -0.890625 v 1.2773438 h -0.972657 v 0.703125 h 0.972657 v 3.2578125 c 0,0.45703122 0.09375,0.79687497 0.292968,1.04296872 0.199219,0.234375 0.515625,0.36328125 0.925782,0.36328125 0.210937,0 0.445312,-0.03515625 0.679687,-0.10546875 v -0.7265625 c -0.175781,0.0351563 -0.328125,0.0585938 -0.421875,0.0585938 -0.222656,0 -0.375,-0.046875 -0.457031,-0.1640625 -0.08203,-0.09375 -0.128906,-0.25781252 -0.128906,-0.46875002 v -3.2578125 h 0.996093 v -0.703125 h -0.996093 z m 0,0"
       style="fill:#7641a4;fill-opacity:1;fill-rule:nonzero;stroke:none"
       aria-label="Student"
       transform="matrix(1.3333333,0,0,1.3333333,441.06933,54.584)" />
  </g>
</svg>
