<?xml version="1.0" encoding="UTF-8" standalone="no"?>
<!-- Created with Inkscape (http://www.inkscape.org/) -->

<svg
   version="1.1"
   id="svg1"
   width="485.39734"
   height="294.84799"
   viewBox="0 0 485.39734 294.84799"
   xmlns="http://www.w3.org/2000/svg"
   xmlns:svg="http://www.w3.org/2000/svg">
  <defs
     id="defs1" />
  <g
     id="g1">
    <path
       id="path2"
       d="M 13.47981,4.37987 5e-5,14.17343 l -67.3994,7.7254 46.57171,-50.5653 29.15865,17.19997 5.1488,15.84637"
       style="fill:#00a990;fill-opacity:0.2;fill-rule:nonzero;stroke:none"
       transform="matrix(1.3333333,0,0,-1.3333333,242.69867,161.78133)" />
    <path
       id="path3"
       d="M 67.39914,21.89938 0,56.69464 -13.4798,4.3796 l 0.98314,-21.57922 54.15209,-40.13377 25.74371,79.23277"
       style="fill:#ed192e;fill-opacity:0.2;fill-rule:nonzero;stroke:none"
       transform="matrix(1.3333333,0,0,-1.3333333,242.69867,161.78133)" />
    <path
       id="path4"
       d="M 20.21973,6.5698 0,28.34732 V 0 0 0 l 20.21973,6.5698"
       style="fill:#fddf4c;fill-opacity:0.2;fill-rule:nonzero;stroke:none"
       transform="matrix(1.3333333,0,0,-1.3333333,242.69867,161.78133)" />
    <path
       id="path5"
       d="M 0,0 78.605,25.54042"
       style="fill:none;stroke:#ffffff;stroke-width:0.3985;stroke-linecap:butt;stroke-linejoin:miter;stroke-miterlimit:10;stroke-dasharray:none;stroke-opacity:1"
       transform="matrix(1.3333333,0,0,-1.3333333,242.69867,161.78133)" />
    <path
       id="path6"
       d="m 2.39102,0 c -0.99626,0.19925 -2.78952,0.59775 -3.98503,1.49438 0.99626,-1.09588 0.99626,-1.89288 0,-2.98876 C -0.3985,-0.59775 1.39476,-0.19925 2.39102,0 Z"
       style="fill:#ffffff;fill-opacity:1;fill-rule:nonzero;stroke:none"
       transform="matrix(1.2680667,-0.412,-0.412,-1.2680667,347.50531,127.72744)" />
    <path
       id="path7"
       d="m 1.7918125,-2.8224038 h 1.6992188 c 0.8203125,0 1.4296875,-0.19125 1.8867187,-0.5737499 C 5.8113438,-3.7667006 6.034,-4.3045913 6.034,-5.0217787 6.034,-5.6792006 5.8113438,-6.2051381 5.3660313,-6.6115444 4.9207188,-7.0179506 4.299625,-7.2211537 3.50275,-7.2211537 H 0.84259375 v 7.21968745 H 1.7918125 Z m 0,-0.7889062 V -6.4442006 H 3.549625 c 0.46875,0.023906 0.84375,0.1553906 1.125,0.4064062 0.2578125,0.2629688 0.4101563,0.5976563 0.4101563,1.0279688 0,0.4542187 -0.1523438,0.8008593 -0.4101563,1.0399218 C 4.393375,-3.7188881 4.0066563,-3.61131 3.50275,-3.61131 Z m 7.9042969,-0.9323438 v -0.8486718 c -0.1054688,-0.047813 -0.234375,-0.071719 -0.4101563,-0.071719 -0.5507812,0 -0.984375,0.2390625 -1.2773437,0.7171875 l -0.023437,-0.6215625 h -0.890625 v 5.36695315 H 8.0203281 V -3.8145131 c 0.1992188,-0.5020313 0.609375,-0.765 1.21875,-0.765 0.1640625,0 0.3164063,0.011953 0.4570313,0.035859 z m 0.4833986,1.8049219 v 0.059766 c 0,0.8367188 0.222656,1.5060938 0.679687,2.02007817 0.445313,0.50203125 1.042969,0.765 1.769532,0.765 0.480468,0 0.902343,-0.11953124 1.277343,-0.34664062 0.375,-0.2390625 0.65625,-0.56179687 0.855469,-0.98015625 0.210938,-0.4064063 0.304688,-0.8725781 0.304688,-1.3985156 v -0.071719 c 0,-0.8367187 -0.234375,-1.5060937 -0.679688,-2.0200781 -0.445312,-0.5020313 -1.03125,-0.7530469 -1.769531,-0.7530469 -0.480469,0 -0.902344,0.1195313 -1.265625,0.3466407 -0.363281,0.2151562 -0.667969,0.5378906 -0.867188,0.95625 -0.199218,0.4303125 -0.304687,0.8964843 -0.304687,1.4224216 z m 0.925781,0.1195313 c 0,-0.669375 0.128906,-1.1833594 0.421875,-1.5539063 0.269531,-0.3585937 0.632813,-0.5378906 1.089844,-0.5378906 0.46875,0 0.832031,0.1792969 1.125,0.5378906 0.269531,0.3705469 0.410156,0.8486719 0.410156,1.434375 0,0.669375 -0.140625,1.1714063 -0.410156,1.5419532 -0.28125,0.3585937 -0.644531,0.5498437 -1.113281,0.5498437 -0.46875,0 -0.832032,-0.17929688 -1.101563,-0.5378906 -0.292969,-0.3585938 -0.421875,-0.8367188 -0.421875,-1.434375 z m 4.901367,-0.1195313 c 0,0.8725782 0.1875,1.5658594 0.574219,2.07984377 0.386719,0.50203125 0.890625,0.765 1.523438,0.765 0.632812,0 1.136718,-0.21515624 1.511718,-0.64546874 V -0.073185 c 0,0.45421875 -0.140625,0.8128125 -0.386718,1.051875 -0.234375,0.2629687 -0.585938,0.3825 -1.03125,0.3825 -0.574219,0 -1.054688,-0.2390625 -1.441407,-0.72914063 L 16.276188,1.1818931 c 0.199218,0.286875 0.480468,0.5259375 0.84375,0.6813281 0.363281,0.1673438 0.75,0.2510157 1.136718,0.2510157 0.691407,0 1.253907,-0.19125 1.664063,-0.5976563 0.398437,-0.3944531 0.609375,-0.94429685 0.609375,-1.64953123 V -5.3684194 h -0.832031 l -0.04687,0.5857031 c -0.363282,-0.4542187 -0.878907,-0.6813281 -1.535157,-0.6813281 -0.644531,0 -1.148437,0.2510156 -1.535156,0.7410938 -0.386719,0.4900781 -0.574219,1.1594531 -0.574219,1.9842187 z m 0.925782,0.1195313 c 0,-0.6813281 0.117187,-1.2072656 0.375,-1.5539063 0.246093,-0.3346875 0.597656,-0.5139843 1.042968,-0.5139843 0.550782,0 0.972657,0.2510156 1.265625,0.765 v 2.4503906 c -0.28125,0.52593748 -0.703125,0.78890622 -1.277343,0.78890622 -0.445313,0 -0.796875,-0.16734375 -1.042969,-0.51398432 -0.246094,-0.3466407 -0.363281,-0.8128125 -0.363281,-1.4224219 z m 7.58789,-1.9244532 v -0.8486718 c -0.105469,-0.047813 -0.234375,-0.071719 -0.410156,-0.071719 -0.550781,0 -0.984375,0.2390625 -1.277344,0.7171875 l -0.02344,-0.6215625 h -0.890625 v 5.36695315 h 0.925781 V -3.8145131 c 0.199219,-0.5020313 0.609375,-0.765 1.21875,-0.765 0.164062,0 0.316406,0.011953 0.457031,0.035859 z m 3.946289,4.54218755 h 0.960938 v -0.08367188 c -0.117188,-0.28687499 -0.1875,-0.68132812 -0.1875,-1.17140627 v -2.4742968 c -0.01172,-0.5378907 -0.199219,-0.9682032 -0.539063,-1.2670313 -0.363281,-0.3107813 -0.84375,-0.4661719 -1.453125,-0.4661719 -0.398437,0 -0.761719,0.071719 -1.078125,0.2151563 -0.328125,0.1434375 -0.597656,0.3466406 -0.773437,0.5976562 -0.199219,0.2390625 -0.292969,0.5020313 -0.292969,0.765 h 0.925781 c 0,-0.2271094 0.117188,-0.4303125 0.339844,-0.5976562 0.222656,-0.1553907 0.492187,-0.2390625 0.820312,-0.2390625 0.363282,0 0.65625,0.095625 0.84375,0.286875 0.1875,0.19125 0.28125,0.4422656 0.28125,0.7530468 v 0.4303125 h -0.890625 c -0.773437,0 -1.359375,0.1673438 -1.78125,0.4661719 -0.433593,0.3107813 -0.644531,0.7410938 -0.644531,1.3028906 0,0.4542188 0.164063,0.8367188 0.503906,1.13554693 0.339844,0.31078125 0.773438,0.45421874 1.300782,0.45421874 0.597656,0 1.113281,-0.22710937 1.535156,-0.68132812 0.03516,0.27492188 0.07031,0.46617188 0.128906,0.57375 z M 26.94318,-0.70670062 c -0.304688,0 -0.539063,-0.0717188 -0.738282,-0.2390625 -0.1875,-0.16734378 -0.28125,-0.38249998 -0.28125,-0.66937498 0,-0.6574219 0.5625,-0.9921094 1.6875,-0.9921094 h 0.703125 V -1.50756 c -0.117187,0.2510156 -0.304687,0.4422656 -0.550781,0.58570312 -0.269531,0.14343751 -0.527344,0.21515626 -0.820312,0.21515626 z m 4.59375,-4.66171878 h -0.867188 v 5.36695315 h 0.914063 V -3.9220912 c 0.222656,-0.5139844 0.632812,-0.765 1.242187,-0.765 0.761719,0 1.148438,0.3944531 1.148438,1.1714062 v 3.51421875 h 0.914062 V -3.5634975 c 0.03516,-0.3346875 0.175781,-0.6096094 0.398438,-0.8128125 0.222656,-0.2032031 0.492187,-0.3107812 0.84375,-0.3107812 0.410156,0 0.703125,0.1075781 0.878906,0.286875 0.175781,0.1792968 0.269531,0.4661718 0.269531,0.8486718 v 3.55007815 H 38.19318 V -3.5993569 c -0.01172,-1.243125 -0.609375,-1.8646875 -1.792969,-1.8646875 -0.398438,0 -0.738281,0.071719 -1.03125,0.2390625 -0.28125,0.1673438 -0.515625,0.3705469 -0.691406,0.6215625 -0.269532,-0.57375 -0.773438,-0.860625 -1.523438,-0.860625 -0.679687,0 -1.207031,0.2271094 -1.59375,0.6813281 z m 8.90039,0 h -0.867187 v 5.36695315 h 0.914062 V -3.9220912 c 0.222657,-0.5139844 0.632813,-0.765 1.242188,-0.765 0.761719,0 1.148437,0.3944531 1.148437,1.1714062 v 3.51421875 h 0.914063 V -3.5634975 c 0.03516,-0.3346875 0.175781,-0.6096094 0.398437,-0.8128125 0.222657,-0.2032031 0.492188,-0.3107812 0.84375,-0.3107812 0.410157,0 0.703125,0.1075781 0.878907,0.286875 0.175781,0.1792968 0.269531,0.4661718 0.269531,0.8486718 v 3.55007815 H 47.09357 V -3.5993569 c -0.01172,-1.243125 -0.609375,-1.8646875 -1.792968,-1.8646875 -0.398438,0 -0.738282,0.071719 -1.03125,0.2390625 -0.28125,0.1673438 -0.515625,0.3705469 -0.691407,0.6215625 -0.269531,-0.57375 -0.773437,-0.860625 -1.523437,-0.860625 -0.679688,0 -1.207031,0.2271094 -1.59375,0.6813281 z m 9.043946,5.36695315 V -5.3684194 h -0.925782 v 5.36695315 z M 48.485172,-6.7908412 c 0,0.1553906 0.03516,0.2749218 0.128906,0.3824999 0.09375,0.095625 0.222656,0.1434375 0.410156,0.1434375 0.175782,0 0.304688,-0.047812 0.398438,-0.1434375 0.09375,-0.1075781 0.152344,-0.2271093 0.152344,-0.3824999 0,-0.1434376 -0.05859,-0.2749219 -0.152344,-0.3705469 -0.09375,-0.1075782 -0.222656,-0.1673438 -0.398438,-0.1673438 -0.1875,0 -0.316406,0.059766 -0.410156,0.1673438 -0.09375,0.095625 -0.128906,0.2271093 -0.128906,0.3705469 z m 3.325195,1.4224218 h -0.878906 v 5.36695315 h 0.925781 V -3.8264662 c 0.117188,-0.2629688 0.292969,-0.4661719 0.515625,-0.6215626 0.222656,-0.1553906 0.492188,-0.2390624 0.796875,-0.2390624 0.363281,0 0.621094,0.095625 0.808594,0.2749218 0.175781,0.1792969 0.269531,0.4661719 0.269531,0.8486719 v 3.56203125 H 55.16193 V -3.5515444 c -0.02344,-1.2789843 -0.597657,-1.9125 -1.722657,-1.9125 -0.65625,0 -1.195312,0.2629688 -1.605468,0.765 z m 4.508789,2.6296875 c 0,0.8725782 0.1875,1.5658594 0.574219,2.07984377 0.386719,0.50203125 0.890625,0.765 1.523438,0.765 0.632812,0 1.136718,-0.21515624 1.511718,-0.64546874 V -0.073185 c 0,0.45421875 -0.140625,0.8128125 -0.386718,1.051875 -0.234375,0.2629687 -0.585938,0.3825 -1.03125,0.3825 -0.574219,0 -1.054688,-0.2390625 -1.441407,-0.72914063 L 56.588688,1.1818931 c 0.199218,0.286875 0.480468,0.5259375 0.84375,0.6813281 0.363281,0.1673438 0.75,0.2510157 1.136718,0.2510157 0.691407,0 1.253907,-0.19125 1.664063,-0.5976563 0.398437,-0.3944531 0.609375,-0.94429685 0.609375,-1.64953123 V -5.3684194 h -0.832031 l -0.04687,0.5857031 c -0.363282,-0.4542187 -0.878907,-0.6813281 -1.535157,-0.6813281 -0.644531,0 -1.148437,0.2510156 -1.535156,0.7410938 -0.386719,0.4900781 -0.574219,1.1594531 -0.574219,1.9842187 z m 0.925782,0.1195313 c 0,-0.6813281 0.117187,-1.2072656 0.375,-1.5539063 0.246093,-0.3346875 0.597656,-0.5139843 1.042968,-0.5139843 0.550782,0 0.972657,0.2510156 1.265625,0.765 v 2.4503906 c -0.28125,0.52593748 -0.703125,0.78890622 -1.277343,0.78890622 -0.445313,0 -0.796875,-0.16734375 -1.042969,-0.51398432 -0.246094,-0.3466407 -0.363281,-0.8128125 -0.363281,-1.4224219 z m 0,0"
       style="fill:#ffffff;fill-opacity:1;fill-rule:nonzero;stroke:none"
       aria-label="Programming"
       transform="matrix(1.3333333,0,0,1.3071895,345.45467,118.47067)" />
    <path
       id="path8"
       d="M 0,0 V 0"
       style="fill:none;stroke:#929293;stroke-width:0.3985;stroke-linecap:butt;stroke-linejoin:miter;stroke-miterlimit:10;stroke-dasharray:none;stroke-opacity:1"
       transform="matrix(1.3333333,0,0,-1.3333333,242.69867,161.78133)" />
    <path
       id="path9"
       d="M 13.47981,4.37987 5e-5,14.17343"
       style="fill:none;stroke:#929293;stroke-width:0.3985;stroke-linecap:butt;stroke-linejoin:miter;stroke-miterlimit:10;stroke-dasharray:none;stroke-opacity:1"
       transform="matrix(1.3333333,0,0,-1.3333333,242.69867,161.78133)" />
    <path
       id="path10"
       d="M 26.95966,8.75974 0,28.34732"
       style="fill:none;stroke:#929293;stroke-width:0.3985;stroke-linecap:butt;stroke-linejoin:miter;stroke-miterlimit:10;stroke-dasharray:none;stroke-opacity:1"
       transform="matrix(1.3333333,0,0,-1.3333333,242.69867,161.78133)" />
    <path
       id="path11"
       d="M 40.43947,13.13962 5e-5,42.52078"
       style="fill:none;stroke:#929293;stroke-width:0.3985;stroke-linecap:butt;stroke-linejoin:miter;stroke-miterlimit:10;stroke-dasharray:none;stroke-opacity:1"
       transform="matrix(1.3333333,0,0,-1.3333333,242.69867,161.78133)" />
    <path
       id="path12"
       d="M 53.91931,17.5195 0,56.69464"
       style="fill:none;stroke:#929293;stroke-width:0.3985;stroke-linecap:butt;stroke-linejoin:miter;stroke-miterlimit:10;stroke-dasharray:none;stroke-opacity:1"
       transform="matrix(1.3333333,0,0,-1.3333333,242.69867,161.78133)" />
    <path
       id="path13"
       d="M 67.39914,21.89938 5e-5,70.8681"
       style="fill:none;stroke:#929293;stroke-width:0.3985;stroke-linecap:butt;stroke-linejoin:miter;stroke-miterlimit:10;stroke-dasharray:none;stroke-opacity:1"
       transform="matrix(1.3333333,0,0,-1.3333333,242.69867,161.78133)" />
    <path
       id="path14"
       d="M 0,0 V 82.65096"
       style="fill:none;stroke:#ffffff;stroke-width:0.3985;stroke-linecap:butt;stroke-linejoin:miter;stroke-miterlimit:10;stroke-dasharray:none;stroke-opacity:1"
       transform="matrix(1.3333333,0,0,-1.3333333,242.69867,161.78133)" />
    <path
       id="path15"
       d="m 2.39102,0 c -0.99626,0.19925 -2.78952,0.59775 -3.98503,1.49438 0.99626,-1.09588 0.99626,-1.89288 0,-2.98876 C -0.3985,-0.59775 1.39476,-0.19925 2.39102,0 Z"
       style="fill:#ffffff;fill-opacity:1;fill-rule:nonzero;stroke:none"
       transform="matrix(0,-1.3333333,-1.3333333,0,242.69867,51.580053)" />
    <path
       id="path16"
       d="M 1.7935313,-0.77702484 V -7.2197592 H 0.8443125 V -7.171875e-5 H 5.227125 V -0.77702484 Z M 7.5415781,-7.2197592 H 6.3111094 V -7.171875e-5 H 7.2603281 V -2.8090561 L 7.1665781,-5.8331967 9.5337656,-7.171875e-5 H 10.260328 L 12.627516,-5.857103 12.533766,-2.8090561 V -7.171875e-5 h 0.960937 V -7.2197592 h -1.242187 l -2.3554691,5.8928906 z m 9.7617189,4.0042969 c 0.65625,0.19125 1.101562,0.3825 1.347656,0.57375 0.234375,0.19125 0.375,0.4661718 0.375,0.8247656 0,0.3585937 -0.140625,0.6335156 -0.410156,0.83671873 -0.269531,0.20320313 -0.644531,0.29882813 -1.148438,0.29882813 -0.539062,0 -0.960937,-0.11953125 -1.289062,-0.37054686 -0.328125,-0.2629688 -0.492188,-0.6096094 -0.492188,-1.0399219 h -0.949218 c 0,0.4303125 0.105468,0.8008594 0.339843,1.12359376 0.234375,0.3346875 0.574219,0.59765625 0.996094,0.78890625 0.433594,0.19125 0.902344,0.286875 1.394531,0.286875 0.761719,0 1.371094,-0.17929688 1.828125,-0.53789063 0.457032,-0.34664062 0.691407,-0.82476558 0.691407,-1.41046878 0,-0.3585937 -0.09375,-0.6813281 -0.257813,-0.95625 -0.152344,-0.2629687 -0.410156,-0.5020312 -0.75,-0.7052343 -0.339844,-0.2032032 -0.808594,-0.3944532 -1.40625,-0.5617969 -0.597656,-0.1673438 -1.03125,-0.3585938 -1.277344,-0.5617969 -0.246093,-0.2032031 -0.375,-0.4422656 -0.375,-0.7410937 0,-0.3585938 0.140625,-0.6574219 0.398438,-0.860625 0.269531,-0.2032032 0.632812,-0.3107813 1.101562,-0.3107813 0.503907,0 0.890625,0.1314844 1.171875,0.3825 0.28125,0.2510156 0.421875,0.5976563 0.421875,1.0279688 h 0.949219 c 0,-0.3944532 -0.105469,-0.765 -0.316406,-1.1116407 -0.222656,-0.3346875 -0.527344,-0.5976562 -0.914063,-0.7889062 -0.386718,-0.19125 -0.832031,-0.2988281 -1.3125,-0.2988281 -0.738281,0 -1.324218,0.19125 -1.769531,0.5617968 -0.457031,0.3705469 -0.679687,0.8367188 -0.679687,1.4104688 0,0.5139844 0.175781,0.9203906 0.550781,1.2670312 0.363281,0.3466407 0.960937,0.6335157 1.78125,0.8725782 z m 12.292969,-4.0042969 h -0.949219 v 4.8888281 c 0,0.5378906 -0.140625,0.9442969 -0.421875,1.2192188 -0.292969,0.28687496 -0.703125,0.43031246 -1.242188,0.43031246 -0.539062,0 -0.960937,-0.1434375 -1.242187,-0.43031246 -0.28125,-0.2749219 -0.421875,-0.6813282 -0.421875,-1.2192188 v -4.8888281 h -0.949219 v 4.9127344 c 0,0.7530468 0.246094,1.33874996 0.714844,1.76906246 0.46875,0.4303125 1.101562,0.64546875 1.898437,0.64546875 l 0.246094,-0.01195313 c 0.726563,-0.05976562 1.300781,-0.29882812 1.734375,-0.74109375 0.421875,-0.41835933 0.632813,-0.98015623 0.632813,-1.67343753 z m 4.485351,5.7972656 c 0,0.2390625 -0.117187,0.43031251 -0.316406,0.57375001 -0.210938,0.13148437 -0.480469,0.20320312 -0.832031,0.20320312 -0.386719,0 -0.691407,-0.095625 -0.914063,-0.27492187 C 31.784742,-1.1117123 31.667555,-1.3507748 31.655836,-1.6615561 h -0.925781 c 0,0.3346875 0.09375,0.6215625 0.28125,0.89648438 0.1875,0.27492188 0.445312,0.49007813 0.785156,0.64546875 0.328125,0.15539063 0.714844,0.22710938 1.136719,0.22710938 0.609375,0 1.101562,-0.1434375 1.488281,-0.4303125 0.386719,-0.286875 0.574219,-0.669375 0.574219,-1.15945311 0,-0.286875 -0.07031,-0.5259375 -0.199219,-0.7291406 -0.140625,-0.2032032 -0.351563,-0.3825 -0.632813,-0.5259375 -0.28125,-0.1434375 -0.65625,-0.2629688 -1.113281,-0.3585938 -0.457031,-0.1075781 -0.773437,-0.2032031 -0.949219,-0.3227344 -0.1875,-0.1075781 -0.269531,-0.2749218 -0.269531,-0.5020312 0,-0.2390625 0.09375,-0.4303125 0.292969,-0.57375 0.175781,-0.1434375 0.445312,-0.2151563 0.773437,-0.2151563 0.328125,0 0.597657,0.083672 0.808594,0.2749219 0.210938,0.1792969 0.328125,0.4064063 0.328125,0.6454688 h 0.914063 c 0,-0.4900782 -0.199219,-0.8845313 -0.574219,-1.1953125 -0.375,-0.3227344 -0.867188,-0.478125 -1.476563,-0.478125 -0.585937,0 -1.066406,0.1434375 -1.429687,0.4542187 -0.375,0.2988281 -0.5625,0.6813281 -0.5625,1.1116406 0,0.2749219 0.07031,0.5020313 0.199219,0.6813282 0.128906,0.2032031 0.339843,0.3585937 0.609375,0.5020312 0.269531,0.1434375 0.644531,0.2510156 1.101562,0.3585938 0.46875,0.095625 0.796875,0.2151562 0.984375,0.3585937 0.175781,0.1314844 0.28125,0.3346875 0.28125,0.57375 z m 5.422852,1.42242188125 h 0.960937 V -0.08374359 c -0.117187,-0.286875 -0.1875,-0.68132813 -0.1875,-1.17140621 v -2.4742969 c -0.01172,-0.5378906 -0.199219,-0.9682031 -0.539062,-1.2670313 -0.363282,-0.3107812 -0.84375,-0.4661718 -1.453125,-0.4661718 -0.398438,0 -0.761719,0.071719 -1.078125,0.2151562 -0.328125,0.1434375 -0.597657,0.3466406 -0.773438,0.5976563 -0.199219,0.2390625 -0.292969,0.5020312 -0.292969,0.765 h 0.925782 c 0,-0.2271094 0.117187,-0.4303125 0.339843,-0.5976563 0.222657,-0.1553906 0.492188,-0.2390625 0.820313,-0.2390625 0.363281,0 0.65625,0.095625 0.84375,0.286875 0.1875,0.19125 0.28125,0.4422656 0.28125,0.7530469 v 0.4303125 H 38.4615 c -0.773438,0 -1.359375,0.1673437 -1.78125,0.4661719 -0.433594,0.3107812 -0.644531,0.7410937 -0.644531,1.3028906 0,0.4542187 0.164062,0.83671873 0.503906,1.13554686 0.339844,0.31078125 0.773437,0.45421875 1.300781,0.45421875 0.597656,0 1.113281,-0.22710938 1.535156,-0.68132813 0.03516,0.27492188 0.07031,0.46617188 0.128907,0.57375000125 z M 37.981031,-0.70530609 c -0.304687,0 -0.539062,-0.0717188 -0.738281,-0.2390625 -0.1875,-0.16734371 -0.28125,-0.38250001 -0.28125,-0.66937501 0,-0.6574219 0.5625,-0.9921094 1.6875,-0.9921094 h 0.703125 v 1.0996875 c -0.117188,0.2510157 -0.304688,0.4422657 -0.550781,0.58570316 -0.269532,0.1434375 -0.527344,0.21515625 -0.820313,0.21515625 z m 3.512696,-2.03203121 c 0,0.8725781 0.1875,1.5658593 0.574218,2.07984371 0.386719,0.50203125 0.890625,0.765 1.523438,0.765 0.632812,0 1.136719,-0.21515625 1.511719,-0.64546875 v 0.46617187 c 0,0.45421875 -0.140625,0.8128125 -0.386719,1.051875 -0.234375,0.26296877 -0.585938,0.38249997 -1.03125,0.38249997 -0.574219,0 -1.054688,-0.2390625 -1.441406,-0.72914059 L 41.763258,1.1832877 c 0.199219,0.286875 0.480469,0.5259375 0.84375,0.6813281 0.363281,0.1673437 0.75,0.2510156 1.136719,0.2510156 0.691406,0 1.253906,-0.19125 1.664062,-0.5976562 0.398438,-0.3944532 0.609375,-0.94429692 0.609375,-1.64953129 V -5.3670248 h -0.832031 l -0.04687,0.5857031 c -0.363281,-0.4542188 -0.878906,-0.6813281 -1.535156,-0.6813281 -0.644532,0 -1.148438,0.2510156 -1.535157,0.7410937 -0.386718,0.4900781 -0.574218,1.1594531 -0.574218,1.9842188 z m 0.925781,0.1195312 c 0,-0.6813281 0.117187,-1.2072656 0.375,-1.5539062 0.246094,-0.3346875 0.597656,-0.5139844 1.042969,-0.5139844 0.550781,0 0.972656,0.2510156 1.265625,0.765 v 2.4503906 c -0.28125,0.52593751 -0.703125,0.78890626 -1.277344,0.78890626 -0.445313,0 -0.796875,-0.16734375 -1.042969,-0.51398436 -0.246094,-0.3466406 -0.363281,-0.8128125 -0.363281,-1.4224219 z m 7.224609,2.72531251 c 0.890625,0 1.570313,-0.34664063 2.015625,-1.03992188 L 51.108961,-1.3746811 c -0.175781,0.2271094 -0.386719,0.39445313 -0.609375,0.52593751 -0.222656,0.13148437 -0.492188,0.20320312 -0.820313,0.20320312 -0.457031,0 -0.832031,-0.16734375 -1.125,-0.49007813 -0.292968,-0.3227344 -0.445312,-0.7530469 -0.457031,-1.2789844 h 3.632813 v -0.3944531 c 0,-0.8486719 -0.199219,-1.4941406 -0.585938,-1.9722656 -0.386719,-0.4542188 -0.9375,-0.6813281 -1.628906,-0.6813281 -0.421875,0 -0.820313,0.1195312 -1.183594,0.3466406 -0.363281,0.2510156 -0.65625,0.57375 -0.855469,0.9921094 -0.199218,0.4183593 -0.304687,0.8964843 -0.304687,1.4224218 v 0.1553907 c 0,0.8128125 0.222656,1.4582812 0.691406,1.93640621 0.457031,0.478125 1.042969,0.7171875 1.78125,0.7171875 z M 49.515211,-4.709603 c 0.386719,0 0.691406,0.1314844 0.914062,0.3825 0.222657,0.2629688 0.351563,0.6215625 0.375,1.0877344 v 0.071719 h -2.671875 c 0.04687,-0.4900782 0.199219,-0.860625 0.457032,-1.1355469 0.234375,-0.2749219 0.550781,-0.4064063 0.925781,-0.4064065 z m 0,0"
       style="fill:#ffffff;fill-opacity:1;fill-rule:nonzero;stroke:none"
       aria-label="LMSUsage"
       transform="matrix(1.3333333,0,0,1.3071895,207.968,14.004)" />
    <path
       id="path17"
       d="M 0,0 V 0"
       style="fill:none;stroke:#929293;stroke-width:0.3985;stroke-linecap:butt;stroke-linejoin:miter;stroke-miterlimit:10;stroke-dasharray:none;stroke-opacity:1"
       transform="matrix(1.3333333,0,0,-1.3333333,242.69867,161.78133)" />
    <path
       id="path18"
       d="M 5e-5,14.17343 -13.4798,4.3796"
       style="fill:none;stroke:#929293;stroke-width:0.3985;stroke-linecap:butt;stroke-linejoin:miter;stroke-miterlimit:10;stroke-dasharray:none;stroke-opacity:1"
       transform="matrix(1.3333333,0,0,-1.3333333,242.69867,161.78133)" />
    <path
       id="path19"
       d="M 0,28.34732 -26.95975,8.75961"
       style="fill:none;stroke:#929293;stroke-width:0.3985;stroke-linecap:butt;stroke-linejoin:miter;stroke-miterlimit:10;stroke-dasharray:none;stroke-opacity:1"
       transform="matrix(1.3333333,0,0,-1.3333333,242.69867,161.78133)" />
    <path
       id="path20"
       d="M 5e-5,42.52078 -40.43954,13.13922"
       style="fill:none;stroke:#929293;stroke-width:0.3985;stroke-linecap:butt;stroke-linejoin:miter;stroke-miterlimit:10;stroke-dasharray:none;stroke-opacity:1"
       transform="matrix(1.3333333,0,0,-1.3333333,242.69867,161.78133)" />
    <path
       id="path21"
       d="M 0,56.69464 -53.91953,17.51924"
       style="fill:none;stroke:#929293;stroke-width:0.3985;stroke-linecap:butt;stroke-linejoin:miter;stroke-miterlimit:10;stroke-dasharray:none;stroke-opacity:1"
       transform="matrix(1.3333333,0,0,-1.3333333,242.69867,161.78133)" />
    <path
       id="path22"
       d="M 5e-5,70.8681 -67.39935,21.89883"
       style="fill:none;stroke:#929293;stroke-width:0.3985;stroke-linecap:butt;stroke-linejoin:miter;stroke-miterlimit:10;stroke-dasharray:none;stroke-opacity:1"
       transform="matrix(1.3333333,0,0,-1.3333333,242.69867,161.78133)" />
    <path
       id="path23"
       d="M 0,0 -78.60532,25.54001"
       style="fill:none;stroke:#ffffff;stroke-width:0.3985;stroke-linecap:butt;stroke-linejoin:miter;stroke-miterlimit:10;stroke-dasharray:none;stroke-opacity:1"
       transform="matrix(1.3333333,0,0,-1.3333333,242.69867,161.78133)" />
    <path
       id="path24"
       d="m 2.39102,0 c -0.99626,0.19925 -2.78952,0.59775 -3.98503,1.49438 0.99626,-1.09588 0.99626,-1.89288 0,-2.98876 C -0.3985,-0.59775 1.39476,-0.19925 2.39102,0 Z"
       style="fill:#ffffff;fill-opacity:1;fill-rule:nonzero;stroke:none"
       transform="matrix(-1.2680667,-0.412,-0.412,1.2680667,137.8916,127.72799)" />
    <path
       id="path25"
       d="m 2.9635156,-3.2146256 c 0.65625,0.19125 1.1015625,0.3825 1.3476563,0.57375 0.234375,0.19125 0.375,0.4661719 0.375,0.8247656 0,0.3585938 -0.140625,0.6335156 -0.4101563,0.83671875 -0.2695312,0.20320313 -0.6445312,0.29882813 -1.1484375,0.29882813 -0.5390625,0 -0.9609375,-0.11953125 -1.2890625,-0.37054688 C 1.5103906,-1.3140787 1.3463281,-1.6607194 1.3463281,-2.0910319 H 0.39710937 c 0,0.4303125 0.10546875,0.8008594 0.33984375,1.12359378 0.234375,0.3346875 0.57421878,0.59765625 0.99609378,0.78890625 0.4335937,0.19125 0.9023437,0.286875 1.3945312,0.286875 0.7617188,0 1.3710938,-0.17929688 1.828125,-0.53789063 0.4570313,-0.34664062 0.6914063,-0.8247656 0.6914063,-1.4104687 0,-0.3585938 -0.09375,-0.6813282 -0.2578125,-0.95625 -0.1523438,-0.2629688 -0.4101563,-0.5020313 -0.75,-0.7052344 -0.3398438,-0.2032031 -0.8085938,-0.3944531 -1.40625,-0.5617969 -0.5976563,-0.1673437 -1.03125,-0.3585937 -1.2773438,-0.5617969 -0.2460937,-0.2032031 -0.375,-0.4422656 -0.375,-0.7410937 0,-0.3585938 0.140625,-0.6574219 0.3984375,-0.860625 0.2695313,-0.2032031 0.6328125,-0.3107813 1.1015625,-0.3107813 0.5039063,0 0.890625,0.1314844 1.171875,0.3825 0.28125,0.2510157 0.421875,0.5976563 0.421875,1.0279688 h 0.9492188 c 0,-0.3944531 -0.1054688,-0.765 -0.3164063,-1.1116406 -0.2226562,-0.3346875 -0.5273437,-0.5976563 -0.9140625,-0.7889063 -0.3867187,-0.19125 -0.8320312,-0.2988281 -1.3125,-0.2988281 -0.7382812,0 -1.3242187,0.19125 -1.7695312,0.5617969 -0.45703128,0.3705468 -0.67968753,0.8367187 -0.67968753,1.4104687 0,0.5139844 0.17578125,0.9203906 0.55078123,1.2670313 0.3632813,0.3466406 0.9609375,0.6335156 1.78125,0.8725781 z M 8.4742578,-1.337985 7.1383203,-5.3661881 H 6.1422266 L 8.0523828,-0.05900062 7.8414453,0.49084313 C 7.7359766,0.82553063 7.5953516,1.05264 7.4195703,1.1841244 7.2320703,1.3036556 6.9859766,1.3634213 6.6812891,1.3634213 L 6.4469141,1.339515 v 0.7530469 l 0.3398437,0.059766 0.1757813,0.011953 c 0.7265625,0.011953 1.2539062,-0.4303125 1.59375,-1.32679685 L 10.712539,-5.3661881 H 9.7281641 Z m 6.1787112,-0.083672 c 0,0.2390625 -0.117188,0.43031253 -0.316407,0.57375003 -0.210937,0.13148437 -0.480468,0.20320312 -0.832031,0.20320312 -0.386719,0 -0.691406,-0.095625 -0.914062,-0.27492187 C 12.356094,-1.1108756 12.238906,-1.3499381 12.227187,-1.6607194 h -0.925781 c 0,0.3346875 0.09375,0.6215625 0.28125,0.8964844 0.1875,0.27492188 0.445313,0.49007813 0.785156,0.64546875 0.328125,0.15539063 0.714844,0.22710938 1.136719,0.22710938 0.609375,0 1.101563,-0.1434375 1.488281,-0.4303125 0.386719,-0.286875 0.574219,-0.669375 0.574219,-1.15945313 0,-0.286875 -0.07031,-0.5259375 -0.199219,-0.7291406 C 15.227187,-2.4137662 15.01625,-2.5930631 14.735,-2.7365006 14.45375,-2.8799381 14.07875,-2.9994694 13.621719,-3.0950944 13.164687,-3.2026725 12.848281,-3.2982975 12.6725,-3.4178287 12.485,-3.5254069 12.402969,-3.6927506 12.402969,-3.91986 c 0,-0.2390625 0.09375,-0.4303125 0.292968,-0.57375 0.175782,-0.1434375 0.445313,-0.2151562 0.773438,-0.2151562 0.328125,0 0.597656,0.083672 0.808594,0.2749218 0.210937,0.1792969 0.328125,0.4064063 0.328125,0.6454688 h 0.914062 c 0,-0.4900781 -0.199219,-0.8845313 -0.574219,-1.1953125 -0.375,-0.3227344 -0.867187,-0.478125 -1.476562,-0.478125 -0.585938,0 -1.066406,0.1434375 -1.429688,0.4542187 -0.375,0.2988282 -0.5625,0.6813282 -0.5625,1.1116407 0,0.2749218 0.07031,0.5020312 0.199219,0.6813281 0.128906,0.2032031 0.339844,0.3585937 0.609375,0.5020312 0.269531,0.1434375 0.644531,0.2510157 1.101563,0.3585938 0.46875,0.095625 0.796875,0.2151562 0.984375,0.3585937 0.175781,0.1314844 0.28125,0.3346875 0.28125,0.5737499 z m 3.357422,-5.2474218 h -0.914063 v 1.3028906 h -0.996094 v 0.7171875 h 0.996094 v 3.3229687 c 0,0.4661719 0.09375,0.81281253 0.304688,1.06382815 0.199218,0.2390625 0.515625,0.37054688 0.925781,0.37054688 0.222656,0 0.457031,-0.03585938 0.703125,-0.10757813 v -0.74109375 c -0.175781,0.0358594 -0.328125,0.0597656 -0.433594,0.0597656 -0.222656,0 -0.375,-0.0478125 -0.457031,-0.16734375 -0.09375,-0.095625 -0.128906,-0.2629687 -0.128906,-0.478125 v -3.3229687 h 0.996093 v -0.7171875 h -0.996093 z m 4.297851,6.77742183 c 0.890625,0 1.570313,-0.34664063 2.015625,-1.03992188 L 23.773086,-1.3738444 c -0.175781,0.2271094 -0.386719,0.39445315 -0.609375,0.52593753 -0.222656,0.13148437 -0.492188,0.20320312 -0.820313,0.20320312 -0.457031,0 -0.832031,-0.16734375 -1.125,-0.49007815 -0.292968,-0.3227343 -0.445312,-0.7530468 -0.457031,-1.2789843 h 3.632813 v -0.3944532 c 0,-0.8486718 -0.199219,-1.4941406 -0.585938,-1.9722656 -0.386719,-0.4542187 -0.9375,-0.6813281 -1.628906,-0.6813281 -0.421875,0 -0.820313,0.1195312 -1.183594,0.3466406 -0.363281,0.2510156 -0.65625,0.57375 -0.855469,0.9921094 -0.199218,0.4183594 -0.304687,0.8964844 -0.304687,1.4224219 v 0.1553906 c 0,0.8128125 0.222656,1.4582812 0.691406,1.93640623 0.457031,0.478125 1.042969,0.7171875 1.78125,0.7171874 z M 22.179336,-4.7087662 c 0.386719,0 0.691406,0.1314843 0.914062,0.3825 0.222657,0.2629687 0.351563,0.6215625 0.375,1.0877343 v 0.071719 h -2.671875 c 0.04687,-0.4900781 0.199219,-0.860625 0.457032,-1.1355469 0.234375,-0.2749219 0.550781,-0.4064062 0.925781,-0.4064064 z m 4.133789,-0.6574219 H 25.445937 V 7.65e-4 H 26.36 V -3.91986 c 0.222656,-0.5139844 0.632812,-0.765 1.242187,-0.765 0.761719,0 1.148438,0.3944531 1.148438,1.1714063 V 7.65e-4 h 0.914062 v -3.5620312 c 0.03516,-0.3346875 0.175782,-0.6096094 0.398438,-0.8128125 0.222656,-0.2032032 0.492187,-0.3107813 0.84375,-0.3107813 0.410156,0 0.703125,0.1075781 0.878906,0.286875 0.175781,0.1792969 0.269531,0.4661719 0.269531,0.8486719 V 7.65e-4 h 0.914063 v -3.5978906 c -0.01172,-1.243125 -0.609375,-1.8646875 -1.792969,-1.8646875 -0.398437,0 -0.738281,0.071719 -1.03125,0.2390625 -0.28125,0.1673437 -0.515625,0.3705469 -0.691406,0.6215625 -0.269531,-0.57375 -0.773438,-0.860625 -1.523438,-0.860625 -0.679687,0 -1.207031,0.2271094 -1.59375,0.6813281 z M 40.976211,7.65e-4 h 0.960937 v -0.08367187 c -0.117187,-0.286875 -0.1875,-0.68132813 -0.1875,-1.17140623 V -3.72861 c -0.01172,-0.5378906 -0.199218,-0.9682031 -0.539062,-1.2670312 -0.363281,-0.3107813 -0.84375,-0.4661719 -1.453125,-0.4661719 -0.398438,0 -0.761719,0.071719 -1.078125,0.2151562 -0.328125,0.1434375 -0.597656,0.3466407 -0.773438,0.5976563 -0.199218,0.2390625 -0.292968,0.5020312 -0.292968,0.765 h 0.925781 c 0,-0.2271094 0.117187,-0.4303125 0.339844,-0.5976563 0.222656,-0.1553906 0.492187,-0.2390625 0.820312,-0.2390625 0.363281,0 0.65625,0.095625 0.84375,0.286875 0.1875,0.19125 0.28125,0.4422657 0.28125,0.7530469 v 0.4303125 h -0.890625 c -0.773437,0 -1.359375,0.1673438 -1.78125,0.4661719 -0.433594,0.3107812 -0.644531,0.7410937 -0.644531,1.3028906 0,0.4542188 0.164062,0.83671875 0.503906,1.13554688 0.339844,0.31078125 0.773438,0.45421875 1.300781,0.45421875 0.597657,0 1.113282,-0.22710938 1.535157,-0.68132813 0.03516,0.27492188 0.07031,0.46617188 0.128906,0.57375 z m -1.523438,-0.70523437 c -0.304687,0 -0.539062,-0.0717188 -0.738281,-0.2390625 -0.1875,-0.16734373 -0.28125,-0.38250003 -0.28125,-0.66937503 0,-0.6574218 0.5625,-0.9921093 1.6875,-0.9921093 h 0.703125 v 1.0996875 c -0.117187,0.2510156 -0.304687,0.4422656 -0.550781,0.58570308 -0.269531,0.1434375 -0.527344,0.21515625 -0.820313,0.21515625 z M 42.95668,-2.7365006 v 0.071719 c 0,0.8247657 0.1875,1.4941407 0.585937,2.00812503 0.386719,0.50203125 0.890625,0.765 1.523438,0.765 0.65625,0 1.171875,-0.2390625 1.535156,-0.68132813 l 0.04687,0.57375 h 0.84375 v -7.6260937 h -0.914063 v 2.7970312 c -0.375,-0.4183594 -0.867187,-0.6335156 -1.5,-0.6335156 -0.632812,0 -1.148437,0.2510156 -1.535156,0.7530469 -0.398437,0.4900781 -0.585937,1.1475 -0.585937,1.9722656 z m 0.925781,0.1195312 c 0,-0.6813281 0.117187,-1.2072656 0.375,-1.5539062 0.246094,-0.3346875 0.597656,-0.5139844 1.042969,-0.5139844 0.574218,0 0.984375,0.2510156 1.277343,0.7530469 v 2.4742969 c -0.28125,0.52593745 -0.703125,0.77695308 -1.289062,0.77695308 -0.445313,0 -0.785156,-0.16734375 -1.03125,-0.50203128 -0.257813,-0.3466406 -0.375,-0.8247656 -0.375,-1.434375 z m 5.882812,-2.7492187 H 48.898086 V 7.65e-4 h 0.914062 V -3.91986 c 0.222657,-0.5139844 0.632813,-0.765 1.242188,-0.765 0.761719,0 1.148437,0.3944531 1.148437,1.1714063 V 7.65e-4 h 0.914063 v -3.5620312 c 0.03516,-0.3346875 0.175781,-0.6096094 0.398437,-0.8128125 0.222657,-0.2032032 0.492188,-0.3107813 0.84375,-0.3107813 0.410157,0 0.703125,0.1075781 0.878907,0.286875 0.175781,0.1792969 0.269531,0.4661719 0.269531,0.8486719 V 7.65e-4 h 0.914062 v -3.5978906 c -0.01172,-1.243125 -0.609375,-1.8646875 -1.792968,-1.8646875 -0.398438,0 -0.738282,0.071719 -1.03125,0.2390625 -0.28125,0.1673437 -0.515625,0.3705469 -0.691407,0.6215625 -0.269531,-0.57375 -0.773437,-0.860625 -1.523437,-0.860625 -0.679688,0 -1.207031,0.2271094 -1.59375,0.6813281 z M 58.809219,7.65e-4 V -5.3661881 H 57.883437 V 7.65e-4 Z M 57.813125,-6.78861 c 0,0.1553906 0.03516,0.2749219 0.128906,0.3825 0.09375,0.095625 0.222656,0.1434375 0.410156,0.1434375 0.175782,0 0.304688,-0.047813 0.398438,-0.1434375 0.09375,-0.1075781 0.152344,-0.2271094 0.152344,-0.3825 0,-0.1434375 -0.05859,-0.2749219 -0.152344,-0.3705469 -0.09375,-0.1075781 -0.222656,-0.1673437 -0.398438,-0.1673437 -0.1875,0 -0.316406,0.059766 -0.410156,0.1673437 -0.09375,0.095625 -0.128906,0.2271094 -0.128906,0.3705469 z m 3.325195,1.4224219 H 60.259414 V 7.65e-4 h 0.925781 v -3.825 c 0.117188,-0.2629687 0.292969,-0.4661719 0.515625,-0.6215625 0.222657,-0.1553906 0.492188,-0.2390625 0.796875,-0.2390625 0.363282,0 0.621094,0.095625 0.808594,0.2749219 0.175781,0.1792969 0.269531,0.4661719 0.269531,0.8486719 V 7.65e-4 h 0.914063 v -3.5500781 c -0.02344,-1.2789844 -0.597656,-1.9125 -1.722656,-1.9125 -0.65625,0 -1.195313,0.2629687 -1.605469,0.765 z M 66.868789,7.65e-4 V -5.3661881 H 65.943008 V 7.65e-4 Z M 65.872695,-6.78861 c 0,0.1553906 0.03516,0.2749219 0.128907,0.3825 0.09375,0.095625 0.222656,0.1434375 0.410156,0.1434375 0.175781,0 0.304687,-0.047813 0.398437,-0.1434375 0.09375,-0.1075781 0.152344,-0.2271094 0.152344,-0.3825 0,-0.1434375 -0.05859,-0.2749219 -0.152344,-0.3705469 -0.09375,-0.1075781 -0.222656,-0.1673437 -0.398437,-0.1673437 -0.1875,0 -0.316406,0.059766 -0.410156,0.1673437 -0.09375,0.095625 -0.128907,0.2271094 -0.128907,0.3705469 z m 5.575196,5.3669531 c 0,0.2390625 -0.117188,0.43031253 -0.316407,0.57375003 -0.210937,0.13148437 -0.480468,0.20320312 -0.832031,0.20320312 -0.386719,0 -0.691406,-0.095625 -0.914062,-0.27492187 C 69.151016,-1.1108756 69.033828,-1.3499381 69.022109,-1.6607194 h -0.925781 c 0,0.3346875 0.09375,0.6215625 0.28125,0.8964844 0.1875,0.27492188 0.445313,0.49007813 0.785156,0.64546875 0.328125,0.15539063 0.714844,0.22710938 1.136719,0.22710938 0.609375,0 1.101563,-0.1434375 1.488281,-0.4303125 0.386719,-0.286875 0.574219,-0.669375 0.574219,-1.15945313 0,-0.286875 -0.07031,-0.5259375 -0.199219,-0.7291406 -0.140625,-0.2032031 -0.351562,-0.3825 -0.632812,-0.5259375 -0.28125,-0.1434375 -0.65625,-0.2629688 -1.113281,-0.3585938 -0.457032,-0.1075781 -0.773438,-0.2032031 -0.949219,-0.3227343 -0.1875,-0.1075782 -0.269531,-0.2749219 -0.269531,-0.5020313 0,-0.2390625 0.09375,-0.4303125 0.292968,-0.57375 0.175782,-0.1434375 0.445313,-0.2151562 0.773438,-0.2151562 0.328125,0 0.597656,0.083672 0.808594,0.2749218 0.210937,0.1792969 0.328125,0.4064063 0.328125,0.6454688 h 0.914062 c 0,-0.4900781 -0.199219,-0.8845313 -0.574219,-1.1953125 -0.375,-0.3227344 -0.867187,-0.478125 -1.476562,-0.478125 -0.585938,0 -1.066406,0.1434375 -1.429688,0.4542187 -0.375,0.2988282 -0.5625,0.6813282 -0.5625,1.1116407 0,0.2749218 0.07031,0.5020312 0.199219,0.6813281 0.128906,0.2032031 0.339844,0.3585937 0.609375,0.5020312 0.269531,0.1434375 0.644531,0.2510157 1.101563,0.3585938 0.46875,0.095625 0.796875,0.2151562 0.984375,0.3585937 0.175781,0.1314844 0.28125,0.3346875 0.28125,0.57375 z m 3.357421,-5.2474218 H 73.89125 v 1.3028906 h -0.996094 v 0.7171875 h 0.996094 v 3.3229687 c 0,0.4661719 0.09375,0.81281253 0.304687,1.06382815 0.199219,0.2390625 0.515625,0.37054688 0.925782,0.37054688 0.222656,0 0.457031,-0.03585938 0.703125,-0.10757813 v -0.74109375 c -0.175782,0.0358594 -0.328125,0.0597656 -0.433594,0.0597656 -0.222656,0 -0.375,-0.0478125 -0.457031,-0.16734375 -0.09375,-0.095625 -0.128907,-0.2629687 -0.128907,-0.478125 v -3.3229687 h 0.996094 v -0.7171875 h -0.996094 z m 4.661133,2.1276562 v -0.8486719 c -0.105468,-0.047813 -0.234375,-0.071719 -0.410156,-0.071719 -0.550781,0 -0.984375,0.2390625 -1.277344,0.7171875 l -0.02344,-0.6215625 H 76.864883 V 7.65e-4 h 0.925781 v -3.8130469 c 0.199219,-0.5020312 0.609375,-0.765 1.21875,-0.765 0.164063,0 0.316406,0.011953 0.457031,0.035859 z M 83.424453,7.65e-4 h 0.960938 v -0.08367187 c -0.117188,-0.286875 -0.1875,-0.68132813 -0.1875,-1.17140623 V -3.72861 c -0.01172,-0.5378906 -0.199219,-0.9682031 -0.539063,-1.2670312 -0.363281,-0.3107813 -0.84375,-0.4661719 -1.453125,-0.4661719 -0.398437,0 -0.761719,0.071719 -1.078125,0.2151562 -0.328125,0.1434375 -0.597656,0.3466407 -0.773437,0.5976563 -0.199219,0.2390625 -0.292969,0.5020312 -0.292969,0.765 h 0.925781 c 0,-0.2271094 0.117188,-0.4303125 0.339844,-0.5976563 0.222656,-0.1553906 0.492187,-0.2390625 0.820312,-0.2390625 0.363282,0 0.65625,0.095625 0.84375,0.286875 0.1875,0.19125 0.28125,0.4422657 0.28125,0.7530469 v 0.4303125 h -0.890625 c -0.773437,0 -1.359375,0.1673438 -1.78125,0.4661719 -0.433593,0.3107812 -0.644531,0.7410937 -0.644531,1.3028906 0,0.4542188 0.164063,0.83671875 0.503906,1.13554688 0.339844,0.31078125 0.773438,0.45421875 1.300782,0.45421875 0.597656,0 1.113281,-0.22710938 1.535156,-0.68132813 0.03516,0.27492188 0.07031,0.46617188 0.128906,0.57375 z m -1.523437,-0.70523437 c -0.304688,0 -0.539063,-0.0717188 -0.738282,-0.2390625 -0.1875,-0.16734373 -0.28125,-0.38250003 -0.28125,-0.66937503 0,-0.6574218 0.5625,-0.9921093 1.6875,-0.9921093 h 0.703125 v 1.0996875 c -0.117187,0.2510156 -0.304687,0.4422656 -0.550781,0.58570308 -0.269531,0.1434375 -0.527344,0.21515625 -0.820312,0.21515625 z m 4.977539,-5.96460933 h -0.914063 v 1.3028906 h -0.996094 v 0.7171875 h 0.996094 v 3.3229687 c 0,0.4661719 0.09375,0.81281253 0.304688,1.06382815 0.199218,0.2390625 0.515625,0.37054688 0.925781,0.37054688 0.222656,0 0.457031,-0.03585938 0.703125,-0.10757813 v -0.74109375 c -0.175781,0.0358594 -0.328125,0.0597656 -0.433594,0.0597656 -0.222656,0 -0.375,-0.0478125 -0.457031,-0.16734375 -0.09375,-0.095625 -0.128906,-0.2629687 -0.128906,-0.478125 v -3.3229687 h 0.996093 V -5.3661881 H 86.878555 Z M 89.945937,7.65e-4 V -5.3661881 H 89.020156 V 7.65e-4 Z M 88.949844,-6.78861 c 0,0.1553906 0.03516,0.2749219 0.128906,0.3825 0.09375,0.095625 0.222656,0.1434375 0.410156,0.1434375 0.175781,0 0.304688,-0.047813 0.398438,-0.1434375 0.09375,-0.1075781 0.152343,-0.2271094 0.152343,-0.3825 0,-0.1434375 -0.05859,-0.2749219 -0.152343,-0.3705469 -0.09375,-0.1075781 -0.222657,-0.1673437 -0.398438,-0.1673437 -0.1875,0 -0.316406,0.059766 -0.410156,0.1673437 -0.09375,0.095625 -0.128906,0.2271094 -0.128906,0.3705469 z m 2.200195,4.0521094 v 0.059766 c 0,0.8367188 0.222656,1.5060938 0.679688,2.02007813 0.445312,0.50203125 1.042968,0.765 1.769531,0.765 0.480469,0 0.902344,-0.11953125 1.277344,-0.34664063 0.375,-0.2390625 0.65625,-0.56179687 0.855468,-0.9801562 0.210938,-0.4064063 0.304688,-0.8725782 0.304688,-1.3985157 v -0.071719 c 0,-0.8367188 -0.234375,-1.5060938 -0.679688,-2.0200781 -0.445312,-0.5020313 -1.03125,-0.7530469 -1.769531,-0.7530469 -0.480469,0 -0.902344,0.1195312 -1.265625,0.3466406 -0.363281,0.2151563 -0.667969,0.5378906 -0.867187,0.95625 -0.199219,0.4303125 -0.304688,0.8964844 -0.304688,1.4224218 z m 0.925781,0.1195312 c 0,-0.669375 0.128907,-1.1833593 0.421875,-1.5539062 0.269532,-0.3585938 0.632813,-0.5378906 1.089844,-0.5378906 0.46875,0 0.832031,0.1792968 1.125,0.5378906 0.269531,0.3705469 0.410156,0.8486719 0.410156,1.434375 0,0.669375 -0.140625,1.1714062 -0.410156,1.5419531 -0.28125,0.35859375 -0.644531,0.54984375 -1.113281,0.54984375 -0.46875,0 -0.832031,-0.17929687 -1.101563,-0.53789065 -0.292968,-0.3585937 -0.421875,-0.8367187 -0.421875,-1.434375 z m 5.991211,-2.7492187 H 97.188125 V 7.65e-4 h 0.925781 v -3.825 c 0.117188,-0.2629687 0.292969,-0.4661719 0.515625,-0.6215625 0.222656,-0.1553906 0.492188,-0.2390625 0.796875,-0.2390625 0.363281,0 0.621094,0.095625 0.808594,0.2749219 0.17578,0.1792969 0.26953,0.4661719 0.26953,0.8486719 V 7.65e-4 h 0.91406 v -3.5500781 c -0.0234,-1.2789844 -0.59765,-1.9125 -1.722653,-1.9125 -0.65625,0 -1.195312,0.2629687 -1.605468,0.765 z m 0,0"
       style="fill:#ffffff;fill-opacity:1;fill-rule:nonzero;stroke:none"
       aria-label="Systemadministration"
       transform="matrix(1.3333333,0,0,1.3071895,30.853333,118.624)" />
    <path
       id="path26"
       d="M 0,0 V 0"
       style="fill:none;stroke:#929293;stroke-width:0.3985;stroke-linecap:butt;stroke-linejoin:miter;stroke-miterlimit:10;stroke-dasharray:none;stroke-opacity:1"
       transform="matrix(1.3333333,0,0,-1.3333333,242.69867,161.78133)" />
    <path
       id="path27"
       d="m -13.4798,4.3796 5.1487,-15.84598"
       style="fill:none;stroke:#929293;stroke-width:0.3985;stroke-linecap:butt;stroke-linejoin:miter;stroke-miterlimit:10;stroke-dasharray:none;stroke-opacity:1"
       transform="matrix(1.3333333,0,0,-1.3333333,242.69867,161.78133)" />
    <path
       id="path28"
       d="m -26.95975,8.75961 10.29767,-31.69285"
       style="fill:none;stroke:#929293;stroke-width:0.3985;stroke-linecap:butt;stroke-linejoin:miter;stroke-miterlimit:10;stroke-dasharray:none;stroke-opacity:1"
       transform="matrix(1.3333333,0,0,-1.3333333,242.69867,161.78133)" />
    <path
       id="path29"
       d="m -40.43954,13.13922 15.44636,-47.53889"
       style="fill:none;stroke:#929293;stroke-width:0.3985;stroke-linecap:butt;stroke-linejoin:miter;stroke-miterlimit:10;stroke-dasharray:none;stroke-opacity:1"
       transform="matrix(1.3333333,0,0,-1.3333333,242.69867,161.78133)" />
    <path
       id="path30"
       d="m -53.91953,17.51924 20.59537,-63.38576"
       style="fill:none;stroke:#929293;stroke-width:0.3985;stroke-linecap:butt;stroke-linejoin:miter;stroke-miterlimit:10;stroke-dasharray:none;stroke-opacity:1"
       transform="matrix(1.3333333,0,0,-1.3333333,242.69867,161.78133)" />
    <path
       id="path31"
       d="m -67.39935,21.89883 25.74406,-79.23181"
       style="fill:none;stroke:#929293;stroke-width:0.3985;stroke-linecap:butt;stroke-linejoin:miter;stroke-miterlimit:10;stroke-dasharray:none;stroke-opacity:1"
       transform="matrix(1.3333333,0,0,-1.3333333,242.69867,161.78133)" />
    <path
       id="path32"
       d="M 0,0 -48.58086,-66.86546"
       style="fill:none;stroke:#ffffff;stroke-width:0.3985;stroke-linecap:butt;stroke-linejoin:miter;stroke-miterlimit:10;stroke-dasharray:none;stroke-opacity:1"
       transform="matrix(1.3333333,0,0,-1.3333333,242.69867,161.78133)" />
    <path
       id="path33"
       d="m 2.39102,0 c -0.99626,0.19925 -2.78952,0.59775 -3.98503,1.49438 0.99626,-1.09588 0.99626,-1.89288 0,-2.98876 C -0.3985,-0.59775 1.39476,-0.19925 2.39102,0 Z"
       style="fill:#ffffff;fill-opacity:1;fill-rule:nonzero;stroke:none"
       transform="matrix(-0.78370667,1.0786667,1.0786667,0.78370667,177.92421,250.93528)" />
    <path
       id="path34"
       d="M 1.8618281,-2.3109375e-4 V -7.2199186 H 0.90089062 V -2.3109375e-4 Z M 8.4477656,-6.4429655 V -7.2199186 H 2.8579219 v 0.7769531 H 5.1665156 V -2.3109375e-4 H 6.1157344 V -6.4429655 Z m 6.3046874,3.2273438 c 0.65625,0.19125 1.101563,0.3825 1.347656,0.57375 0.234375,0.19125 0.375,0.4661719 0.375,0.8247656 0,0.3585938 -0.140625,0.6335156 -0.410156,0.83671876 -0.269531,0.20320312 -0.644531,0.29882812 -1.148437,0.29882812 -0.539063,0 -0.960938,-0.11953125 -1.289063,-0.37054688 -0.328125,-0.2629687 -0.492187,-0.6096094 -0.492187,-1.0399219 h -0.949219 c 0,0.4303125 0.105469,0.8008594 0.339844,1.12359378 0.234375,0.3346875 0.574218,0.59765625 0.996093,0.78890625 0.433594,0.19125 0.902344,0.286875 1.394532,0.286875 0.761718,0 1.371093,-0.17929687 1.828125,-0.53789062 0.457031,-0.34664063 0.691406,-0.82476561 0.691406,-1.41046871 0,-0.3585938 -0.09375,-0.6813282 -0.257813,-0.95625 -0.152343,-0.2629688 -0.410156,-0.5020313 -0.75,-0.7052344 -0.339843,-0.2032031 -0.808593,-0.3944531 -1.40625,-0.5617969 -0.597656,-0.1673437 -1.03125,-0.3585937 -1.277343,-0.5617969 -0.246094,-0.2032031 -0.375,-0.4422656 -0.375,-0.7410937 0,-0.3585938 0.140625,-0.6574219 0.398437,-0.860625 0.269531,-0.2032031 0.632813,-0.3107813 1.101563,-0.3107813 0.503906,0 0.890625,0.1314844 1.171875,0.3825 0.28125,0.2510157 0.421875,0.5976563 0.421875,1.0279688 h 0.949218 c 0,-0.3944531 -0.105468,-0.765 -0.316406,-1.1116406 -0.222656,-0.3346875 -0.527344,-0.5976563 -0.914062,-0.7889063 -0.386719,-0.19125 -0.832032,-0.2988281 -1.3125,-0.2988281 -0.738282,0 -1.324219,0.19125 -1.769532,0.5617969 -0.457031,0.3705468 -0.679687,0.8367187 -0.679687,1.4104687 0,0.5139844 0.175781,0.9203906 0.550781,1.2670313 0.363281,0.3466406 0.960938,0.6335156 1.78125,0.8725781 z m 5.991211,3.32296873 c 0.890625,0 1.570313,-0.34664062 2.015625,-1.03992187 L 22.208508,-1.3748405 c -0.175781,0.2271094 -0.386719,0.39445316 -0.609375,0.52593753 -0.222656,0.13148438 -0.492188,0.20320313 -0.820313,0.20320313 -0.457031,0 -0.832031,-0.16734375 -1.125,-0.49007816 -0.292968,-0.3227343 -0.445312,-0.7530468 -0.457031,-1.2789843 h 3.632813 v -0.3944532 c 0,-0.8486718 -0.199219,-1.4941406 -0.585938,-1.9722656 -0.386719,-0.4542187 -0.9375,-0.6813281 -1.628906,-0.6813281 -0.421875,0 -0.820313,0.1195312 -1.183594,0.3466406 -0.363281,0.2510156 -0.65625,0.57375 -0.855469,0.9921094 -0.199218,0.4183594 -0.304687,0.8964844 -0.304687,1.4224219 v 0.1553906 c 0,0.8128125 0.222656,1.4582812 0.691406,1.93640623 0.457031,0.478125 1.042969,0.7171875 1.78125,0.7171875 z M 20.614758,-4.7097623 c 0.386719,0 0.691406,0.1314843 0.914062,0.3825 0.222657,0.2629687 0.351563,0.6215625 0.375,1.0877343 v 0.071719 h -2.671875 c 0.04687,-0.4900781 0.199219,-0.860625 0.457032,-1.1355469 0.234375,-0.2749219 0.550781,-0.4064062 0.925781,-0.4064064 z m 5.422851,4.06406246 c -0.480468,0 -0.84375,-0.16734375 -1.101562,-0.50203126 -0.257813,-0.3346875 -0.375,-0.8128125 -0.375,-1.434375 v -0.1673437 c 0,-0.6335157 0.117187,-1.1235938 0.386719,-1.4582813 0.257812,-0.3346875 0.621093,-0.5020312 1.089843,-0.5020312 0.339844,0 0.632813,0.1075781 0.867188,0.3346875 0.234375,0.2151562 0.375,0.5020312 0.398437,0.8486718 h 0.867188 c -0.03516,-0.57375 -0.246094,-1.0399218 -0.644531,-1.3985156 -0.398438,-0.3585937 -0.890625,-0.5378906 -1.488282,-0.5378906 -0.492187,0 -0.914062,0.1075781 -1.277343,0.3346875 -0.363282,0.2151562 -0.632813,0.5498437 -0.832032,0.95625 -0.1875,0.4064062 -0.28125,0.8725781 -0.28125,1.3865625 v 0.1553906 c 0,0.8486719 0.210938,1.5060938 0.644532,1.99617188 0.421875,0.49007813 1.007812,0.74109375 1.746093,0.74109375 0.363282,0 0.703125,-0.08367187 1.03125,-0.25101562 0.328125,-0.16734375 0.585938,-0.3825 0.785157,-0.669375 0.1875,-0.28687501 0.292968,-0.57375001 0.316406,-0.88453121 h -0.867188 c -0.02344,0.3107812 -0.175781,0.5498437 -0.410156,0.75304683 -0.246094,0.20320313 -0.527344,0.29882813 -0.855469,0.29882813 z m 6.47461,0.11953125 0.01172,0.52593749625 h 0.878907 V -5.3671842 h -0.914063 v 3.9086719 c -0.234375,0.52593746 -0.703125,0.77695308 -1.40625,0.77695308 -0.65625,0 -0.984375,-0.40640628 -0.984375,-1.21921878 v -3.4664062 h -0.925781 v 3.4903125 c 0,0.6574219 0.152344,1.15945311 0.457031,1.48218748 0.304688,0.3346875 0.75,0.50203125 1.3125,0.50203125 0.691406,0 1.207031,-0.21515625 1.570313,-0.63351562 z m 4.883789,-4.01625001 v -0.8486719 c -0.105469,-0.047813 -0.234375,-0.071719 -0.410156,-0.071719 -0.550782,0 -0.984375,0.2390625 -1.277344,0.7171875 l -0.02344,-0.6215625 h -0.890625 v 5.36695310625 h 0.925782 V -3.813278 c 0.199218,-0.5020312 0.609375,-0.765 1.21875,-0.765 0.164062,0 0.316406,0.011953 0.457031,0.035859 z m 1.839844,4.54218750625 V -5.3671842 H 38.31007 V -2.3109375e-4 Z M 38.239758,-6.7896061 c 0,0.1553906 0.03516,0.2749219 0.128906,0.3825 0.09375,0.095625 0.222656,0.1434375 0.410156,0.1434375 0.175782,0 0.304688,-0.047813 0.398438,-0.1434375 0.09375,-0.1075781 0.152344,-0.2271094 0.152344,-0.3825 0,-0.1434375 -0.05859,-0.2749219 -0.152344,-0.3705469 -0.09375,-0.1075781 -0.222656,-0.1673437 -0.398438,-0.1673437 -0.1875,0 -0.316406,0.059766 -0.410156,0.1673437 -0.09375,0.095625 -0.128906,0.2271094 -0.128906,0.3705469 z m 3.703125,0.1195313 H 41.02882 v 1.3028906 h -0.996093 v 0.7171875 h 0.996093 v 3.3229687 c 0,0.46617191 0.09375,0.81281253 0.304688,1.06382816 0.199219,0.2390625 0.515625,0.37054687 0.925781,0.37054687 0.222656,0 0.457031,-0.03585937 0.703125,-0.10757812375 V -0.74132484 c -0.175781,0.0358594 -0.328125,0.0597656 -0.433594,0.0597656 -0.222656,0 -0.375,-0.0478125 -0.457031,-0.16734375 -0.09375,-0.095625 -0.128906,-0.26296871 -0.128906,-0.47812501 v -3.3229687 h 0.996094 v -0.7171875 h -0.996094 z m 3.817383,5.3310937 -1.335938,-4.0282031 h -0.996094 l 1.910157,5.30718748 -0.210938,0.54984375 c -0.105469,0.3346875 -0.246094,0.56179687 -0.421875,0.69328127 -0.1875,0.1195312 -0.433594,0.1792969 -0.738281,0.1792969 l -0.234375,-0.023906 v 0.7530469 l 0.339844,0.059766 0.175781,0.011953 c 0.726562,0.011953 1.253906,-0.4303125 1.59375,-1.32679684 l 2.15625,-6.20367186 h -0.984375 z m 0,0"
       style="fill:#ffffff;fill-opacity:1;fill-rule:nonzero;stroke:none"
       aria-label="ITSecurity"
       transform="matrix(1.3333333,0,0,1.3071895,121.916,287.45733)" />
    <path
       id="path35"
       d="M 0,0 V 0"
       style="fill:none;stroke:#929293;stroke-width:0.3985;stroke-linecap:butt;stroke-linejoin:miter;stroke-miterlimit:10;stroke-dasharray:none;stroke-opacity:1"
       transform="matrix(1.3333333,0,0,-1.3333333,242.69867,161.78133)" />
    <path
       id="path36"
       d="M -8.3311,-11.46638 8.33101,-11.4665"
       style="fill:none;stroke:#929293;stroke-width:0.3985;stroke-linecap:butt;stroke-linejoin:miter;stroke-miterlimit:10;stroke-dasharray:none;stroke-opacity:1"
       transform="matrix(1.3333333,0,0,-1.3333333,242.69867,161.78133)" />
    <path
       id="path37"
       d="m -16.66208,-22.93324 33.32425,-2e-4"
       style="fill:none;stroke:#929293;stroke-width:0.3985;stroke-linecap:butt;stroke-linejoin:miter;stroke-miterlimit:10;stroke-dasharray:none;stroke-opacity:1"
       transform="matrix(1.3333333,0,0,-1.3333333,242.69867,161.78133)" />
    <path
       id="path38"
       d="m -24.99318,-34.39967 49.98638,-2.8e-4"
       style="fill:none;stroke:#929293;stroke-width:0.3985;stroke-linecap:butt;stroke-linejoin:miter;stroke-miterlimit:10;stroke-dasharray:none;stroke-opacity:1"
       transform="matrix(1.3333333,0,0,-1.3333333,242.69867,161.78133)" />
    <path
       id="path39"
       d="m -33.32416,-45.86652 66.64852,-3.6e-4"
       style="fill:none;stroke:#929293;stroke-width:0.3985;stroke-linecap:butt;stroke-linejoin:miter;stroke-miterlimit:10;stroke-dasharray:none;stroke-opacity:1"
       transform="matrix(1.3333333,0,0,-1.3333333,242.69867,161.78133)" />
    <path
       id="path40"
       d="m -41.65529,-57.33298 83.31072,-4.1e-4"
       style="fill:none;stroke:#929293;stroke-width:0.3985;stroke-linecap:butt;stroke-linejoin:miter;stroke-miterlimit:10;stroke-dasharray:none;stroke-opacity:1"
       transform="matrix(1.3333333,0,0,-1.3333333,242.69867,161.78133)" />
    <path
       id="path41"
       d="M 0,0 48.58118,-66.86597"
       style="fill:none;stroke:#ffffff;stroke-width:0.3985;stroke-linecap:butt;stroke-linejoin:miter;stroke-miterlimit:10;stroke-dasharray:none;stroke-opacity:1"
       transform="matrix(1.3333333,0,0,-1.3333333,242.69867,161.78133)" />
    <path
       id="path42"
       d="m 2.39102,0 c -0.99626,0.19925 -2.78952,0.59775 -3.98503,1.49438 0.99626,-1.09588 0.99626,-1.89288 0,-2.98876 C -0.3985,-0.59775 1.39476,-0.19925 2.39102,0 Z"
       style="fill:#ffffff;fill-opacity:1;fill-rule:nonzero;stroke:none"
       transform="matrix(0.78370667,1.0786667,1.0786667,-0.78370667,307.47355,250.93596)" />
    <path
       id="path43"
       d="M 5.83725,-6.4437623 V -7.2207155 H 0.24740625 v 0.7769532 H 2.556 v 6.44273433 H 3.5052188 V -6.4437623 Z m 2.6601563,6.55031246 c 0.890625,0 1.5703127,-0.34664063 2.0156247,-1.03992188 L 9.96225,-1.3756373 c -0.1757812,0.2271093 -0.3867187,0.39445308 -0.609375,0.52593746 -0.2226562,0.13148437 -0.4921875,0.20320312 -0.8203125,0.20320312 -0.4570312,0 -0.8320312,-0.16734375 -1.125,-0.49007808 C 7.1145938,-1.4593092 6.96225,-1.8896217 6.9505313,-2.4155592 h 3.6328127 v -0.3944531 c 0,-0.8486719 -0.199219,-1.4941407 -0.5859377,-1.9722657 -0.3867188,-0.4542187 -0.9375,-0.6813281 -1.6289063,-0.6813281 -0.421875,0 -0.8203125,0.1195313 -1.1835937,0.3466406 -0.3632813,0.2510157 -0.65625,0.57375 -0.8554688,0.9921094 C 6.1302188,-3.7064967 6.02475,-3.2283717 6.02475,-2.7024342 v 0.1553906 c 0,0.8128125 0.2226563,1.4582813 0.6914063,1.93640626 0.4570312,0.478125 1.0429687,0.7171875 1.78125,0.7171875 z M 8.3685,-4.7105592 c 0.3867188,0 0.6914063,0.1314844 0.9140625,0.3825 0.2226563,0.2629687 0.3515625,0.6215625 0.375,1.0877344 v 0.071719 H 6.9856875 C 7.0325625,-3.6586842 7.1849063,-4.0292311 7.4427188,-4.304153 7.6770938,-4.5790748 7.9935,-4.7105592 8.3685,-4.7105592 Z m 6.395508,3.2871094 c 0,0.2390625 -0.117188,0.43031246 -0.316406,0.57374996 -0.210938,0.13148437 -0.480469,0.20320312 -0.832032,0.20320312 -0.386718,0 -0.691406,-0.095625 -0.914062,-0.27492187 C 12.467133,-1.1126686 12.349945,-1.3517311 12.338227,-1.6625123 h -0.925782 c 0,0.3346875 0.09375,0.6215625 0.28125,0.89648433 0.1875,0.27492188 0.445313,0.49007813 0.785157,0.64546875 0.328125,0.15539063 0.714843,0.22710938 1.136718,0.22710938 0.609375,0 1.101563,-0.1434375 1.488282,-0.4303125 0.386718,-0.286875 0.574218,-0.669375 0.574218,-1.15945316 0,-0.286875 -0.07031,-0.5259375 -0.199218,-0.7291406 -0.140625,-0.2032031 -0.351563,-0.3825 -0.632813,-0.5259375 -0.28125,-0.1434375 -0.65625,-0.2629687 -1.113281,-0.3585937 -0.457031,-0.1075782 -0.773438,-0.2032032 -0.949219,-0.3227344 -0.1875,-0.1075781 -0.269531,-0.2749219 -0.269531,-0.5020313 0,-0.2390625 0.09375,-0.4303125 0.292969,-0.57375 0.175781,-0.1434375 0.445312,-0.2151562 0.773437,-0.2151562 0.328125,0 0.597656,0.083672 0.808594,0.2749219 0.210937,0.1792968 0.328125,0.4064062 0.328125,0.6454687 h 0.914062 c 0,-0.4900781 -0.199218,-0.8845312 -0.574218,-1.1953125 -0.375,-0.3227344 -0.867188,-0.478125 -1.476563,-0.478125 -0.585937,0 -1.066406,0.1434375 -1.429687,0.4542188 -0.375,0.2988281 -0.5625,0.6813281 -0.5625,1.1116406 0,0.2749219 0.07031,0.5020312 0.199218,0.6813281 0.128907,0.2032031 0.339844,0.3585938 0.609375,0.5020313 0.269532,0.1434375 0.644532,0.2510156 1.101563,0.3585937 0.46875,0.095625 0.796875,0.2151563 0.984375,0.3585938 0.175781,0.1314843 0.28125,0.3346875 0.28125,0.57375 z m 3.360351,-5.2474219 h -0.914062 v 1.3028906 h -0.996094 v 0.7171875 h 0.996094 v 3.3229688 c 0,0.46617183 0.09375,0.81281246 0.304687,1.06382808 0.199219,0.2390625 0.515625,0.37054688 0.925782,0.37054688 0.222656,0 0.457031,-0.03585938 0.703125,-0.10757813 v -0.74109375 c -0.175782,0.0358594 -0.328125,0.0597656 -0.433594,0.0597656 -0.222656,0 -0.375,-0.0478125 -0.457031,-0.16734375 -0.09375,-0.095625 -0.128907,-0.26296873 -0.128907,-0.47812493 v -3.3229688 h 0.996094 v -0.7171875 h -0.996094 z m 5.522461,6.66984373 h 1.992188 c 0.644531,0 1.21875,-0.1434375 1.710937,-0.41835937 0.480469,-0.27492188 0.855469,-0.66937496 1.125,-1.17140626 0.257813,-0.5139844 0.398438,-1.1116406 0.398438,-1.8049219 v -0.4542187 c -0.01172,-0.669375 -0.152344,-1.2670313 -0.410156,-1.7690625 -0.269532,-0.5139844 -0.632813,-0.9084375 -1.113282,-1.1953125 -0.492187,-0.2629688 -1.042968,-0.4064063 -1.675781,-0.4064063 H 23.64682 Z m 0.949219,-6.44273433 h 1.113281 c 0.703125,0.011953 1.253907,0.2390625 1.640625,0.7052343 0.375,0.4542188 0.574219,1.0996875 0.574219,1.9125 v 0.4064063 c 0,0.860625 -0.210937,1.5060937 -0.621094,1.9603125 -0.410156,0.4542187 -0.972656,0.68132811 -1.710937,0.68132811 h -0.996094 z m 7.792969,6.55031246 c 0.890625,0 1.570312,-0.34664063 2.015625,-1.03992188 L 33.853852,-1.3756373 c -0.175782,0.2271093 -0.386719,0.39445308 -0.609375,0.52593746 -0.222657,0.13148437 -0.492188,0.20320312 -0.820313,0.20320312 -0.457031,0 -0.832031,-0.16734375 -1.125,-0.49007808 -0.292969,-0.3227344 -0.445312,-0.7530469 -0.457031,-1.2789844 h 3.632812 v -0.3944531 c 0,-0.8486719 -0.199218,-1.4941407 -0.585937,-1.9722657 -0.386719,-0.4542187 -0.9375,-0.6813281 -1.628906,-0.6813281 -0.421875,0 -0.820313,0.1195313 -1.183594,0.3466406 -0.363281,0.2510157 -0.65625,0.57375 -0.855469,0.9921094 -0.199219,0.4183594 -0.304687,0.8964844 -0.304687,1.4224219 v 0.1553906 c 0,0.8128125 0.222656,1.4582813 0.691406,1.93640626 0.457031,0.478125 1.042969,0.7171875 1.78125,0.7171875 z M 32.260102,-4.7105592 c 0.386718,0 0.691406,0.1314844 0.914062,0.3825 0.222656,0.2629687 0.351563,0.6215625 0.375,1.0877344 v 0.071719 h -2.671875 c 0.04687,-0.4900781 0.199219,-0.860625 0.457031,-1.1355469 0.234375,-0.2749218 0.550782,-0.4064062 0.925782,-0.4064065 z m 4.998046,3.4544531 -1.371093,-4.111875 h -0.9375 l 1.945312,5.36695313 h 0.691406 l 1.933594,-5.36695313 h -0.9375 z m 5.314454,1.36265626 c 0.890625,0 1.570312,-0.34664063 2.015625,-1.03992188 L 44.037445,-1.3756373 c -0.175781,0.2271093 -0.386718,0.39445308 -0.609375,0.52593746 -0.222656,0.13148437 -0.492187,0.20320312 -0.820312,0.20320312 -0.457031,0 -0.832031,-0.16734375 -1.125,-0.49007808 -0.292969,-0.3227344 -0.445313,-0.7530469 -0.457031,-1.2789844 h 3.632812 v -0.3944531 c 0,-0.8486719 -0.199219,-1.4941407 -0.585937,-1.9722657 -0.386719,-0.4542187 -0.9375,-0.6813281 -1.628907,-0.6813281 -0.421875,0 -0.820312,0.1195313 -1.183593,0.3466406 -0.363282,0.2510157 -0.65625,0.57375 -0.855469,0.9921094 -0.199219,0.4183594 -0.304688,0.8964844 -0.304688,1.4224219 v 0.1553906 c 0,0.8128125 0.222657,1.4582813 0.691407,1.93640626 0.457031,0.478125 1.042968,0.7171875 1.78125,0.7171875 z M 42.443695,-4.7105592 c 0.386719,0 0.691407,0.1314844 0.914063,0.3825 0.222656,0.2629687 0.351562,0.6215625 0.375,1.0877344 v 0.071719 h -2.671875 c 0.04687,-0.4900781 0.199219,-0.860625 0.457031,-1.1355469 0.234375,-0.2749218 0.550781,-0.4064062 0.925781,-0.4064065 z m 4.271485,4.70953123 V -7.6271217 h -0.925782 v 7.62609373 z m 1.207031,-2.73726563 v 0.059766 c 0,0.8367188 0.222656,1.5060938 0.679687,2.02007816 0.445313,0.50203125 1.042969,0.765 1.769532,0.765 0.480468,0 0.902343,-0.11953125 1.277343,-0.34664063 0.375,-0.2390625 0.65625,-0.56179687 0.855469,-0.98015623 0.210938,-0.4064063 0.304688,-0.8725781 0.304688,-1.3985156 v -0.071719 c 0,-0.8367187 -0.234375,-1.5060937 -0.679688,-2.0200781 -0.445312,-0.5020313 -1.03125,-0.7530469 -1.769531,-0.7530469 -0.480469,0 -0.902344,0.1195313 -1.265625,0.3466406 -0.363281,0.2151563 -0.667969,0.5378907 -0.867188,0.95625 -0.199218,0.4303125 -0.304687,0.8964844 -0.304687,1.4224217 z m 0.925781,0.1195313 c 0,-0.669375 0.128906,-1.1833594 0.421875,-1.5539063 0.269531,-0.3585937 0.632813,-0.5378906 1.089844,-0.5378906 0.46875,0 0.832031,0.1792969 1.125,0.5378906 0.269531,0.3705469 0.410156,0.8486719 0.410156,1.434375 0,0.669375 -0.140625,1.1714063 -0.410156,1.5419531 -0.28125,0.35859378 -0.644531,0.54984378 -1.113281,0.54984378 -0.46875,0 -0.832032,-0.17929687 -1.101563,-0.53789058 -0.292969,-0.3585938 -0.421875,-0.8367188 -0.421875,-1.434375 z m 9.65918,0 v -0.095625 c 0,-0.860625 -0.199219,-1.53 -0.574219,-2.0200782 -0.375,-0.4900781 -0.878906,-0.7291406 -1.523437,-0.7291406 -0.667969,0 -1.195313,0.2271094 -1.570313,0.6813281 l -0.03516,-0.5857031 h -0.84375 v 7.4348438 h 0.925781 v -2.58187504 c 0.363281,0.40640625 0.878906,0.6215625 1.535156,0.6215625 0.632813,0 1.136719,-0.25101563 1.511719,-0.75304688 0.375,-0.49007808 0.574219,-1.14749998 0.574219,-1.97226558 z m -0.925781,-0.1195313 c 0,0.6932813 -0.140625,1.2192188 -0.386719,1.5658594 -0.269531,0.34664061 -0.609375,0.52593748 -1.054688,0.52593748 -0.5625,0 -0.984375,-0.25101562 -1.253906,-0.74109378 v -2.5699218 c 0.269531,-0.478125 0.691406,-0.7291407 1.242188,-0.7291407 0.457031,0 0.796875,0.1792969 1.066406,0.5259375 0.246094,0.3466407 0.386719,0.8247657 0.386719,1.4224219 z m 2.947265,-2.6296875 h -0.867187 v 5.36695313 h 0.914062 V -3.921653 c 0.222657,-0.5139843 0.632813,-0.765 1.242188,-0.765 0.761719,0 1.148437,0.3944532 1.148437,1.1714063 v 3.51421873 h 0.914063 V -3.5630592 c 0.03516,-0.3346875 0.175781,-0.6096094 0.398437,-0.8128125 0.222657,-0.2032031 0.492188,-0.3107813 0.84375,-0.3107813 0.410157,0 0.703125,0.1075782 0.878907,0.286875 0.175781,0.1792969 0.269531,0.4661719 0.269531,0.8486719 v 3.55007813 h 0.914062 V -3.5989186 c -0.01172,-1.243125 -0.609375,-1.8646875 -1.792968,-1.8646875 -0.398438,0 -0.738282,0.071719 -1.03125,0.2390625 -0.28125,0.1673438 -0.515625,0.3705469 -0.691407,0.6215625 -0.269531,-0.57375 -0.773437,-0.860625 -1.523437,-0.860625 -0.679688,0 -1.207031,0.2271094 -1.59375,0.6813281 z m 10.271485,5.47453126 c 0.890625,0 1.570312,-0.34664063 2.015625,-1.03992188 L 72.264984,-1.3756373 c -0.175781,0.2271093 -0.386718,0.39445308 -0.609375,0.52593746 -0.222656,0.13148437 -0.492187,0.20320312 -0.820312,0.20320312 -0.457031,0 -0.832031,-0.16734375 -1.125,-0.49007808 -0.292969,-0.3227344 -0.445313,-0.7530469 -0.457031,-1.2789844 h 3.632812 v -0.3944531 c 0,-0.8486719 -0.199219,-1.4941407 -0.585937,-1.9722657 -0.386719,-0.4542187 -0.9375,-0.6813281 -1.628907,-0.6813281 -0.421875,0 -0.820312,0.1195313 -1.183593,0.3466406 -0.363282,0.2510157 -0.65625,0.57375 -0.855469,0.9921094 -0.199219,0.4183594 -0.304688,0.8964844 -0.304688,1.4224219 v 0.1553906 c 0,0.8128125 0.222657,1.4582813 0.691407,1.93640626 0.457031,0.478125 1.042968,0.7171875 1.78125,0.7171875 z M 70.671234,-4.7105592 c 0.386719,0 0.691407,0.1314844 0.914063,0.3825 0.222656,0.2629687 0.351562,0.6215625 0.375,1.0877344 v 0.071719 h -2.671875 c 0.04687,-0.4900781 0.199219,-0.860625 0.457031,-1.1355469 0.234375,-0.2749218 0.550781,-0.4064062 0.925781,-0.4064065 z m 4.145508,-0.6574219 h -0.878906 v 5.36695313 h 0.925781 V -3.826028 c 0.117188,-0.2629687 0.292969,-0.4661718 0.515625,-0.6215625 0.222656,-0.1553906 0.492188,-0.2390625 0.796875,-0.2390625 0.363281,0 0.621094,0.095625 0.808594,0.2749219 0.175781,0.1792969 0.269531,0.4661719 0.269531,0.8486719 v 3.56203123 h 0.914063 V -3.5511061 c -0.02344,-1.2789844 -0.597657,-1.9125 -1.722657,-1.9125 -0.65625,0 -1.195312,0.2629688 -1.605468,0.765 z m 5.973633,-1.3028906 h -0.914062 v 1.3028906 h -0.996094 v 0.7171875 h 0.996094 v 3.3229688 c 0,0.46617183 0.09375,0.81281246 0.304687,1.06382808 0.199219,0.2390625 0.515625,0.37054688 0.925781,0.37054688 0.222657,0 0.457032,-0.03585938 0.703125,-0.10757813 v -0.74109375 c -0.175781,0.0358594 -0.328125,0.0597656 -0.433593,0.0597656 -0.222657,0 -0.375,-0.0478125 -0.457032,-0.16734375 -0.09375,-0.095625 -0.128906,-0.26296873 -0.128906,-0.47812493 v -3.3229688 h 0.996094 v -0.7171875 h -0.996094 z m 0,0"
       style="fill:#ffffff;fill-opacity:1;fill-rule:nonzero;stroke:none"
       aria-label="TestDevelopment"
       transform="matrix(1.3333333,0,0,1.3071895,276.592,287.724)" />
    <path
       id="path44"
       d="M 0,0 V 0"
       style="fill:none;stroke:#929293;stroke-width:0.3985;stroke-linecap:butt;stroke-linejoin:miter;stroke-miterlimit:10;stroke-dasharray:none;stroke-opacity:1"
       transform="matrix(1.3333333,0,0,-1.3333333,242.69867,161.78133)" />
    <path
       id="path45"
       d="m 8.33101,-11.4665 5.1488,15.84637"
       style="fill:none;stroke:#929293;stroke-width:0.3985;stroke-linecap:butt;stroke-linejoin:miter;stroke-miterlimit:10;stroke-dasharray:none;stroke-opacity:1"
       transform="matrix(1.3333333,0,0,-1.3333333,242.69867,161.78133)" />
    <path
       id="path46"
       d="M 16.66217,-22.93344 26.95966,8.75974"
       style="fill:none;stroke:#929293;stroke-width:0.3985;stroke-linecap:butt;stroke-linejoin:miter;stroke-miterlimit:10;stroke-dasharray:none;stroke-opacity:1"
       transform="matrix(1.3333333,0,0,-1.3333333,242.69867,161.78133)" />
    <path
       id="path47"
       d="M 24.9932,-34.39995 40.43947,13.13962"
       style="fill:none;stroke:#929293;stroke-width:0.3985;stroke-linecap:butt;stroke-linejoin:miter;stroke-miterlimit:10;stroke-dasharray:none;stroke-opacity:1"
       transform="matrix(1.3333333,0,0,-1.3333333,242.69867,161.78133)" />
    <path
       id="path48"
       d="M 33.32436,-45.86688 53.91931,17.5195"
       style="fill:none;stroke:#929293;stroke-width:0.3985;stroke-linecap:butt;stroke-linejoin:miter;stroke-miterlimit:10;stroke-dasharray:none;stroke-opacity:1"
       transform="matrix(1.3333333,0,0,-1.3333333,242.69867,161.78133)" />
    <path
       id="path49"
       d="M 41.65543,-57.33339 67.39914,21.89938"
       style="fill:none;stroke:#929293;stroke-width:0.3985;stroke-linecap:butt;stroke-linejoin:miter;stroke-miterlimit:10;stroke-dasharray:none;stroke-opacity:1"
       transform="matrix(1.3333333,0,0,-1.3333333,242.69867,161.78133)" />
    <path
       id="path50"
       d="M 13.47981,4.37987 5e-5,14.17343 m 0,0 -67.3994,7.7254 m 0,0 46.57171,-50.5653 m 0,0 29.15865,17.19997 m 0,0 5.1488,15.84637"
       style="fill:#00a990;fill-opacity:1;fill-rule:nonzero;stroke:#00a990;stroke-width:0.79701;stroke-linecap:butt;stroke-linejoin:miter;stroke-miterlimit:10;stroke-dasharray:none;stroke-opacity:1"
       transform="matrix(1.3333333,0,0,-1.3333333,242.69867,161.78133)" />
    <path
       id="path51"
       d="M 14.9011,4.84167 C 14.64606,5.62662 13.80296,6.05618 13.018,5.80115 12.23305,5.5461 11.8035,4.70302 12.05853,3.91806 12.31358,3.1331 13.15666,2.70354 13.94162,2.95859 c 0.78496,0.25503 1.21452,1.09813 0.95948,1.88308 z"
       style="fill:#00a990;fill-opacity:1;fill-rule:nonzero;stroke:#00a990;stroke-width:0.79701;stroke-linecap:butt;stroke-linejoin:miter;stroke-miterlimit:10;stroke-dasharray:none;stroke-opacity:1"
       transform="matrix(1.3333333,0,0,-1.3333333,242.69867,161.78133)" />
    <path
       id="path52"
       d="m 1.42133,14.63524 c -0.25504,0.78496 -1.09813,1.21452 -1.88306,0.95947 -0.78496,-0.25503 -1.21452,-1.09813 -0.95947,-1.88309 0.25503,-0.78494 1.09813,-1.2145 1.88305,-0.95947 0.78496,0.25505 1.21453,1.09813 0.95948,1.88309 z"
       style="fill:#00a990;fill-opacity:1;fill-rule:nonzero;stroke:#00a990;stroke-width:0.79701;stroke-linecap:butt;stroke-linejoin:miter;stroke-miterlimit:10;stroke-dasharray:none;stroke-opacity:1"
       transform="matrix(1.3333333,0,0,-1.3333333,242.69867,161.78133)" />
    <path
       id="path53"
       d="m -65.97807,22.36064 c -0.25504,0.78496 -1.09813,1.21452 -1.88308,0.95947 -0.78495,-0.25503 -1.21452,-1.09813 -0.95948,-1.88308 0.25505,-0.78495 1.09814,-1.21451 1.88308,-0.95948 0.78496,0.25505 1.21453,1.09813 0.95948,1.88309 z"
       style="fill:#00a990;fill-opacity:1;fill-rule:nonzero;stroke:#00a990;stroke-width:0.79701;stroke-linecap:butt;stroke-linejoin:miter;stroke-miterlimit:10;stroke-dasharray:none;stroke-opacity:1"
       transform="matrix(1.3333333,0,0,-1.3333333,242.69867,161.78133)" />
    <path
       id="path54"
       d="m -19.40636,-28.20467 c -0.25503,0.78496 -1.09813,1.21453 -1.88307,0.95947 -0.78496,-0.25503 -1.21452,-1.09812 -0.95947,-1.88308 0.25503,-0.78494 1.09813,-1.21451 1.88307,-0.95947 0.78496,0.25505 1.21453,1.09813 0.95947,1.88308 z"
       style="fill:#00a990;fill-opacity:1;fill-rule:nonzero;stroke:#00a990;stroke-width:0.79701;stroke-linecap:butt;stroke-linejoin:miter;stroke-miterlimit:10;stroke-dasharray:none;stroke-opacity:1"
       transform="matrix(1.3333333,0,0,-1.3333333,242.69867,161.78133)" />
    <path
       id="path55"
       d="m 9.75229,-11.0047 c -0.25504,0.78494 -1.09813,1.21451 -1.88309,0.95947 -0.78496,-0.25505 -1.2145,-1.09813 -0.95947,-1.88308 0.25505,-0.78496 1.09813,-1.21453 1.88309,-0.95948 0.78495,0.25504 1.21452,1.09813 0.95947,1.88309 z"
       style="fill:#00a990;fill-opacity:1;fill-rule:nonzero;stroke:#00a990;stroke-width:0.79701;stroke-linecap:butt;stroke-linejoin:miter;stroke-miterlimit:10;stroke-dasharray:none;stroke-opacity:1"
       transform="matrix(1.3333333,0,0,-1.3333333,242.69867,161.78133)" />
    <path
       id="path56"
       d="M 67.39914,21.89938 0,56.69464 m 0,0 L -13.4798,4.3796 m 0,0 0.98314,-21.57922 m 0,0 54.15209,-40.13377 m 0,0 25.74371,79.23277"
       style="fill:#ed192e;fill-opacity:1;fill-rule:nonzero;stroke:#ed192e;stroke-width:0.79701;stroke-linecap:butt;stroke-linejoin:miter;stroke-miterlimit:10;stroke-dasharray:none;stroke-opacity:1"
       transform="matrix(1.3333333,0,0,-1.3333333,242.69867,161.78133)" />
    <path
       id="path57"
       d="m 68.82042,22.36119 c -0.25505,0.78496 -1.09813,1.21452 -1.88309,0.95947 -0.78496,-0.25505 -1.21452,-1.09813 -0.95947,-1.88308 0.25504,-0.78496 1.09813,-1.21451 1.88309,-0.95948 0.78494,0.25505 1.2145,1.09813 0.95947,1.88309 z"
       style="fill:#ed192e;fill-opacity:1;fill-rule:nonzero;stroke:#ed192e;stroke-width:0.79701;stroke-linecap:butt;stroke-linejoin:miter;stroke-miterlimit:10;stroke-dasharray:none;stroke-opacity:1"
       transform="matrix(1.3333333,0,0,-1.3333333,242.69867,161.78133)" />
    <path
       id="path58"
       d="m 1.42125,57.15645 c -0.25504,0.78495 -1.09813,1.21452 -1.88305,0.95947 -0.78497,-0.25503 -1.21453,-1.09813 -0.95948,-1.88309 0.25504,-0.78494 1.09813,-1.2145 1.88306,-0.95947 0.78495,0.25505 1.21452,1.09813 0.95947,1.88309 z"
       style="fill:#ed192e;fill-opacity:1;fill-rule:nonzero;stroke:#ed192e;stroke-width:0.79701;stroke-linecap:butt;stroke-linejoin:miter;stroke-miterlimit:10;stroke-dasharray:none;stroke-opacity:1"
       transform="matrix(1.3333333,0,0,-1.3333333,242.69867,161.78133)" />
    <path
       id="path59"
       d="m -12.05852,4.8414 c -0.25505,0.78496 -1.09813,1.21451 -1.88308,0.95947 -0.78496,-0.25505 -1.21453,-1.09813 -0.95948,-1.88308 0.25504,-0.78496 1.09813,-1.21453 1.88309,-0.95948 0.78496,0.25505 1.21451,1.09813 0.95947,1.88309 z"
       style="fill:#ed192e;fill-opacity:1;fill-rule:nonzero;stroke:#ed192e;stroke-width:0.79701;stroke-linecap:butt;stroke-linejoin:miter;stroke-miterlimit:10;stroke-dasharray:none;stroke-opacity:1"
       transform="matrix(1.3333333,0,0,-1.3333333,242.69867,161.78133)" />
    <path
       id="path60"
       d="m -11.07538,-16.73781 c -0.25505,0.78496 -1.09813,1.21451 -1.88309,0.95947 -0.78495,-0.25505 -1.2145,-1.09812 -0.95947,-1.88308 0.25505,-0.78496 1.09813,-1.21453 1.88309,-0.95948 0.78495,0.25506 1.21452,1.09813 0.95947,1.88309 z"
       style="fill:#ed192e;fill-opacity:1;fill-rule:nonzero;stroke:#ed192e;stroke-width:0.79701;stroke-linecap:butt;stroke-linejoin:miter;stroke-miterlimit:10;stroke-dasharray:none;stroke-opacity:1"
       transform="matrix(1.3333333,0,0,-1.3333333,242.69867,161.78133)" />
    <path
       id="path61"
       d="m 43.0767,-56.87158 c -0.25504,0.78496 -1.09814,1.21452 -1.88308,0.95947 -0.78496,-0.25503 -1.21452,-1.09813 -0.95947,-1.88309 0.25503,-0.78495 1.09813,-1.2145 1.88307,-0.95947 0.78496,0.25505 1.21452,1.09813 0.95948,1.88309 z"
       style="fill:#ed192e;fill-opacity:1;fill-rule:nonzero;stroke:#ed192e;stroke-width:0.79701;stroke-linecap:butt;stroke-linejoin:miter;stroke-miterlimit:10;stroke-dasharray:none;stroke-opacity:1"
       transform="matrix(1.3333333,0,0,-1.3333333,242.69867,161.78133)" />
    <path
       id="path62"
       d="M 20.21973,6.5698 0,28.34732 m 0,0 V 0 m 0,0 v 0 m 0,0 v 0 m 0,0 20.21973,6.5698"
       style="fill:#fddf4c;fill-opacity:1;fill-rule:nonzero;stroke:#fddf4c;stroke-width:0.79701;stroke-linecap:butt;stroke-linejoin:miter;stroke-miterlimit:10;stroke-dasharray:none;stroke-opacity:1"
       transform="matrix(1.3333333,0,0,-1.3333333,242.69867,161.78133)" />
    <path
       id="path63"
       d="M 21.641,7.0316 C 21.38597,7.81656 20.54288,8.24612 19.75793,7.99107 18.97298,7.73604 18.54341,6.89294 18.79846,6.108 19.0535,5.32304 19.89659,4.89348 20.68153,5.14853 21.46649,5.40356 21.89606,6.24666 21.641,7.0316 Z"
       style="fill:#fddf4c;fill-opacity:1;fill-rule:nonzero;stroke:#fddf4c;stroke-width:0.79701;stroke-linecap:butt;stroke-linejoin:miter;stroke-miterlimit:10;stroke-dasharray:none;stroke-opacity:1"
       transform="matrix(1.3333333,0,0,-1.3333333,242.69867,161.78133)" />
    <path
       id="path64"
       d="m 1.42125,28.80913 c -0.25504,0.78496 -1.09813,1.21451 -1.88305,0.95947 -0.78497,-0.25505 -1.21453,-1.09813 -0.95948,-1.88309 0.25504,-0.78495 1.09813,-1.21452 1.88306,-0.95947 0.78495,0.25505 1.21452,1.09813 0.95947,1.88309 z"
       style="fill:#fddf4c;fill-opacity:1;fill-rule:nonzero;stroke:#fddf4c;stroke-width:0.79701;stroke-linecap:butt;stroke-linejoin:miter;stroke-miterlimit:10;stroke-dasharray:none;stroke-opacity:1"
       transform="matrix(1.3333333,0,0,-1.3333333,242.69867,161.78133)" />
    <path
       id="path65"
       d="M 1.42126,0.46179 C 1.16623,1.24675 0.32314,1.67632 -0.46179,1.42126 -1.24675,1.16623 -1.67632,0.32314 -1.42126,-0.46179 c 0.25503,-0.78496 1.09812,-1.21453 1.88305,-0.95947 0.78496,0.25503 1.21453,1.09812 0.95947,1.88305 z"
       style="fill:#fddf4c;fill-opacity:1;fill-rule:nonzero;stroke:#fddf4c;stroke-width:0.79701;stroke-linecap:butt;stroke-linejoin:miter;stroke-miterlimit:10;stroke-dasharray:none;stroke-opacity:1"
       transform="matrix(1.3333333,0,0,-1.3333333,242.69867,161.78133)" />
    <path
       id="path66"
       d="M 1.42126,0.46179 C 1.16623,1.24675 0.32314,1.67632 -0.46179,1.42126 -1.24675,1.16623 -1.67632,0.32314 -1.42126,-0.46179 c 0.25503,-0.78496 1.09812,-1.21453 1.88305,-0.95947 0.78496,0.25503 1.21453,1.09812 0.95947,1.88305 z"
       style="fill:#fddf4c;fill-opacity:1;fill-rule:nonzero;stroke:#fddf4c;stroke-width:0.79701;stroke-linecap:butt;stroke-linejoin:miter;stroke-miterlimit:10;stroke-dasharray:none;stroke-opacity:1"
       transform="matrix(1.3333333,0,0,-1.3333333,242.69867,161.78133)" />
    <path
       id="path67"
       d="M 1.42126,0.46179 C 1.16623,1.24675 0.32314,1.67632 -0.46179,1.42126 -1.24675,1.16623 -1.67632,0.32314 -1.42126,-0.46179 c 0.25503,-0.78496 1.09812,-1.21453 1.88305,-0.95947 0.78496,0.25503 1.21453,1.09812 0.95947,1.88305 z"
       style="fill:#fddf4c;fill-opacity:1;fill-rule:nonzero;stroke:#fddf4c;stroke-width:0.79701;stroke-linecap:butt;stroke-linejoin:miter;stroke-miterlimit:10;stroke-dasharray:none;stroke-opacity:1"
       transform="matrix(1.3333333,0,0,-1.3333333,242.69867,161.78133)" />
    <path
       id="path68"
       d="m 176.76111,115.1022 h -60.43009 c -1.10047,0 -1.99255,-0.89209 -1.99255,-1.99255 V 78.97127 c 0,-1.10048 0.89208,-1.99256 1.99255,-1.99256 h 60.43009 c 1.10046,0 1.99255,0.89208 1.99255,1.99256 v 34.13838 c 0,1.10046 -0.89209,1.99255 -1.99255,1.99255 z"
       style="fill:#5d5c5e;fill-opacity:1;fill-rule:nonzero;stroke:none"
       transform="matrix(1.3333333,0,0,-1.3333333,242.69867,161.78133)" />
    <path
       id="path69"
       d="M 1.99255,0 C 1.99255,1.10046 1.10046,1.99255 0,1.99255 -1.10046,1.99255 -1.99255,1.10046 -1.99255,0 c 0,-1.10046 0.89209,-1.99255 1.99255,-1.99255 1.10046,0 1.99255,0.89209 1.99255,1.99255 z"
       style="fill:#00a990;fill-opacity:1;fill-rule:nonzero;stroke:#00a990;stroke-width:0.3985;stroke-linecap:butt;stroke-linejoin:miter;stroke-miterlimit:10;stroke-dasharray:none;stroke-opacity:1"
       transform="matrix(1.3333333,0,0,-1.3333333,404.00267,18.276)" />
    <path
       id="path70"
       d="M 4.733375,-1.8512187 5.4130625,3.4375e-4 H 6.3622813 L 3.65525,-7.0777812 H 2.8349375 L 0.139625,3.4375e-4 h 0.9609375 l 0.65625,-1.85156245 z M 2.0497813,-2.6246562 3.2450938,-5.9293437 4.452125,-2.6246562 Z M 6.9540781,-2.68325 v 0.070312 c 0,0.8085938 0.1875,1.4648438 0.5742188,1.96875 0.3867187,0.4921875 0.8789062,0.75 1.5,0.75 0.6328125,0 1.1484371,-0.234375 1.5000001,-0.66796875 l 0.04687,0.5625 h 0.820312 V -7.4762187 h -0.890625 v 2.7421875 C 10.141578,-5.1441875 9.6493906,-5.355125 9.0400156,-5.355125 c -0.6210937,0 -1.125,0.2460938 -1.5117187,0.7382813 -0.3867188,0.4804687 -0.5742188,1.125 -0.5742188,1.9335937 z m 0.9023438,0.1171875 c 0,-0.6679687 0.1289062,-1.1835937 0.375,-1.5234375 0.234375,-0.328125 0.5859375,-0.5039062 1.0195312,-0.5039062 0.5625,0 0.9726559,0.2460937 1.2539059,0.7382812 v 2.4257813 c -0.269531,0.51562495 -0.6914059,0.7617187 -1.2539059,0.7617187 -0.4453125,0 -0.7851562,-0.1640625 -1.0195312,-0.4921875 -0.2460938,-0.3398437 -0.375,-0.8085937 -0.375,-1.40625 z M 13.627906,-5.261375 h -0.84375 V 3.4375e-4 h 0.890625 V -3.8434062 c 0.222657,-0.5039063 0.621094,-0.75 1.21875,-0.75 0.75,0 1.125,0.3867187 1.125,1.1484375 V 3.4375e-4 h 0.902344 V -3.4918437 c 0.03516,-0.328125 0.164063,-0.5976563 0.386719,-0.796875 0.210937,-0.1992188 0.480469,-0.3046875 0.820312,-0.3046875 0.410157,0 0.703125,0.1054687 0.867188,0.28125 0.175781,0.1757812 0.257812,0.4570312 0.257812,0.8320312 V 3.4375e-4 h 0.914063 V -3.527 c -0.02344,-1.21875 -0.609375,-1.828125 -1.769531,-1.828125 -0.386719,0 -0.726563,0.070312 -1.007813,0.234375 -0.269531,0.1640625 -0.503906,0.3632813 -0.667969,0.609375 -0.269531,-0.5625 -0.773437,-0.84375 -1.511718,-0.84375 -0.65625,0 -1.171875,0.2226563 -1.546875,0.6679688 z M 22.49607,3.4375e-4 V -5.261375 H 21.593727 V 3.4375e-4 Z M 21.523414,-6.6559062 c 0,0.1523437 0.03516,0.2695312 0.128906,0.375 0.08203,0.09375 0.210938,0.140625 0.398438,0.140625 0.164062,0 0.292969,-0.046875 0.398437,-0.140625 0.08203,-0.1054688 0.140625,-0.2226563 0.140625,-0.375 0,-0.140625 -0.05859,-0.2695313 -0.140625,-0.3632813 C 22.343727,-7.1246562 22.21482,-7.18325 22.050758,-7.18325 c -0.1875,0 -0.316406,0.058594 -0.398438,0.1640625 -0.09375,0.09375 -0.128906,0.2226563 -0.128906,0.3632813 z m 3.254883,1.3945312 H 23.922828 V 3.4375e-4 h 0.902344 V -3.7496562 c 0.117187,-0.2578125 0.292969,-0.4570313 0.515625,-0.609375 0.210937,-0.1523438 0.46875,-0.234375 0.773437,-0.234375 0.351563,0 0.621094,0.09375 0.796875,0.2695312 0.164063,0.1757813 0.257813,0.4570313 0.257813,0.8320313 V 3.4375e-4 h 0.890625 V -3.480125 c -0.01172,-1.2539062 -0.574219,-1.875 -1.675781,-1.875 -0.644532,0 -1.183594,0.2578125 -1.582032,0.75 z m 0,0"
       style="fill:#00a990;fill-opacity:1;fill-rule:nonzero;stroke:none"
       aria-label="Admin"
       transform="matrix(1.3333333,0,0,1.3333333,419.50133,22.702667)" />
    <path
       id="path71"
       d="M 1.99255,0 C 1.99255,1.10046 1.10046,1.99255 0,1.99255 -1.10046,1.99255 -1.99255,1.10046 -1.99255,0 c 0,-1.10046 0.89209,-1.99255 1.99255,-1.99255 1.10046,0 1.99255,0.89209 1.99255,1.99255 z"
       style="fill:#ed192e;fill-opacity:1;fill-rule:nonzero;stroke:#ed192e;stroke-width:0.3985;stroke-linecap:butt;stroke-linejoin:miter;stroke-miterlimit:10;stroke-dasharray:none;stroke-opacity:1"
       transform="matrix(1.3333333,0,0,-1.3333333,404.00267,34.216)" />
    <path
       id="path72"
       d="M 1.827125,3.984375e-4 V -7.0777266 h -0.9375 V 3.984375e-4 Z M 4.2353281,-5.2613203 H 3.3798594 V 3.984375e-4 H 4.2822031 V -3.7496016 c 0.1171875,-0.2578125 0.2929688,-0.4570312 0.515625,-0.609375 0.2109375,-0.1523437 0.46875,-0.234375 0.7734375,-0.234375 0.3515625,0 0.6210938,0.09375 0.796875,0.2695313 0.1640625,0.1757812 0.2578125,0.4570312 0.2578125,0.8320312 V 3.984375e-4 h 0.890625 V -3.4800703 c -0.011719,-1.2539063 -0.5742187,-1.875 -1.6757812,-1.875 -0.6445313,0 -1.1835938,0.2578125 -1.5820313,0.75 z m 7.7050779,3.8671875 c 0,0.234375 -0.117187,0.42187499 -0.316406,0.56249999 -0.210937,0.12890625 -0.480469,0.19921875 -0.808594,0.19921875 -0.386718,0 -0.679687,-0.09375 -0.9023435,-0.26953125 C 9.6904063,-1.0894453 9.5615,-1.3238203 9.5497813,-1.6285078 H 8.6474375 c 0,0.328125 0.09375,0.609375 0.28125,0.87890624 0.1757813,0.26953125 0.4335938,0.48046875 0.7617188,0.6328125 0.3281247,0.15234375 0.7031247,0.22265625 1.1249997,0.22265625 0.597657,0 1.066407,-0.140625 1.453125,-0.421875 0.375,-0.28125 0.5625,-0.65625 0.5625,-1.13671879 0,-0.28125 -0.07031,-0.515625 -0.199218,-0.7148437 -0.140625,-0.1992188 -0.339844,-0.375 -0.621094,-0.515625 -0.269531,-0.140625 -0.644531,-0.2578125 -1.089844,-0.3515625 -0.445312,-0.1054688 -0.761719,-0.1992188 -0.9257812,-0.3164063 -0.1757813,-0.1054687 -0.2578125,-0.2695312 -0.2578125,-0.4921875 0,-0.234375 0.082031,-0.421875 0.2812497,-0.5625 0.175782,-0.140625 0.433594,-0.2109375 0.761719,-0.2109375 0.316406,0 0.574219,0.082031 0.785156,0.2695313 0.210938,0.1757812 0.316407,0.3984375 0.316407,0.6328125 h 0.902343 c 0,-0.4804688 -0.1875,-0.8671875 -0.5625,-1.171875 -0.363281,-0.3164063 -0.84375,-0.46875 -1.441406,-0.46875 -0.574219,0 -1.0429687,0.140625 -1.40625,0.4453125 -0.3632812,0.2929687 -0.5507812,0.6679687 -0.5507812,1.0898437 0,0.2695313 0.070312,0.4921875 0.1992187,0.6679688 0.1289063,0.1992187 0.328125,0.3515625 0.5976563,0.4921875 0.2695312,0.140625 0.6210942,0.2460937 1.0781252,0.3515625 0.457031,0.09375 0.785156,0.2109375 0.960937,0.3515625 0.175782,0.1289062 0.28125,0.328125 0.28125,0.5625 z m 3.278321,-5.1445313 h -0.890625 v 1.2773438 h -0.972657 v 0.703125 h 0.972657 v 3.2578125 c 0,0.45703124 0.09375,0.79687499 0.292968,1.04296874 0.199219,0.234375 0.515625,0.36328125 0.925782,0.36328125 0.210937,0 0.445312,-0.03515625 0.679687,-0.1054687525 V -0.72616406 c -0.175781,0.0351563 -0.328125,0.0585938 -0.421875,0.0585938 -0.222656,0 -0.375,-0.046875 -0.457031,-0.1640625 -0.08203,-0.09375 -0.128906,-0.25781244 -0.128906,-0.46874994 v -3.2578125 h 0.996093 v -0.703125 h -0.996093 z m 4.573242,2.0859375 v -0.8320312 c -0.09375,-0.046875 -0.222656,-0.070312 -0.398438,-0.070312 -0.539062,0 -0.960937,0.234375 -1.253906,0.703125 l -0.01172,-0.609375 H 17.249 V 3.984375e-4 h 0.902344 V -3.7378828 c 0.199219,-0.4921875 0.597656,-0.75 1.195312,-0.75 0.164063,0 0.316407,0.011719 0.445313,0.035156 z m 4.081054,3.93750004 0.01172,0.5156249975 h 0.855469 V -5.2613203 h -0.902344 v 3.8320312 c -0.222656,0.51562504 -0.679687,0.76171879 -1.371094,0.76171879 -0.644531,0 -0.972656,-0.39843749 -0.972656,-1.19531249 v -3.3984375 h -0.902344 v 3.421875 c 0,0.6445312 0.152344,1.13671874 0.445313,1.45312499 0.304687,0.328125 0.726562,0.4921875 1.289062,0.4921875 0.679688,0 1.183594,-0.2109375 1.546875,-0.62109375 z m 4.341797,-0.1171875 c -0.46875,0 -0.832031,-0.1640625 -1.078125,-0.49218754 -0.246093,-0.328125 -0.363281,-0.796875 -0.363281,-1.40625 v -0.1640625 c 0,-0.6210937 0.117188,-1.1015625 0.375,-1.4296875 0.246094,-0.328125 0.609375,-0.4921875 1.066406,-0.4921875 0.339844,0 0.621094,0.1054688 0.855469,0.328125 0.234375,0.2109375 0.363281,0.4921875 0.386719,0.8320313 h 0.855469 c -0.03516,-0.5625 -0.246094,-1.0195313 -0.632813,-1.3710938 -0.386719,-0.3515625 -0.878906,-0.5273437 -1.464844,-0.5273437 -0.480468,0 -0.890625,0.1054687 -1.242187,0.328125 -0.363281,0.2109375 -0.632813,0.5390625 -0.820313,0.9375 -0.1875,0.3984375 -0.28125,0.8554687 -0.28125,1.359375 v 0.1523437 c 0,0.8320313 0.210938,1.4765625 0.632813,1.95703129 0.421875,0.48046875 0.996094,0.7265625 1.710937,0.7265625 0.363282,0 0.703125,-0.08203125 1.019532,-0.24609375 0.316406,-0.1640625 0.5625,-0.375 0.761718,-0.65625 0.1875,-0.28125004 0.292969,-0.56250004 0.316407,-0.86718754 h -0.855469 c -0.02344,0.3046875 -0.164063,0.5390625 -0.410156,0.73828129 -0.234375,0.19921875 -0.515625,0.29296875 -0.832032,0.29296875 z m 4.31836,-5.90625004 h -0.890625 v 1.2773438 h -0.972657 v 0.703125 h 0.972657 v 3.2578125 c 0,0.45703124 0.09375,0.79687499 0.292968,1.04296874 0.199219,0.234375 0.515625,0.36328125 0.925782,0.36328125 0.210937,0 0.445312,-0.03515625 0.679687,-0.1054687525 V -0.72616406 c -0.175781,0.0351563 -0.328125,0.0585938 -0.421875,0.0585938 -0.222656,0 -0.375,-0.046875 -0.457031,-0.1640625 -0.08203,-0.09375 -0.128906,-0.25781244 -0.128906,-0.46874994 v -3.2578125 h 0.996093 v -0.703125 H 32.53318 Z m 1.68457,3.8554688 v 0.058594 c 0,0.8203125 0.222656,1.4765625 0.667969,1.98046879 0.445312,0.4921875 1.019531,0.75 1.734375,0.75 0.46875,0 0.890625,-0.1171875 1.253906,-0.33984375 0.363281,-0.234375 0.644531,-0.55078125 0.84375,-0.96093754 0.199219,-0.3984375 0.292969,-0.8554687 0.292969,-1.3710937 v -0.070312 c 0,-0.8203125 -0.222656,-1.4765625 -0.667969,-1.9804688 -0.433594,-0.4921875 -1.007812,-0.7382812 -1.734375,-0.7382812 -0.46875,0 -0.878906,0.1171875 -1.242187,0.3398437 -0.351563,0.2109375 -0.644532,0.5273438 -0.84375,0.9375 -0.199219,0.421875 -0.304688,0.8789063 -0.304688,1.3945305 z m 0.914063,0.1171875 c 0,-0.65625 0.128906,-1.1601563 0.410156,-1.5234375 0.269531,-0.3515625 0.621094,-0.5273438 1.066406,-0.5273438 0.46875,0 0.820313,0.1757813 1.101563,0.5273438 0.269531,0.3632812 0.410156,0.8320312 0.410156,1.40625 0,0.65625 -0.140625,1.1484375 -0.410156,1.5117187 -0.269532,0.35156254 -0.632813,0.53906254 -1.089844,0.53906254 -0.457031,0 -0.808594,-0.17578125 -1.078125,-0.52734374 -0.28125,-0.3515625 -0.410156,-0.8203125 -0.410156,-1.40625 z m 7.552734,-1.8867188 v -0.8320312 c -0.09375,-0.046875 -0.222656,-0.070312 -0.398438,-0.070312 -0.539062,0 -0.960937,0.234375 -1.253906,0.703125 l -0.01172,-0.609375 H 40.141578 V 3.984375e-4 h 0.902344 V -3.7378828 c 0.199219,-0.4921875 0.597656,-0.75 1.195312,-0.75 0.164063,0 0.316407,0.011719 0.445313,0.035156 z m 0,0"
       style="fill:#ed192e;fill-opacity:1;fill-rule:nonzero;stroke:none"
       aria-label="Instructor"
       transform="matrix(1.3333333,0,0,1.3333333,419.50133,38.644)" />
    <path
       id="path73"
       d="M 1.99255,0 C 1.99255,1.10046 1.10046,1.99255 0,1.99255 -1.10046,1.99255 -1.99255,1.10046 -1.99255,0 c 0,-1.10046 0.89209,-1.99255 1.99255,-1.99255 1.10046,0 1.99255,0.89209 1.99255,1.99255 z"
       style="fill:#fddf4c;fill-opacity:1;fill-rule:nonzero;stroke:#fddf4c;stroke-width:0.3985;stroke-linecap:butt;stroke-linejoin:miter;stroke-miterlimit:10;stroke-dasharray:none;stroke-opacity:1"
       transform="matrix(1.3333333,0,0,-1.3333333,404.00267,50.156)" />
    <path
       id="path74"
       d="m 2.90525,-3.1508906 c 0.6445313,0.1875 1.078125,0.375 1.3125,0.5625 0.2460938,0.1875 0.375,0.4570312 0.375,0.8085937 0,0.3515625 -0.140625,0.6210938 -0.3984375,0.82031253 -0.2578125,0.19921875 -0.6445312,0.29296875 -1.125,0.29296875 -0.5273437,0 -0.9492187,-0.1171875 -1.265625,-0.36328128 C 1.4872813,-1.2876094 1.3232188,-1.6274531 1.3232188,-2.0493281 H 0.38571875 c 0,0.421875 0.1171875,0.7851562 0.33984375,1.10156248 0.234375,0.328125 0.5625,0.5859375 0.9726563,0.7734375 0.421875,0.1875 0.8789062,0.28125 1.3710937,0.28125 0.75,0 1.3476563,-0.17578125 1.7929688,-0.52734375 0.4453125,-0.33984375 0.6796875,-0.80859373 0.6796875,-1.38281253 0,-0.3515625 -0.09375,-0.6679687 -0.2578125,-0.9375 C 5.1318125,-2.9985469 4.8857188,-3.2329219 4.545875,-3.4321406 4.21775,-3.6313594 3.749,-3.8188594 3.1630625,-3.9829219 2.577125,-4.1469844 2.15525,-4.3344844 1.920875,-4.5337031 1.6747813,-4.7329219 1.5575938,-4.9672969 1.5575938,-5.2602656 c 0,-0.3515625 0.1289062,-0.6445313 0.3867187,-0.84375 0.2578125,-0.1992188 0.609375,-0.3046875 1.078125,-0.3046875 0.4921875,0 0.8671875,0.1289062 1.1484375,0.375 0.2695313,0.2460937 0.4101563,0.5859375 0.4101563,1.0078125 h 0.9375 c 0,-0.3867188 -0.1054688,-0.75 -0.3164063,-1.0898438 C 4.9911875,-6.4438594 4.6865,-6.7016719 4.3115,-6.8891719 c -0.375,-0.1875 -0.8203125,-0.2929687 -1.2890625,-0.2929687 -0.7265625,0 -1.3007812,0.1875 -1.734375,0.5507812 -0.45703125,0.3632813 -0.66796875,0.8203125 -0.66796875,1.3828125 0,0.5039063 0.17578125,0.9023438 0.53906255,1.2421875 0.3515625,0.3398438 0.9375,0.6210938 1.7460937,0.8554688 z m 4.9013672,-3.3867188 h -0.890625 v 1.2773438 H 5.9433359 v 0.703125 h 0.9726563 v 3.2578125 c 0,0.45703123 0.09375,0.79687498 0.2929687,1.04296873 0.1992188,0.234375 0.515625,0.36328125 0.9257813,0.36328125 0.2109375,0 0.4453125,-0.03515625 0.6796875,-0.10546875 v -0.7265625 c -0.1757813,0.0351563 -0.328125,0.0585938 -0.421875,0.0585938 -0.2226563,0 -0.375,-0.046875 -0.4570313,-0.1640625 -0.082031,-0.09375 -0.1289062,-0.25781253 -0.1289062,-0.46875003 v -3.2578125 h 0.9960937 v -0.703125 H 7.8066172 Z m 5.2851558,6.02343753 0.01172,0.515625 h 0.855469 V -5.2602656 h -0.902344 v 3.8320312 c -0.222656,0.51562503 -0.679687,0.76171878 -1.371094,0.76171878 -0.644531,0 -0.972656,-0.39843748 -0.972656,-1.19531248 V -5.2602656 H 9.8105234 v 3.421875 c 0,0.6445312 0.1523438,1.13671873 0.4453126,1.45312498 0.304687,0.328125 0.726562,0.4921875 1.289062,0.4921875 0.679688,0 1.183594,-0.2109375 1.546875,-0.62109375 z m 2.009766,-2.16796873 v 0.070312 c 0,0.8085937 0.1875,1.4648437 0.574219,1.96874998 0.386719,0.4921875 0.878906,0.75 1.5,0.75 0.632812,0 1.148437,-0.234375 1.5,-0.66796875 l 0.04687,0.5625 H 19.54294 V -7.4751094 h -0.89062 v 2.7421875 c -0.363281,-0.4101562 -0.855468,-0.6210937 -1.464843,-0.6210937 -0.621094,0 -1.125,0.2460937 -1.511719,0.7382812 -0.386719,0.4804688 -0.574219,1.125 -0.574219,1.9335938 z m 0.902344,0.1171875 c 0,-0.6679688 0.128906,-1.1835938 0.375,-1.5234375 0.234375,-0.328125 0.585937,-0.5039063 1.019531,-0.5039063 0.5625,0 0.972656,0.2460938 1.253906,0.7382813 v 2.4257812 c -0.269531,0.51562503 -0.691406,0.76171878 -1.253906,0.76171878 -0.445312,0 -0.785156,-0.1640625 -1.019531,-0.49218748 -0.246094,-0.3398438 -0.375,-0.8085938 -0.375,-1.40625 z m 7.12207,2.67187498 c 0.878906,0 1.546875,-0.33984375 1.980469,-1.01953125 L 24.555641,-1.3462031 c -0.164063,0.2226562 -0.363282,0.38671873 -0.585938,0.51562498 -0.222656,0.12890625 -0.492187,0.19921875 -0.808594,0.19921875 -0.445312,0 -0.808593,-0.1640625 -1.101562,-0.48046873 -0.292969,-0.3164063 -0.445313,-0.7382813 -0.445313,-1.2539063 h 3.5625 v -0.3867187 c 0,-0.8320313 -0.199218,-1.4648438 -0.574218,-1.9335938 -0.386719,-0.4453125 -0.925782,-0.6679687 -1.59375,-0.6679687 -0.421875,0 -0.808594,0.1171875 -1.171875,0.3398437 -0.351563,0.2460938 -0.632813,0.5625 -0.832032,0.9726563 -0.199218,0.4101562 -0.304687,0.8789062 -0.304687,1.3945312 v 0.1523438 c 0,0.796875 0.222656,1.4296875 0.679687,1.89843748 0.445313,0.46875 1.03125,0.703125 1.746094,0.703125 z M 23.008766,-4.6157344 c 0.375,0 0.667968,0.1289063 0.890625,0.375 0.222656,0.2578125 0.339843,0.609375 0.375,1.0664063 v 0.070312 h -2.636719 c 0.04687,-0.4804688 0.199219,-0.84375 0.445312,-1.1132813 0.246094,-0.2695312 0.550782,-0.3984375 0.925782,-0.398437 z m 4.051757,-0.6445312 h -0.855468 v 5.26171873 h 0.902343 V -3.7485469 c 0.117188,-0.2578125 0.292969,-0.4570312 0.515625,-0.609375 0.210938,-0.1523437 0.46875,-0.234375 0.773438,-0.234375 0.351562,0 0.621094,0.09375 0.796875,0.2695313 0.164062,0.1757812 0.257812,0.4570312 0.257812,0.8320312 v 3.49218753 h 0.890625 V -3.4790156 c -0.01172,-1.2539063 -0.574218,-1.875 -1.675781,-1.875 -0.644531,0 -1.183594,0.2578125 -1.582031,0.75 z m 5.850586,-1.2773438 h -0.890625 v 1.2773438 h -0.972656 v 0.703125 h 0.972656 v 3.2578125 c 0,0.45703123 0.09375,0.79687498 0.292969,1.04296873 0.199219,0.234375 0.515625,0.36328125 0.925781,0.36328125 0.210938,0 0.445313,-0.03515625 0.679688,-0.10546875 v -0.7265625 c -0.175781,0.0351563 -0.328125,0.0585938 -0.421875,0.0585938 -0.222656,0 -0.375,-0.046875 -0.457031,-0.1640625 -0.08203,-0.09375 -0.128907,-0.25781253 -0.128907,-0.46875003 v -3.2578125 h 0.996094 v -0.703125 h -0.996094 z m 0,0"
       style="fill:#fddf4c;fill-opacity:1;fill-rule:nonzero;stroke:none"
       aria-label="Student"
       transform="matrix(1.3333333,0,0,1.3333333,419.50133,54.584)" />
  </g>
</svg>
